<?xml version="1.0" encoding="UTF-8" standalone="no"?>
<svg width="18px" height="18px" viewBox="0 0 18 18" version="1.1" xmlns="http://www.w3.org/2000/svg" xmlns:xlink="http://www.w3.org/1999/xlink">
    <!-- Generator: Sketch 49.3 (51167) - http://www.bohemiancoding.com/sketch -->
    <title>重要提示</title>
    <desc>Created with Sketch.</desc>
    <defs></defs>
    <g id="Page-1" stroke="none" stroke-width="1" fill="none" fill-rule="evenodd">
        <g id="信息正确2" transform="translate(-20.000000, -204.000000)" fill="#FFC40C">
            <g id="Group-2" transform="translate(0.000000, 185.000000)">
                <path d="M38,28.1111111 C38,32.9706667 33.9706667,37 28.8888889,37 C24.0293333,37 20,32.9706667 20,28.1111111 C20,23.0293333 24.0293333,19 28.8888889,19 C33.9706667,19 38,23.0293333 38,28.1111111 Z M29,23.5 C28.5029437,23.5 28.1187663,23.8940932 28.1429827,24.4026364 L28.4,29.8 L29.6,29.8 L29.8570173,24.4026364 C29.880756,23.9041241 29.5005217,23.5 29,23.5 Z M29,32.5 C29.4970563,32.5 29.9,32.0970563 29.9,31.6 C29.9,31.1029437 29.4970563,30.7 29,30.7 C28.5029437,30.7 28.1,31.1029437 28.1,31.6 C28.1,32.0970563 28.5029437,32.5 29,32.5 Z" id="重要提示"></path>
            </g>
        </g>
    </g>
</svg>