<?xml version="1.0" encoding="UTF-8" standalone="no"?>
<svg width="14px" height="23px" viewBox="0 0 14 23" version="1.1" xmlns="http://www.w3.org/2000/svg" xmlns:xlink="http://www.w3.org/1999/xlink">
    <!-- Generator: Sketch 49.3 (51167) - http://www.bohemiancoding.com/sketch -->
    <title></title>
    <desc>Created with Sketch.</desc>
    <defs></defs>
    <g id="Page-1" stroke="none" stroke-width="1" fill="none" fill-rule="evenodd">
        <g id="4-copy-6" transform="translate(-22.000000, -168.000000)" fill="#FAA403">
            <g id="Group-4" transform="translate(0.000000, 128.000000)">
                <path d="M35.28125,51.1428571 C35.28125,51.3363105 35.206846,51.5074397 35.0580357,51.65625 L24.65625,62.0580357 C24.5074397,62.206846 24.3363105,62.28125 24.1428571,62.28125 C23.9494038,62.28125 23.7782746,62.206846 23.6294643,62.0580357 L22.5133929,60.9419643 C22.3645826,60.793154 22.2901786,60.6220248 22.2901786,60.4285714 C22.2901786,60.2351181 22.3645826,60.0639888 22.5133929,59.9151786 L31.2857143,51.1428571 L22.5133929,42.3705357 C22.3645826,42.2217254 22.2901786,42.0505962 22.2901786,41.8571429 C22.2901786,41.6636895 22.3645826,41.4925603 22.5133929,41.34375 L23.6294643,40.2276786 C23.7782746,40.0788683 23.9494038,40.0044643 24.1428571,40.0044643 C24.3363105,40.0044643 24.5074397,40.0788683 24.65625,40.2276786 L35.0580357,50.6294643 C35.206846,50.7782746 35.28125,50.9494038 35.28125,51.1428571 Z" id="" transform="translate(28.785714, 51.142857) scale(-1, 1) translate(-28.785714, -51.142857) "></path>
            </g>
        </g>
    </g>
</svg>