<?xml version="1.0" encoding="UTF-8" standalone="no"?>
<svg width="14px" height="23px" viewBox="0 0 14 23" version="1.1" xmlns="http://www.w3.org/2000/svg" xmlns:xlink="http://www.w3.org/1999/xlink">
    <!-- Generator: Sketch 49.3 (51167) - http://www.bohemiancoding.com/sketch -->
    <title></title>
    <desc>Created with Sketch.</desc>
    <defs></defs>
    <g id="Page-1" stroke="none" stroke-width="1" fill="none" fill-rule="evenodd">
        <g id="4-copy-6" transform="translate(-722.000000, -168.000000)" fill="#FAA403">
            <g id="Group-4" transform="translate(0.000000, 128.000000)">
                <path d="M735.28125,51.1428571 C735.28125,51.3363105 735.206846,51.5074397 735.058036,51.65625 L724.65625,62.0580357 C724.50744,62.206846 724.33631,62.28125 724.142857,62.28125 C723.949404,62.28125 723.778275,62.206846 723.629464,62.0580357 L722.513393,60.9419643 C722.364583,60.793154 722.290179,60.6220248 722.290179,60.4285714 C722.290179,60.2351181 722.364583,60.0639888 722.513393,59.9151786 L731.285714,51.1428571 L722.513393,42.3705357 C722.364583,42.2217254 722.290179,42.0505962 722.290179,41.8571429 C722.290179,41.6636895 722.364583,41.4925603 722.513393,41.34375 L723.629464,40.2276786 C723.778275,40.0788683 723.949404,40.0044643 724.142857,40.0044643 C724.33631,40.0044643 724.50744,40.0788683 724.65625,40.2276786 L735.058036,50.6294643 C735.206846,50.7782746 735.28125,50.9494038 735.28125,51.1428571 Z" id=""></path>
            </g>
        </g>
    </g>
</svg>