<?xml version="1.0" encoding="UTF-8" standalone="no"?>
<svg width="10px" height="6px" viewBox="0 0 10 6" version="1.1" xmlns="http://www.w3.org/2000/svg" xmlns:xlink="http://www.w3.org/1999/xlink">
    <!-- Generator: Sketch 49.3 (51167) - http://www.bohemiancoding.com/sketch -->
    <title></title>
    <desc>Created with Sketch.</desc>
    <defs></defs>
    <g id="Page-1" stroke="none" stroke-width="1" fill="none" fill-rule="evenodd" opacity="0.5">
        <g id="5" transform="translate(-342.000000, -281.000000)" fill="#999999">
            <path d="M351.598214,281.857143 C351.598214,281.934524 351.568453,282.002976 351.508929,282.0625 L347.348214,286.223214 C347.28869,286.282738 347.220238,286.3125 347.142857,286.3125 C347.065476,286.3125 346.997024,286.282738 346.9375,286.223214 L342.776786,282.0625 C342.717262,282.002976 342.6875,281.934524 342.6875,281.857143 C342.6875,281.779762 342.717262,281.71131 342.776786,281.651786 L343.223214,281.205357 C343.282738,281.145833 343.35119,281.116071 343.428571,281.116071 C343.505953,281.116071 343.574404,281.145833 343.633929,281.205357 L347.142857,284.714286 L350.651786,281.205357 C350.71131,281.145833 350.779762,281.116071 350.857143,281.116071 C350.934524,281.116071 351.002976,281.145833 351.0625,281.205357 L351.508929,281.651786 C351.568453,281.71131 351.598214,281.779762 351.598214,281.857143 Z" id=""></path>
        </g>
    </g>
</svg>