<?xml version="1.0" encoding="UTF-8" standalone="no"?>
<svg width="22px" height="22px" viewBox="0 0 22 22" version="1.1" xmlns="http://www.w3.org/2000/svg" xmlns:xlink="http://www.w3.org/1999/xlink">
    <!-- Generator: Sketch 49.3 (51167) - http://www.bohemiancoding.com/sketch -->
    <title>Group 16</title>
    <desc>Created with Sketch.</desc>
    <defs></defs>
    <g id="Page-1" stroke="none" stroke-width="1" fill="none" fill-rule="evenodd">
        <g id="5" transform="translate(-20.000000, -704.000000)">
            <g id="Group-7" transform="translate(0.000000, 414.000000)">
                <g id="Group-16" transform="translate(20.000000, 290.000000)">
                    <circle id="Oval-5" fill="#76CA37" cx="11" cy="11" r="11"></circle>
                    <path d="M15.0511504,4.74999583 C15.4157327,4.74999583 15.725628,4.87759983 15.9808356,5.13280741 C16.2360432,5.388015 16.3636472,5.69791037 16.3636472,6.0624927 L16.3636472,15.6874698 C16.3636472,16.0520521 16.2360432,16.3619474 15.9808356,16.617155 C15.725628,16.8723626 15.4157327,16.9999666 15.0511504,16.9999666 L7.17616913,16.9999666 C6.8115868,16.9999666 6.50169143,16.8723626 6.24648384,16.617155 C5.99127626,16.3619474 5.86367226,16.0520521 5.86367226,15.6874698 L5.86367226,6.0624927 C5.86367226,5.69791037 5.99127626,5.388015 6.24648384,5.13280741 C6.50169143,4.87759983 6.8115868,4.74999583 7.17616913,4.74999583 L9.36366391,4.74999583 C9.36366391,4.27603876 9.53684044,3.86588349 9.88319392,3.51953001 C10.2295474,3.17317653 10.6397027,3 11.1136597,3 C11.5876168,3 11.9977721,3.17317653 12.3441256,3.51953001 C12.690479,3.86588349 12.8636556,4.27603876 12.8636556,4.74999583 L15.0511504,4.74999583 Z M14.8870882,15.6874698 C14.9235464,15.6874698 14.9600049,15.6692405 14.996463,15.6327824 C15.0329211,15.5963243 15.0511504,15.5598657 15.0511504,15.5234076 L15.0511504,6.22655481 C15.0511504,6.1900967 15.0329211,6.15363818 14.996463,6.11718007 C14.9600049,6.08072196 14.9235464,6.0624927 14.8870882,6.0624927 L13.7386535,6.0624927 L13.7386535,7.04686535 C13.7386535,7.13801083 13.7067524,7.21548488 13.6429506,7.27928667 C13.5791488,7.34308846 13.5016747,7.37498957 13.4105293,7.37498957 L8.81679022,7.37498957 C8.72564474,7.37498957 8.64817069,7.34308846 8.58436889,7.27928667 C8.5205671,7.21548488 8.488666,7.13801083 8.488666,7.04686535 L8.488666,6.0624927 L7.34023124,6.0624927 C7.30377313,6.0624927 7.2673146,6.08072196 7.2308565,6.11718007 C7.19439839,6.15363818 7.17616913,6.1900967 7.17616913,6.22655481 L7.17616913,15.5234076 C7.17616913,15.5598657 7.19439839,15.5963243 7.2308565,15.6327824 C7.2673146,15.6692405 7.30377313,15.6874698 7.34023124,15.6874698 L14.8870882,15.6874698 Z M11.1136597,4.09374739 C10.9313684,4.09374739 10.7764211,4.15754918 10.6488171,4.28515319 C10.5212131,4.41275719 10.4574113,4.56770446 10.4574113,4.74999583 C10.4574113,4.9322872 10.5212131,5.08723447 10.6488171,5.21483847 C10.7764211,5.34244247 10.9313684,5.40624426 11.1136597,5.40624426 C11.2959511,5.40624426 11.4508984,5.34244247 11.5785024,5.21483847 C11.7061064,5.08723447 11.7699082,4.9322872 11.7699082,4.74999583 C11.7699082,4.56770446 11.7061064,4.41275719 11.5785024,4.28515319 C11.4508984,4.15754918 11.2959511,4.09374739 11.1136597,4.09374739 Z" id="" fill="#FFFFFF"></path>
                </g>
            </g>
        </g>
    </g>
</svg>