<?xml version="1.0" encoding="UTF-8" standalone="no"?>
<svg width="20px" height="20px" viewBox="0 0 20 20" version="1.1" xmlns="http://www.w3.org/2000/svg" xmlns:xlink="http://www.w3.org/1999/xlink">
    <!-- Generator: Sketch 49.3 (51167) - http://www.bohemiancoding.com/sketch -->
    <title>Group 16 Copy</title>
    <desc>Created with Sketch.</desc>
    <defs></defs>
    <g id="Page-1" stroke="none" stroke-width="1" fill="none" fill-rule="evenodd">
        <g id="5" transform="translate(-17.000000, -3360.000000)">
            <g id="Group-16-Copy" transform="translate(17.000000, 3360.000000)">
                <circle id="Oval-5" fill="#FEBF31" cx="10" cy="10" r="10"></circle>
                <path d="M8.92655557,9.50779698 C8.94478483,9.47133888 8.97212852,9.38930782 9.00858662,9.26170382 C9.04504473,9.04295434 9.08150326,8.8971215 9.11796136,8.82420486 C9.17264873,8.67837202 9.23189352,8.60545539 9.29569532,8.60545539 C9.35949711,8.60545539 9.40962747,8.64191349 9.44608558,8.71483012 C9.48254369,8.78774676 9.52811664,8.90623592 9.58280401,9.07029803 C9.65572064,9.32550561 9.72863685,9.49868256 9.80155348,9.58982804 C9.83801159,9.44399519 9.87447012,9.13865724 9.91092822,8.6738146 C9.94738633,8.20897196 9.98384486,7.88540516 10.020303,7.70311379 C10.0567611,7.39321883 10.1114484,7.23827115 10.1843651,7.23827115 C10.3301979,7.22004188 10.5216037,7.84894663 10.7585825,9.1249854 L10.7859261,9.34373488 C10.8953009,9.39842224 11.1505085,9.44399519 11.5515493,9.4804533 L12.1257667,9.53514067 C12.143996,9.62628615 12.0255064,9.68097352 11.7702988,9.69920278 C11.6244659,9.71743204 11.3783728,9.73566089 11.0320193,9.75389015 L10.9499882,10.0820144 C10.9135301,10.2278472 10.881629,10.3326649 10.8542853,10.3964667 C10.8269417,10.4602685 10.7859261,10.4967271 10.7312388,10.5058415 C10.6765514,10.5149559 10.6036348,10.3463368 10.5124893,9.99998331 C10.4213438,9.61717172 10.3301979,9.33462045 10.2390524,9.15232908 L9.99295928,10.9296686 C9.93827191,11.0755014 9.86535528,11.0390433 9.7742098,10.8202939 C9.70129317,10.7109191 9.60103327,10.4739404 9.47342927,10.109358 L9.39139821,9.86326489 L9.36405453,9.86326489 C9.03593031,9.86326489 8.75337904,9.84503562 8.5164003,9.80857752 C8.06067208,9.77211941 7.91483923,9.71743204 8.07890134,9.64451541 L8.92655557,9.50779698 Z M11.9343609,15.2499708 L8.21561977,15.2499708 C8.03332839,15.2499708 7.90572481,15.1770542 7.83280818,15.0312213 C7.75989155,14.8853885 7.75989155,14.7395552 7.83280818,14.5937224 C7.90572481,14.4478895 8.03332839,14.3749729 8.21561977,14.3749729 L11.9343609,14.3749729 C12.1166523,14.3749729 12.2442559,14.4478895 12.3171725,14.5937224 C12.3900891,14.7395552 12.3900891,14.8853885 12.3171725,15.0312213 C12.2442559,15.1770542 12.1166523,15.2499708 11.9343609,15.2499708 Z M11.2781125,16.9999666 L8.8718682,16.9999666 C8.68957683,16.9999666 8.56197325,16.92705 8.48905661,16.7812171 C8.41613998,16.6353843 8.41613998,16.489551 8.48905661,16.3437182 C8.56197325,16.1978853 8.68957683,16.1249687 8.8718682,16.1249687 L11.2781125,16.1249687 C11.4604038,16.1249687 11.5880074,16.1978853 11.6609241,16.3437182 C11.7338407,16.489551 11.7338407,16.6353843 11.6609241,16.7812171 C11.5880074,16.92705 11.4604038,16.9999666 11.2781125,16.9999666 Z M12.2077977,13.1171634 C12.1895685,13.3176836 12.098423,13.4407302 11.9343609,13.4863031 C11.7702988,13.5318761 11.6199085,13.5045324 11.4831901,13.4042721 C11.3464717,13.3040118 11.2963417,13.1627363 11.3327998,12.980445 L11.3601435,12.7343518 C11.4148309,12.4244568 11.4604038,12.1965925 11.4968619,12.0507597 C11.5515493,11.7955521 11.6335804,11.5768026 11.7429551,11.3945112 C11.888788,11.1028451 12.1166523,10.7109191 12.4265472,10.2187328 C12.8275881,9.58071362 13.0919101,9.09764171 13.2195141,8.76951749 C13.4382636,8.25910191 13.5476383,7.74868673 13.5476383,7.23827115 C13.5476383,6.63671008 13.3926906,6.07616454 13.0827957,5.55663453 C12.7729007,5.03710452 12.3490736,4.62694925 11.8113143,4.32616871 C11.273555,4.02538818 10.6947807,3.87499791 10.0749903,3.87499791 C9.4552,3.87499791 8.87642562,4.02538818 8.33866635,4.32616871 C7.80090707,4.62694925 7.37707996,5.03710452 7.067185,5.55663453 C6.75729005,6.07616454 6.60234236,6.63671008 6.60234236,7.23827115 C6.60234236,7.74868673 6.7117171,8.25910191 6.93046658,8.76951749 C7.05807058,9.09764171 7.32239259,9.58071362 7.72343344,10.2187328 C8.03332839,10.7109191 8.26119271,11.1028451 8.40702556,11.3945112 C8.5164003,11.5768026 8.59843135,11.7955521 8.65311872,12.0507597 C8.68957683,12.1965925 8.73514978,12.4335713 8.78983715,12.7616955 L8.81718083,12.980445 C8.85363894,13.1627363 8.80350899,13.3040118 8.66679056,13.4042721 C8.53007214,13.5045324 8.37968187,13.5318761 8.21561977,13.4863031 C8.05155766,13.4407302 7.96041218,13.3267984 7.94218292,13.1445071 L7.88749555,12.9257576 C7.81457892,12.3606546 7.72343344,11.9869579 7.6140587,11.8046665 C7.44999659,11.4947716 7.23124711,11.1210744 6.95781026,10.6835754 C6.52031131,9.97263963 6.2286452,9.43488035 6.08281235,9.07029803 C5.82760476,8.46873696 5.70000076,7.85806147 5.70000076,7.23827115 C5.70000076,6.47264797 5.89596398,5.76626959 6.28788999,5.11913557 C6.679816,4.47200156 7.21301785,3.95702897 7.88749555,3.57421738 C8.56197325,3.19140579 9.2911379,3 10.0749903,3 C10.8588428,3 11.5880074,3.19140579 12.2624851,3.57421738 C12.9369628,3.95702897 13.4701647,4.47200156 13.8620907,5.11913557 C14.2540167,5.76626959 14.4499799,6.47264797 14.4499799,7.23827115 C14.4499799,7.85806147 14.3223759,8.45962254 14.0671683,9.04295434 C13.9213355,9.40753667 13.6296694,9.94529594 13.1921704,10.6562317 L13.1921704,10.6835754 C12.9005043,11.1575325 12.6817548,11.5312297 12.535922,11.8046665 C12.4265472,11.9869579 12.3354017,12.3515402 12.2624851,12.8984139 C12.2442559,13.0077886 12.226027,13.0807053 12.2077977,13.1171634 Z" id="ï†" fill="#FFFFFF"></path>
            </g>
        </g>
    </g>
</svg>