<?xml version="1.0" encoding="UTF-8" standalone="no"?>
<svg width="20px" height="20px" viewBox="0 0 20 20" version="1.1" xmlns="http://www.w3.org/2000/svg" xmlns:xlink="http://www.w3.org/1999/xlink">
    <!-- Generator: Sketch 49.3 (51167) - http://www.bohemiancoding.com/sketch -->
    <title>Group 16 Copy</title>
    <desc>Created with Sketch.</desc>
    <defs></defs>
    <g id="Page-1" stroke="none" stroke-width="1" fill="none" fill-rule="evenodd">
        <g id="5" transform="translate(-17.000000, -1110.000000)">
            <g id="Group-7-Copy" transform="translate(0.000000, 796.000000)">
                <g id="Group-8-Copy">
                    <g id="Group-8" transform="translate(16.000000, 314.000000)">
                        <g id="Group-16-Copy" transform="translate(1.000000, 0.000000)">
                            <circle id="Oval-5" fill="#FECC31" cx="10" cy="10" r="10"></circle>
                            <path d="M11.5,12.8125 L11.5,14.6875 C11.5,14.7708337 11.4687503,14.8437497 11.40625,14.90625 C11.3437497,14.9687503 11.2708337,15 11.1875,15 L9.3125,15 C9.22916625,15 9.15625031,14.9687503 9.09375,14.90625 C9.03124969,14.8437497 9,14.7708337 9,14.6875 L9,12.8125 C9,12.7291662 9.03124969,12.6562503 9.09375,12.59375 C9.15625031,12.5312497 9.22916625,12.5 9.3125,12.5 L11.1875,12.5 C11.2708337,12.5 11.3437497,12.5312497 11.40625,12.59375 C11.4687503,12.6562503 11.5,12.7291662 11.5,12.8125 Z M13.96875,8.125 C13.96875,8.40625141 13.9283858,8.66926961 13.8476562,8.9140625 C13.7669267,9.15885539 13.6757818,9.35807215 13.5742188,9.51171875 C13.4726557,9.66536535 13.329428,9.82031172 13.1445312,9.9765625 C12.9596345,10.1328133 12.8098964,10.2460934 12.6953125,10.3164062 C12.5807286,10.3867191 12.421876,10.4791661 12.21875,10.59375 C12.0052073,10.7135423 11.8268236,10.8828114 11.6835938,11.1015625 C11.5403639,11.3203136 11.46875,11.494791 11.46875,11.625 C11.46875,11.7135421 11.4375003,11.7981767 11.375,11.8789062 C11.3124997,11.9596358 11.2395838,12 11.15625,12 L9.28125,12 C9.20312461,12 9.13671902,11.9518234 9.08203125,11.8554688 C9.02734348,11.7591141 9,11.6614588 9,11.5625 L9,11.2109375 C9,10.7786437 9.16926914,10.3710957 9.5078125,9.98828125 C9.84635586,9.60546684 10.218748,9.32291758 10.625,9.140625 C10.9322932,8.9999993 11.151041,8.85416742 11.28125,8.703125 C11.411459,8.55208258 11.4765625,8.35416789 11.4765625,8.109375 C11.4765625,7.89062391 11.35547,7.6979175 11.1132812,7.53125 C10.8710925,7.3645825 10.5911474,7.28125 10.2734375,7.28125 C9.93489414,7.28125 9.65364695,7.35677008 9.4296875,7.5078125 C9.24739492,7.63802148 8.96875187,7.93749766 8.59375,8.40625 C8.52604133,8.48958375 8.44531297,8.53125 8.3515625,8.53125 C8.28906219,8.53125 8.22395867,8.51041688 8.15625,8.46875 L6.875,7.4921875 C6.80729133,7.44010391 6.76692715,7.37500039 6.75390625,7.296875 C6.74088535,7.21874961 6.75520813,7.14583367 6.796875,7.078125 C7.6302125,5.69270141 8.83853375,5 10.421875,5 C10.8385437,5 11.2578104,5.08072836 11.6796875,5.2421875 C12.1015646,5.40364664 12.4817691,5.61979031 12.8203125,5.890625 C13.1588559,6.16145969 13.4348948,6.49348762 13.6484375,6.88671875 C13.8619802,7.27994988 13.96875,7.69270617 13.96875,8.125 Z" id="" fill="#FFFFFF"></path>
                        </g>
                    </g>
                </g>
            </g>
        </g>
    </g>
</svg>