<?xml version="1.0" encoding="UTF-8" standalone="no"?>
<svg width="17px" height="18px" viewBox="0 0 17 18" version="1.1" xmlns="http://www.w3.org/2000/svg" xmlns:xlink="http://www.w3.org/1999/xlink">
    <!-- Generator: Sketch 49.3 (51167) - http://www.bohemiancoding.com/sketch -->
    <title></title>
    <desc>Created with Sketch.</desc>
    <defs></defs>
    <g id="Page-1" stroke="none" stroke-width="1" fill="none" fill-rule="evenodd">
        <g id="10" transform="translate(-71.000000, -121.000000)" fill="#58B957">
            <path d="M79.4999797,121.125035 C80.4518006,121.125035 81.3372148,121.362991 82.1562234,121.838901 C82.975232,122.314811 83.6226914,122.96227 84.0986016,123.781279 C84.5745117,124.600288 84.8124671,125.485702 84.8124671,126.437523 C84.8124671,127.389344 84.5745117,128.274758 84.0986016,129.093766 C83.6226914,129.912775 82.975232,130.560234 82.1562234,131.036145 C81.3372148,131.512055 80.4518006,131.75001 79.4999797,131.75001 C78.5481589,131.75001 77.6627447,131.512055 76.8437361,131.036145 C76.0247274,130.560234 75.377268,129.912775 74.9013579,129.093766 C74.4254477,128.274758 74.1874924,127.389344 74.1874924,126.437523 C74.1874924,125.485702 74.4254477,124.600288 74.9013579,123.781279 C75.377268,122.96227 76.0247274,122.314811 76.8437361,121.838901 C77.6627447,121.362991 78.5481589,121.125035 79.4999797,121.125035 Z M85.5761371,132.214853 C86.2844686,132.391936 86.8655219,132.768237 87.319297,133.343756 C87.7730722,133.919276 87.9999595,134.572269 87.9999595,135.302736 L87.9999595,136.531249 C87.9999595,136.973956 87.8450118,137.350257 87.5351168,137.660152 C87.2252219,137.970047 86.8489204,138.124995 86.4062133,138.124995 L72.5937462,138.124995 C72.1510391,138.124995 71.7747376,137.970047 71.4648426,137.660152 C71.1549477,137.350257 71,136.973956 71,136.531249 L71,135.302736 C71,134.572269 71.2268873,133.919276 71.6806624,133.343756 C72.1344376,132.768237 72.7154909,132.391936 73.4238223,132.214853 L75.7812386,131.617198 C76.8216005,132.3698 77.9947752,132.768237 79.3007615,132.812508 C80.7395599,132.856778 82.0455468,132.458342 83.2187209,131.617198 L85.5761371,132.214853 Z" id=""></path>
        </g>
    </g>
</svg>