<?xml version="1.0" encoding="UTF-8" standalone="no"?>
<svg width="12px" height="7px" viewBox="0 0 12 7" version="1.1" xmlns="http://www.w3.org/2000/svg" xmlns:xlink="http://www.w3.org/1999/xlink">
    <!-- Generator: Sketch 49.3 (51167) - http://www.bohemiancoding.com/sketch -->
    <title></title>
    <desc>Created with Sketch.</desc>
    <defs></defs>
    <g id="Page-1" stroke="none" stroke-width="1" fill="none" fill-rule="evenodd">
        <g id="3" transform="translate(-49.000000, -278.000000)" fill="#FA9003">
            <path d="M60.4285714,279 C60.4285714,279.193453 60.3578876,279.360862 60.2165179,279.502232 L55.2165179,284.502232 C55.0751481,284.643602 54.9077391,284.714286 54.7142857,284.714286 C54.5208324,284.714286 54.3534233,284.643602 54.2120536,284.502232 L49.2120536,279.502232 C49.0706838,279.360862 49,279.193453 49,279 C49,278.806547 49.0706838,278.639138 49.2120536,278.497768 C49.3534233,278.356398 49.5208324,278.285714 49.7142857,278.285714 L59.7142857,278.285714 C59.9077391,278.285714 60.0751481,278.356398 60.2165179,278.497768 C60.3578876,278.639138 60.4285714,278.806547 60.4285714,279 Z" id=""></path>
        </g>
    </g>
</svg>