<?xml version="1.0" encoding="UTF-8" standalone="no"?>
<svg width="10px" height="6px" viewBox="0 0 10 6" version="1.1" xmlns="http://www.w3.org/2000/svg" xmlns:xlink="http://www.w3.org/1999/xlink">
    <!-- Generator: Sketch 49.3 (51167) - http://www.bohemiancoding.com/sketch -->
    <title></title>
    <desc>Created with Sketch.</desc>
    <defs></defs>
    <g id="Page-1" stroke="none" stroke-width="1" fill="none" fill-rule="evenodd" opacity="0.5">
        <g id="5" transform="translate(-342.000000, -571.000000)" fill="#999999">
            <path d="M351.598214,575.857143 C351.598214,575.934524 351.568453,576.002976 351.508929,576.0625 L351.0625,576.508929 C351.002976,576.568453 350.934524,576.598214 350.857143,576.598214 C350.779762,576.598214 350.71131,576.568453 350.651786,576.508929 L347.142857,573 L343.633929,576.508929 C343.574404,576.568453 343.505953,576.598214 343.428571,576.598214 C343.35119,576.598214 343.282738,576.568453 343.223214,576.508929 L342.776786,576.0625 C342.717262,576.002976 342.6875,575.934524 342.6875,575.857143 C342.6875,575.779762 342.717262,575.71131 342.776786,575.651786 L346.9375,571.491071 C346.997024,571.431547 347.065476,571.401786 347.142857,571.401786 C347.220238,571.401786 347.28869,571.431547 347.348214,571.491071 L351.508929,575.651786 C351.568453,575.71131 351.598214,575.779762 351.598214,575.857143 Z" id=""></path>
        </g>
    </g>
</svg>