<?xml version="1.0" encoding="UTF-8" standalone="no"?>
<svg width="11px" height="11px" viewBox="0 0 11 11" version="1.1" xmlns="http://www.w3.org/2000/svg" xmlns:xlink="http://www.w3.org/1999/xlink">
    <!-- Generator: Sketch 49.3 (51167) - http://www.bohemiancoding.com/sketch -->
    <title></title>
    <desc>Created with Sketch.</desc>
    <defs></defs>
    <g id="Page-1" stroke="none" stroke-width="1" fill="none" fill-rule="evenodd">
        <g id="5" transform="translate(-18.000000, -3027.000000)" fill="#DB524B">
            <g id="Group-22" transform="translate(0.000000, 2691.000000)">
                <g id="Group-Copy-4" transform="translate(0.000000, 282.000000)">
                    <g id="Group-4">
                        <path d="M28.140625,62.328125 C28.140625,62.5364594 28.0677091,62.7135409 27.921875,62.859375 L26.859375,63.921875 C26.7135409,64.0677091 26.5364594,64.140625 26.328125,64.140625 C26.1197906,64.140625 25.9427091,64.0677091 25.796875,63.921875 L23.5,61.625 L21.203125,63.921875 C21.0572909,64.0677091 20.8802094,64.140625 20.671875,64.140625 C20.4635406,64.140625 20.2864591,64.0677091 20.140625,63.921875 L19.078125,62.859375 C18.9322909,62.7135409 18.859375,62.5364594 18.859375,62.328125 C18.859375,62.1197906 18.9322909,61.9427091 19.078125,61.796875 L21.375,59.5 L19.078125,57.203125 C18.9322909,57.0572909 18.859375,56.8802094 18.859375,56.671875 C18.859375,56.4635406 18.9322909,56.2864591 19.078125,56.140625 L20.140625,55.078125 C20.2864591,54.9322909 20.4635406,54.859375 20.671875,54.859375 C20.8802094,54.859375 21.0572909,54.9322909 21.203125,55.078125 L23.5,57.375 L25.796875,55.078125 C25.9427091,54.9322909 26.1197906,54.859375 26.328125,54.859375 C26.5364594,54.859375 26.7135409,54.9322909 26.859375,55.078125 L27.921875,56.140625 C28.0677091,56.2864591 28.140625,56.4635406 28.140625,56.671875 C28.140625,56.8802094 28.0677091,57.0572909 27.921875,57.203125 L25.625,59.5 L27.921875,61.796875 C28.0677091,61.9427091 28.140625,62.1197906 28.140625,62.328125 Z" id=""></path>
                    </g>
                </g>
            </g>
        </g>
    </g>
</svg>