<?xml version="1.0" encoding="UTF-8" standalone="no"?>
<svg width="60px" height="60px" viewBox="0 0 60 60" version="1.1" xmlns="http://www.w3.org/2000/svg" xmlns:xlink="http://www.w3.org/1999/xlink">
    <!-- Generator: Sketch 49.3 (51167) - http://www.bohemiancoding.com/sketch -->
    <title>默认头像</title>
    <desc>Created with Sketch.</desc>
    <defs>
        <circle id="path-1" cx="30" cy="30" r="30"></circle>
    </defs>
    <g id="Page-1" stroke="none" stroke-width="1" fill="none" fill-rule="evenodd">
        <g id="13-copy" transform="translate(-17.000000, -79.000000)">
            <g id="默认头像" transform="translate(17.000000, 79.000000)">
                <g id="Group-8">
                    <mask id="mask-2" fill="white">
                        <use xlink:href="#path-1"></use>
                    </mask>
                    <use id="Oval-3" fill="#E4E4E4" xlink:href="#path-1"></use>
                    <path d="M29.9999595,13.2500709 C31.9036011,13.2500709 33.6744295,13.7259816 35.3124468,14.6778019 C36.9504641,15.6296222 38.2453829,16.924541 39.1972032,18.5625583 C40.1490235,20.2005755 40.6249341,21.971404 40.6249341,23.8750456 C40.6249341,25.7786872 40.1490235,27.5495157 39.1972032,29.1875329 C38.2453829,30.8255502 36.9504641,32.120469 35.3124468,33.0722893 C33.6744295,34.0241096 31.9036011,34.5000203 29.9999595,34.5000203 C28.0963178,34.5000203 26.3254894,34.0241096 24.6874721,33.0722893 C23.0494549,32.120469 21.7545361,30.8255502 20.8027158,29.1875329 C19.8508955,27.5495157 19.3749848,25.7786872 19.3749848,23.8750456 C19.3749848,21.971404 19.8508955,20.2005755 20.8027158,18.5625583 C21.7545361,16.924541 23.0494549,15.6296222 24.6874721,14.6778019 C26.3254894,13.7259816 28.0963178,13.2500709 29.9999595,13.2500709 Z M42.1522742,35.4297055 C43.5689372,35.783871 44.7310438,36.5364741 45.6385941,37.6875127 C46.5461443,38.8385513 46.9999189,40.1445381 46.9999189,41.6054721 L46.9999189,44.0624975 C46.9999189,44.9479117 46.6900235,45.7005147 46.0702337,46.3203046 C45.4504438,46.9400944 44.6978408,47.2499899 43.8124265,47.2499899 L16.1874924,47.2499899 C15.3020782,47.2499899 14.5494751,46.9400944 13.9296853,46.3203046 C13.3098954,45.7005147 13,44.9479117 13,44.0624975 L13,41.6054721 C13,40.1445381 13.4537746,38.8385513 14.3613249,37.6875127 C15.2688751,36.5364741 16.4309817,35.783871 17.8476447,35.4297055 L22.5624772,34.2343959 C24.6432011,35.739601 26.9895503,36.5364741 29.6015229,36.6250152 C32.4791199,36.7135563 35.0910935,35.9166832 37.4374417,34.2343959 L42.1522742,35.4297055 Z" id="" fill="#FFFFFF" mask="url(#mask-2)"></path>
                </g>
            </g>
        </g>
    </g>
</svg>