<?xml version="1.0" encoding="UTF-8" standalone="no"?>
<svg width="272px" height="221px" viewBox="0 0 272 221" version="1.1" xmlns="http://www.w3.org/2000/svg" xmlns:xlink="http://www.w3.org/1999/xlink">
    <!-- Generator: Sketch 49.3 (51167) - http://www.bohemiancoding.com/sketch -->
    <title>1</title>
    <desc>Created with Sketch.</desc>
    <defs>
        <linearGradient x1="50%" y1="67.7903721%" x2="50%" y2="0%" id="linearGradient-1">
            <stop stop-color="#FFFFFF" offset="0%"></stop>
            <stop stop-color="#EEF4FF" offset="100%"></stop>
        </linearGradient>
        <polygon id="path-2" points="27.1030232 138.731746 244.97841 138.731746 271.383517 185.209634 0.375724765 185.209634"></polygon>
        <filter x="-3.5%" y="-20.4%" width="107.0%" height="140.9%" filterUnits="objectBoundingBox" id="filter-3">
            <feGaussianBlur stdDeviation="9.5" in="SourceAlpha" result="shadowBlurInner1"></feGaussianBlur>
            <feOffset dx="0" dy="0" in="shadowBlurInner1" result="shadowOffsetInner1"></feOffset>
            <feComposite in="shadowOffsetInner1" in2="SourceAlpha" operator="arithmetic" k2="-1" k3="1" result="shadowInnerInner1"></feComposite>
            <feColorMatrix values="0 0 0 0 1   0 0 0 0 0.771140278   0 0 0 0 0.532433712  0 0 0 0.692312047 0" type="matrix" in="shadowInnerInner1"></feColorMatrix>
        </filter>
        <path d="M18.4434992,2.78672034 C32.2593072,4.94610931 40.8206197,5.06807604 44.1274366,3.15262053 C45.6655172,3.36810218 46.4345576,3.475843 46.4345576,3.475843 L46.1940212,4.72578501 C52.4994291,7.97684036 56.631912,13.0978248 67.4575635,12.4589462 C64.5471113,28.093304 63.0918851,35.9104829 63.0918851,35.9104829 C45.1448843,35.9717872 34.7312085,33.8715264 31.8508578,29.6097005 C31.6721956,29.3453482 29.5522113,28.3556146 29.5463431,28.3348603 C22.1055567,29.6472102 13.0281217,27.718322 2.31403818,22.5481956 L18.4434992,2.78672034 Z" id="path-4"></path>
        <filter x="-3.1%" y="-6.0%" width="106.1%" height="112.1%" filterUnits="objectBoundingBox" id="filter-6">
            <feGaussianBlur stdDeviation="1.5" in="SourceAlpha" result="shadowBlurInner1"></feGaussianBlur>
            <feOffset dx="0" dy="1" in="shadowBlurInner1" result="shadowOffsetInner1"></feOffset>
            <feComposite in="shadowOffsetInner1" in2="SourceAlpha" operator="arithmetic" k2="-1" k3="1" result="shadowInnerInner1"></feComposite>
            <feColorMatrix values="0 0 0 0 0.63453335   0 0 0 0 0.834449405   0 0 0 0 0.586277751  0 0 0 1 0" type="matrix" in="shadowInnerInner1"></feColorMatrix>
        </filter>
        <linearGradient x1="50%" y1="-2.48949813e-15%" x2="50%" y2="100%" id="linearGradient-7">
            <stop stop-color="#67D7FB" offset="0%"></stop>
            <stop stop-color="#7CEBBD" offset="100%"></stop>
        </linearGradient>
        <path d="M76.5080903,50.6026781 C66.1744715,48.0100614 53.8797262,49.0684809 50.2206756,50.6026781 C46.561625,52.1368752 22.1831975,81.6121859 20.4576677,83.6649192 C18.7321379,85.7176525 32.069948,108.732786 43.7459481,110.510516 C40.5703475,119.771248 38.4682751,125.901341 37.439731,128.900796 C35.3116525,135.106729 113.971977,144.699127 118.094487,143.962575 L119.472909,135.226052 C121.353413,123.999785 123.817552,117.440116 126.865325,115.547047 C128.349786,114.624999 127.366697,116.663858 130.047965,115.980859 C133.973267,113.260548 137.191515,110.500558 145.571863,110.872622 C148.41997,111.325455 151.256947,111.776518 154.082794,112.225811 C154.490561,94.4378663 152.580383,82.8496989 148.35226,77.4613088 C142.010075,69.3787237 133.626166,63.3832576 123.023868,59.9343916 C112.421571,56.4855256 86.841709,53.1952947 76.5080903,50.6026781 Z" id="path-8"></path>
        <filter x="-2.2%" y="-3.2%" width="104.5%" height="106.3%" filterUnits="objectBoundingBox" id="filter-9">
            <feGaussianBlur stdDeviation="3" in="SourceAlpha" result="shadowBlurInner1"></feGaussianBlur>
            <feOffset dx="0" dy="0" in="shadowBlurInner1" result="shadowOffsetInner1"></feOffset>
            <feComposite in="shadowOffsetInner1" in2="SourceAlpha" operator="arithmetic" k2="-1" k3="1" result="shadowInnerInner1"></feComposite>
            <feColorMatrix values="0 0 0 0 0.694004663   0 0 0 0 0.804854461   0 0 0 0 0.944621599  0 0 0 0.553894928 0" type="matrix" in="shadowInnerInner1"></feColorMatrix>
        </filter>
        <filter x="-1.3%" y="-1.4%" width="102.6%" height="105.5%" filterUnits="objectBoundingBox" id="filter-10">
            <feOffset dx="0" dy="1" in="SourceAlpha" result="shadowOffsetOuter1"></feOffset>
            <feGaussianBlur stdDeviation="0.5" in="shadowOffsetOuter1" result="shadowBlurOuter1"></feGaussianBlur>
            <feColorMatrix values="0 0 0 0 0.793021896   0 0 0 0 0.79094109   0 0 0 0 0.79094109  0 0 0 0.138983243 0" type="matrix" in="shadowBlurOuter1" result="shadowMatrixOuter1"></feColorMatrix>
            <feMerge>
                <feMergeNode in="shadowMatrixOuter1"></feMergeNode>
                <feMergeNode in="SourceGraphic"></feMergeNode>
            </feMerge>
        </filter>
        <path d="M8.34358917,11.8151997 C4.85311199,29.946797 4.9322854,41.9105043 8.5811094,47.7063216 C14.0543454,56.4000477 31.3266698,55.2853061 41.9748794,55.2563365 C52.623089,55.2273669 57.7000931,56.0423143 62.3384144,59.2145494 C66.5069343,62.8680783 65.8901233,58.4009936 68.2752841,58.4009936 C69.8653913,58.4009936 71.5475,58.2672249 73.3216102,57.9996877 C76.845278,58.8529219 79.0421625,58.9866905 79.9122636,58.4009936 C80.7823647,57.8152966 81.0673359,57.2866142 80.767177,56.8149464 C82.8571967,57.4073834 84.2482573,57.4073834 84.940359,56.8149464 C85.6324606,56.2225094 85.91835,55.5910194 85.7980271,54.9204763 C87.0501031,54.9346398 87.9446733,54.7875202 88.4817376,54.4791175 C88.7166286,54.3442342 88.9439554,54.1825299 89.1637181,53.9940046 C90.6239297,52.7413494 88.395391,49.4881356 86.2828133,47.5586911 C84.1702357,45.6292466 83.0297307,42.5093833 79.8573038,40.9765885 C76.6848769,39.4437938 57.4265039,42.1131894 49.5699985,42.1131894 C41.7134932,42.1131894 30.0604488,37.9976539 23.6741669,38.921647 C24.8363634,27.9133889 25.800397,21.8032862 26.5662678,20.5913388 C22.5139244,14.8442442 16.4396982,11.9188646 8.34358917,11.8151997 Z" id="path-11"></path>
        <filter x="-1.8%" y="-3.1%" width="103.6%" height="106.1%" filterUnits="objectBoundingBox" id="filter-13">
            <feGaussianBlur stdDeviation="1.5" in="SourceAlpha" result="shadowBlurInner1"></feGaussianBlur>
            <feOffset dx="0" dy="0" in="shadowBlurInner1" result="shadowOffsetInner1"></feOffset>
            <feComposite in="shadowOffsetInner1" in2="SourceAlpha" operator="arithmetic" k2="-1" k3="1" result="shadowInnerInner1"></feComposite>
            <feColorMatrix values="0 0 0 0 0.946614583   0 0 0 0 0.852943039   0 0 0 0 0.751793653  0 0 0 0.5 0" type="matrix" in="shadowInnerInner1"></feColorMatrix>
        </filter>
        <filter x="-16.1%" y="-21.7%" width="132.3%" height="143.4%" filterUnits="objectBoundingBox" id="filter-14">
            <feGaussianBlur stdDeviation="4.21988051" in="SourceGraphic"></feGaussianBlur>
        </filter>
        <path d="M21.8527735,2.04705411 C4.29241055,20.9235275 -2.61542555,33.7679261 1.12926518,40.58025 C6.74630127,50.7987359 35.1510197,49.0903238 42.0058955,49.0903238 C48.8607713,49.0903238 59.5075142,46.7602509 64.1458354,49.9324859 C68.3143554,53.5860148 76.5736961,56.7967193 78.9588568,56.7967193 C80.548964,56.7967193 82.2310727,56.6629507 84.0051829,56.3954134 C87.5288507,57.2486476 89.7257352,57.3824162 90.5958363,56.7967193 C91.4659375,56.2110223 91.7509086,55.68234 91.4507498,55.2106721 C93.5407694,55.8031091 94.93183,55.8031091 95.6239317,55.2106721 C96.3160334,54.6182352 96.6019227,53.9867451 96.4815998,53.316202 C97.7336758,53.3303655 98.628246,53.1832459 99.1653104,52.8748432 C99.4002013,52.7399599 99.6275281,52.5782556 99.8472908,52.3897303 C101.307502,51.1370752 99.0789637,47.8838613 96.9663861,45.9544168 C94.8538084,44.0249724 84.8371518,33.2273198 81.6647249,31.6945251 C78.492298,30.1617303 59.233925,32.8311259 51.3774196,32.8311259 C43.5209142,32.8311259 35.7823533,26.9039102 30.0473327,26.3325493 C34.2698002,24.005637 36.7639693,22.2362072 37.5298401,21.0242598 C31.1733789,16.2165762 25.9476901,9.89084094 21.8527735,2.04705411 Z" id="path-15"></path>
        <filter x="-1.5%" y="-2.7%" width="103.0%" height="105.4%" filterUnits="objectBoundingBox" id="filter-17">
            <feGaussianBlur stdDeviation="1.5" in="SourceAlpha" result="shadowBlurInner1"></feGaussianBlur>
            <feOffset dx="0" dy="0" in="shadowBlurInner1" result="shadowOffsetInner1"></feOffset>
            <feComposite in="shadowOffsetInner1" in2="SourceAlpha" operator="arithmetic" k2="-1" k3="1" result="shadowInnerInner1"></feComposite>
            <feColorMatrix values="0 0 0 0 0.946614583   0 0 0 0 0.852943039   0 0 0 0 0.751793653  0 0 0 0.5 0" type="matrix" in="shadowInnerInner1"></feColorMatrix>
        </filter>
        <path d="M2.99447384,1.89956664 C1.27578514,6.56038387 0.416440792,29.8483356 1.27578514,33.8859627 C8.36171737,30.9175875 13.1862387,30.0565465 15.749349,31.3028397 C18.3124594,32.549133 19.6396491,35.8375647 19.7309179,41.1681348 C21.703244,38.0399192 23.9689269,36.2884589 26.5279669,35.9137539 C30.3665268,35.3516963 34.553598,41.1681348 37.0268016,41.1681348 C39.5000052,41.1681348 48.6614025,29.8008713 50.0532051,23.3875743 C50.9810735,19.1120429 50.9810735,16.5150214 50.0532051,15.5965097 C19.8265101,3.35800284 4.1402663,-1.20764485 2.99447384,1.89956664 Z" id="path-18"></path>
        <filter x="-15.1%" y="-18.7%" width="130.1%" height="137.3%" filterUnits="objectBoundingBox" id="filter-20">
            <feOffset dx="0" dy="0" in="SourceAlpha" result="shadowOffsetOuter1"></feOffset>
            <feGaussianBlur stdDeviation="2.5" in="shadowOffsetOuter1" result="shadowBlurOuter1"></feGaussianBlur>
            <feColorMatrix values="0 0 0 0 0.710592049   0 0 0 0 0.710592049   0 0 0 0 0.710592049  0 0 0 0.342872509 0" type="matrix" in="shadowBlurOuter1"></feColorMatrix>
        </filter>
        <filter x="0.0%" y="0.0%" width="100.0%" height="100.0%" filterUnits="objectBoundingBox" id="filter-21">
            <feOffset dx="0" dy="0" in="SourceAlpha" result="shadowOffsetOuter1"></feOffset>
            <feColorMatrix values="0 0 0 0 0   0 0 0 0 0   0 0 0 0 0  0 0 0 0.5 0" type="matrix" in="shadowOffsetOuter1" result="shadowMatrixOuter1"></feColorMatrix>
            <feMerge>
                <feMergeNode in="shadowMatrixOuter1"></feMergeNode>
                <feMergeNode in="SourceGraphic"></feMergeNode>
            </feMerge>
        </filter>
        <path d="M3.1173605,56.7393616 C3.1173605,65.0409871 10.5947901,102.517168 42.1603608,83.2489338 C50.2479239,76.7688154 49.0299332,73.8299776 52.4089497,71.1341725 C55.7879661,68.4383673 57.9744794,62.0831402 64.6877162,58.2046792 C71.400953,54.3262182 74.0613595,29.841194 69.222608,19.3575073 C64.3838565,8.87382055 53.7349405,-2.07719418 29.8363475,0.453458495 C5.9377545,2.98411117 -0.437098053,36.8483337 0.382145334,44.4975452 C1.20138872,52.1467566 1.51523788,51.3169662 2.31629919,52.5350014 C3.1173605,53.7530366 3.15126377,53.3705923 3.1173605,56.7393616 Z" id="path-22"></path>
        <path d="M7.91585714,50.1377012 C7.91585714,44.3331478 11.8055761,30.6681985 1.83703701,33.9326914 C-4.80865573,36.1090201 -3.3608495,55.8402076 6.18045569,93.126254 L44.0840429,95.9095601 L57.6776428,77.1084146 L57.6776428,64.6725822 L60.5548553,58.2367961 L54.5191366,64.6725822 L51.1696951,62.7809167 C48.5821985,61.3779307 46.7543823,60.6764377 45.6862465,60.6764377 C44.0840429,60.6764377 41.5980527,58.2367961 41.5980527,58.2367961 C41.5980527,58.2367961 38.6987149,56.7645738 38.6987149,56.7645738 C38.6987149,56.7645738 34.621142,56.0192873 33.8907527,55.6657018 C33.1603633,55.3121163 30.455426,54.4382783 30.455426,54.4382783 C30.455426,54.4382783 30.0201564,53.7959321 29.1496171,52.5112397 L29.1496171,42.4972892 C26.6888261,47.5908972 25.1094293,50.1377012 24.4114266,50.1377012 C23.713424,50.1377012 24.3573877,47.5908972 26.3433178,42.4972892 L24.4114266,42.4972892 C21.154593,45.6547532 19.0190967,47.6070564 18.0049378,48.354199 C16.990779,49.1013415 15.6692859,49.6958422 14.0404586,50.1377012 C11.8098523,50.5517409 9.76831851,50.5517409 7.91585714,50.1377012 Z" id="path-24"></path>
        <filter x="-2.4%" y="-2.4%" width="104.8%" height="104.8%" filterUnits="objectBoundingBox" id="filter-25">
            <feGaussianBlur stdDeviation="1.5" in="SourceAlpha" result="shadowBlurInner1"></feGaussianBlur>
            <feOffset dx="0" dy="0" in="shadowBlurInner1" result="shadowOffsetInner1"></feOffset>
            <feComposite in="shadowOffsetInner1" in2="SourceAlpha" operator="arithmetic" k2="-1" k3="1" result="shadowInnerInner1"></feComposite>
            <feColorMatrix values="0 0 0 0 0.929474915   0 0 0 0 0.842948246   0 0 0 0 0.750210656  0 0 0 0.661090353 0" type="matrix" in="shadowInnerInner1"></feColorMatrix>
        </filter>
    </defs>
    <g id="Page-1" stroke="none" stroke-width="1" fill="none" fill-rule="evenodd">
        <g id="5" transform="translate(-52.000000, -114.000000)">
            <g id="Group-21" transform="translate(46.000000, 132.000000)">
                <path d="M11.7087036,73.179868 C33.3652609,8.22020188 45.0523172,30.3891956 54.2655093,36.4183362 C63.4787015,42.4474769 69.1690925,11.6223159 81.3518901,19.7889719 C93.5346876,27.9556279 97.6837932,2.5405827 113.520396,2.5405827 C129.356998,2.5405827 130.498331,39.4456501 197.920688,7.23340697 C260.10606,-22.4767723 225.248963,62.4631511 256.932858,83.0357422 C256.934805,83.037006 256.93676,83.0382686 256.938724,83.0395297 L256.938723,83.0395307 C261.585945,86.0236823 262.934131,92.2101333 259.949979,96.8573557 C258.999406,98.3376848 257.675128,99.5410455 256.11082,100.34597 C253.141303,101.873953 251.087257,102.678475 249.948685,102.759534 C181.037481,107.665581 185.687636,72.7253808 158.217153,71.5731241 C113.989555,69.7179858 5.70294726,89.9710185 11.7087036,73.179868 Z" id="Path-16" fill="#C4DEFF" opacity="0.117257464"></path>
                <path d="M19.9198888,71.83098 C38.7940988,58.4400477 36.2151471,46.2863518 51.6861864,46.2863518 C67.1572256,46.2863518 71.9503235,69.726768 104.29596,69.726768 C136.641597,69.726768 164.165247,42 185.311864,42 C205.332601,42 238.591639,61.4611101 253.149709,75.372113 C258.825509,80.7956385 264.571063,94.0503074 270.386373,115.13612 L270.386372,115.13612 C274.204059,128.978725 266.077258,143.295221 252.234652,147.112908 C250.00346,147.728254 247.700093,148.042924 245.385608,148.048576 C111.683026,148.375069 31.7991593,146.385777 5.73400827,142.080699 C-2.51890354,140.717599 1.81052904,108.669847 5.06992428,95.9472622 C8.32931951,83.224677 15.1472255,75.5336046 19.9198888,71.83098 Z" id="Path-17" fill="url(#linearGradient-1)"></path>
            </g>
            <g id="Group-5-Copy" transform="translate(52.000000, 107.000000)">
                <g id="Path-3">
                    <use fill="#FFEED3" fill-rule="evenodd" xlink:href="#path-2"></use>
                    <use fill="black" fill-opacity="1" filter="url(#filter-3)" xlink:href="#path-2"></use>
                </g>
                <g id="Group-5" transform="translate(29.222222, 138.394636)">
                    <path d="M31.817139,31.2313435 C27.4670306,33.1145225 22.0997146,33.6488615 15.7151912,32.8343604 C9.33066777,32.0198593 5.35145279,30.9515737 3.77754625,29.6295037 L3.32858467,26.3579458 L3.77754625,25.9545405 L32.4569953,29.3689927 L31.817139,31.2313435 Z" id="Path-120" fill="#FFFFFF"></path>
                    <path d="M64.8157789,34.4445229 C61.4638354,36.6781491 56.595602,37.3877116 50.2110786,36.5732105 C43.8265551,35.7587094 37.6889307,34.4065213 31.7982052,32.5166463 L32.3437246,29.6993873 L32.1609257,29.0012868 L64.674759,32.6295283 L64.8157789,34.4445229 Z" id="Path-120" fill="#FFFFFF" transform="translate(48.306992, 32.950483) scale(-1, 1) rotate(-11.000000) translate(-48.306992, -32.950483) "></path>
                    <g id="Group-19" transform="translate(0.493551, 0.737064)">
                        <mask id="mask-5" fill="white">
                            <use xlink:href="#path-4"></use>
                        </mask>
                        <g id="Path-110" transform="translate(34.885801, 19.349254) rotate(-5.000000) translate(-34.885801, -19.349254) ">
                            <use fill="#ADD9A3" fill-rule="evenodd" xlink:href="#path-4"></use>
                            <use fill="black" fill-opacity="1" filter="url(#filter-6)" xlink:href="#path-4"></use>
                        </g>
                        <path d="M44.8883067,3.76297512 L34.2799763,26.7185612 L44.7347438,1.90914548 C45.0178124,1.88761288 45.1636259,1.92850549 45.1721843,2.03182331 C45.1807427,2.13514112 45.0861168,2.71219172 44.8883067,3.76297512 Z" id="Path-112" fill="#689E5B" mask="url(#mask-5)"></path>
                        <path d="M42.7704227,2.13698456 C34.2801096,20.289576 30.034953,29.3658717 30.034953,29.3658717 C31.8669249,29.7024933 32.7829109,29.870804 32.7829109,29.870804 L45.143811,2.38678289 L42.7704227,2.13698456 Z" id="Path-111" fill="#96CF89" mask="url(#mask-5)"></path>
                    </g>
                    <path d="M3.58480763,28.2259294 L3.50881254,27.7497207 C8.14465776,30.088236 14.3614123,31.4243148 22.1590762,31.7579573 C14.9356802,31.7579573 6.54593149,30.0610334 3.58480763,28.2259294 Z" id="Path-121" fill="#F3F3F3" fill-rule="nonzero"></path>
                </g>
                <g id="Group-20" transform="translate(133.567030, 217.967841)"></g>
                <g id="Group" transform="translate(152.297761, 100.559480) rotate(-9.000000) translate(-152.297761, -100.559480) translate(74.297761, 12.059480)">
                    <g id="Path-4">
                        <use fill="url(#linearGradient-7)" fill-rule="evenodd" xlink:href="#path-8"></use>
                        <use fill="black" fill-opacity="1" filter="url(#filter-9)" xlink:href="#path-8"></use>
                    </g>
                    <g id="Group-3" transform="translate(78.268714, 148.197741) rotate(12.000000) translate(-78.268714, -148.197741) translate(27.768714, 129.697741)">
                        <path d="M50.5433652,34.9975494 C71.5620902,32.7643901 93.2045507,30.1988844 99.4010248,33.6839803 L97.2793812,28.6108862 L52.4615005,28.6108862 L50.5433652,34.9975494 Z" id="Path-98" fill="#F8F0E7"></path>
                        <path d="M50.0599616,35.4638709 C38.9062912,33.8179071 30.6659343,32.8998979 25.338891,32.7098433 C20.0118476,32.5197887 11.9391704,32.7208328 1.12085941,33.3129757 L1.12085941,30.2280739 L46.7606287,30.2804099 L50.0599616,35.4638709 Z" id="Path-99" fill="#F8F0E7"></path>
                        <g id="Group-2" transform="translate(0.637743, 0.225849)">
                            <path d="M0.0176639184,33.3004806 L2.92739536,-2.27373675e-13 L47.0200935,-2.27373675e-13 L88.0956878,-2.27373675e-13 L99.3393537,33.3004806 C95.1863005,31.3172621 90.7708904,30.3256528 86.0931235,30.3256528 C81.4153566,30.3256528 69.2214133,31.941451 49.5112938,35.1730475 C44.733843,31.941451 37.9483144,30.3256528 29.154708,30.3256528 C20.3611015,30.3256528 10.6487535,31.3172621 0.0176639184,33.3004806 Z" id="Path-10" fill="#FFFFFF"></path>
                            <path d="M5.3698312,15.5271056 C19.3991861,13.2183514 34.1546526,8.81727614 45.0542304,15.5271056" id="Path-103-Copy-2" stroke="#F7F9FA" stroke-width="1.008" stroke-linecap="round"></path>
                            <path d="M55.7119987,25.2778341 C69.0111916,22.0694879 84.9631276,19.1049937 92.8780274,23.2830685" id="Path-102" stroke="#F7F9FA" stroke-width="1.008" stroke-linecap="round"></path>
                            <path d="M55.7119987,20.0196625 C69.0111916,16.8113163 83.8570668,14.136998 91.7719666,18.3150728" id="Path-102-Copy" stroke="#F7F9FA" stroke-width="1.008" stroke-linecap="round"></path>
                            <path d="M55.7119987,15.6534143 C67.5042591,11.3051103 84.2260546,9.61629199 89.4605687,12.6727685" id="Path-102-Copy-2" stroke="#F7F9FA" stroke-width="1.008" stroke-linecap="round"></path>
                            <path d="M50.1242826,34.9295725 L48.4672687,-4.54747351e-13" id="Path-97" stroke="#F7F7F7" stroke-width="1.2096"></path>
                            <path d="M5.3698312,26.8106863 C19.3991861,24.5019321 34.1546526,20.1008569 45.0542304,26.8106863" id="Path-103" stroke="#F7F9FA" stroke-width="1.008" stroke-linecap="round"></path>
                            <path d="M5.3698312,20.7463678 C19.3991861,18.4376136 34.1546526,14.0365383 45.0542304,20.7463678" id="Path-103-Copy" stroke="#F7F9FA" stroke-width="1.008" stroke-linecap="round"></path>
                        </g>
                    </g>
                    <path d="M123.759923,119.418018 L133.057142,93.361757 L129.115493,116.269113 C128.551257,116.161527 127.964392,115.899821 127.354898,115.483996 C125.76799,117.179033 124.569665,118.490374 123.759923,119.418018 Z" id="Path-15" fill="#54B3A7" opacity="0.100000001"></path>
                    <g id="Group-11" filter="url(#filter-10)" transform="translate(0.000000, 86.854518)">
                        <g id="Group-4" transform="translate(59.403758, -0.000000)">
                            <mask id="mask-12" fill="white">
                                <use xlink:href="#path-11"></use>
                            </mask>
                            <g id="Path-6" transform="translate(47.708139, 36.233245) scale(-1, 1) rotate(-18.000000) translate(-47.708139, -36.233245) ">
                                <use fill="#FFF6EA" fill-rule="evenodd" xlink:href="#path-11"></use>
                                <use fill="black" fill-opacity="1" filter="url(#filter-13)" xlink:href="#path-11"></use>
                            </g>
                            <path d="M11.6228478,21.3859016 C26.8964904,17.2756072 37.9029925,22.8735645 44.6423539,38.1797736 C51.3817153,53.4859827 43.2890641,66.8812495 20.3644003,78.3655738 L-31.5329077,70.1142013 L11.6228478,21.3859016 Z" id="Path-2" fill="#F6EFE5" opacity="0.469041511" filter="url(#filter-14)" mask="url(#mask-12)"></path>
                        </g>
                        <mask id="mask-16" fill="white">
                            <use xlink:href="#path-15"></use>
                        </mask>
                        <g id="Path-6">
                            <use fill="#FFF6EA" fill-rule="evenodd" xlink:href="#path-15"></use>
                            <use fill="black" fill-opacity="1" filter="url(#filter-17)" xlink:href="#path-15"></use>
                        </g>
                        <ellipse id="Oval" fill="#F2F2F2" opacity="0.873833955" mask="url(#mask-16)" transform="translate(79.671842, 35.250388) rotate(-60.000000) translate(-79.671842, -35.250388) " cx="79.6718423" cy="35.2503877" rx="1.21124012" ry="1"></ellipse>
                        <ellipse id="Oval-Copy" fill="#F2F2F2" opacity="0.873833955" mask="url(#mask-16)" transform="translate(77.396927, 38.957645) rotate(-60.000000) translate(-77.396927, -38.957645) " cx="77.3969273" cy="38.9576454" rx="1.21124012" ry="1"></ellipse>
                        <ellipse id="Oval-Copy-2" fill="#F2F2F2" opacity="0.873833955" mask="url(#mask-16)" transform="translate(75.875996, 43.528331) rotate(-60.000000) translate(-75.875996, -43.528331) " cx="75.8759956" cy="43.2251149" rx="1" ry="1"></ellipse>
                        <path d="M20.1412093,3.41486853 C24.4315935,12.1747921 29.8790991,18.5249281 36.4837264,22.4652765 C43.0883536,26.4056249 44.1986743,24.2326724 39.8146885,15.946419 L24.2754736,3.13756182 L24.2754736,-0.646697807 L20.1412093,3.41486853 Z" id="Path-95" fill="#E5EACA" opacity="0.100000001" mask="url(#mask-16)"></path>
                        <polygon id="Path-122" fill="#F2F2F2" fill-rule="nonzero" mask="url(#mask-16)" points="98.0408029 53.4193864 89.2734437 44.3466663 89.5869504 44.1347626"></polygon>
                        <polygon id="Path-122-Copy" fill="#F2F2F2" fill-rule="nonzero" mask="url(#mask-16)" points="92.9646567 55.3954754 86.2529136 48.6507415 86.6145526 48.1776417"></polygon>
                        <polygon id="Path-122-Copy-2" fill="#F2F2F2" fill-rule="nonzero" mask="url(#mask-16)" points="85.4049726 56.799475 81.4815124 53.645747 80.8830824 52.4685221 81.3376973 52.2205207 81.8881916 53.380517"></polygon>
                    </g>
                    <path d="M72.9440341,110.458129 L84.6471778,121.022479 L88.6416499,120.216974 L75.251835,108.470485 C74.5997481,107.898428 73.626065,107.893535 72.9682617,108.459009 L72.9682617,108.459009 C72.4103263,108.938633 72.346842,109.779741 72.8264656,110.337676 C72.8630769,110.380265 72.9023447,110.420497 72.9440341,110.458129 Z" id="Path-11" fill="#8D8D8D" opacity="0.576236019"></path>
                    <path d="M84.9104558,121.236677 C87.2416813,120.704272 88.9684246,120.118182 89.9242708,120.314405 C90.8801169,120.510629 93.2030491,121.588437 93.9479716,124.101148 C95.2975507,128.653436 98.1284234,130.464304 97.9923621,132.313398 C97.9056797,132.807139 97.5662664,132.97123 96.9741223,132.80567 C90.3358806,126.582871 86.3146584,122.72654 84.9104558,121.236677 Z" id="Path-7" fill="#FFF6EA"></path>
                    <g id="Group-10" transform="translate(72.674407, 53.029096)">
                        <mask id="mask-19" fill="white">
                            <use xlink:href="#path-18"></use>
                        </mask>
                        <g id="Path-9">
                            <use fill="black" fill-opacity="1" filter="url(#filter-20)" xlink:href="#path-18"></use>
                            <use fill="#FFFFFF" fill-rule="evenodd" xlink:href="#path-18"></use>
                        </g>
                        <path d="M16.8883819,32.0260125 C19.8133068,35.0698392 19.315204,38.4767297 19.6138874,41.3711605 C21.6848221,38.4531885 24.1523274,36.3675994 27.0419912,35.7873018 L16.8883819,32.0260125 Z" id="Path-82" fill="#FCFCFC" mask="url(#mask-19)"></path>
                    </g>
                    <g id="Path-5" filter="url(#filter-21)" transform="translate(74.221262, 0.000000)">
                        <mask id="mask-23" fill="white">
                            <use xlink:href="#path-22"></use>
                        </mask>
                        <use id="Mask" fill="#7E7572" xlink:href="#path-22"></use>
                        <path d="M50.1777381,10.2943108 C56.7713227,21.9316804 61.3882579,36.256373 54.4883221,66.2386499 C67.9347982,40.6690064 65.1471839,23.709442 50.1777381,10.2943108 Z" id="Path-94" fill="#706764" opacity="0.200000003" mask="url(#mask-23)"></path>
                        <path d="M54.0669874,12.5001074 C64.283365,26.4028743 64.3524613,43.1510237 60.1849895,61.0871422 C70.8260307,33.3213556 67.3629322,18.42478 54.0669874,12.5001074 Z" id="Path-93" fill="#706764" opacity="0.200000003" mask="url(#mask-23)"></path>
                        <g mask="url(#mask-23)">
                            <use fill="#FFF4E8" fill-rule="evenodd" xlink:href="#path-24"></use>
                            <use fill="black" fill-opacity="1" filter="url(#filter-25)" xlink:href="#path-24"></use>
                        </g>
                        <path d="M1.24974759,37.0577864 C4.197754,35.2145038 8.03075675,35.8780108 6.80731183,41.3517582 C6.91776019,39.933156 6.65629646,38.8498043 6.02292065,38.1017033 C5.07285693,36.9795517 3.37662025,36.1020014 1.24974759,37.0577864 Z" id="Path-85" fill="#F5EDE1" fill-rule="nonzero" mask="url(#mask-23)"></path>
                        <path d="M5.25853223,36.8647346 C6.67721347,37.284128 4.64654332,37.0446334 3.73667841,37.5668646 C3.1301018,37.9150187 2.35751245,38.4178335 1.41891036,39.0753089 C2.91358846,37.1503169 3.82019554,36.9163709 5.25853223,36.8647346 Z" id="Path-86" fill="#F5EDE1" fill-rule="nonzero" mask="url(#mask-23)"></path>
                        <path d="M1.30915535,34.1961196 C8.13934536,29.9945945 11.3783632,37.2060504 7.82610739,50.1663082 C8.18818148,45.2234275 11.5199117,30.0654636 1.30915535,34.1961196 Z" id="Path-84" fill="#A39E9E" mask="url(#mask-23)"></path>
                        <path d="M1.35869599,34.1228046 C10.3204073,13.0527099 22.5655395,1.69724862 38.0940927,0.0564207788 L23.0756487,-3.6873081 C15.4630603,6.77938686 5.29998047,14.0439024 0.509168537,28.0533791 L1.35869599,34.1228046 Z" id="Path-87" fill="#706764" opacity="0.300000012" mask="url(#mask-23)"></path>
                        <path d="M36.2093214,-0.579330461 C65.903234,5.58677575 69.2631976,25.4814062 70.6091539,43.6465698 L76.0565342,7.10453273 L48.8845421,-4.13397898 L38.910993,-1.91910806 L36.2093214,-0.579330461 Z" id="Path-88" fill="#706764" opacity="0.300000012" mask="url(#mask-23)"></path>
                        <path d="M38.2850116,-0.336906585 C27.8179755,5.30849732 19.9951834,14.3027648 23.3576867,30.6239728 C25.0024872,14.0621964 30.5066365,8.39737576 38.2850116,-0.336906585 Z" id="Path-89" fill="#706764" opacity="0.300000012" mask="url(#mask-23)"></path>
                        <path d="M36.4928769,0.407326637 C14.8899213,5.37012943 10.2897164,17.6953294 8.1454075,28.9374133 C10.9243311,21.7795593 20.765843,8.20543089 36.4928769,0.407326637 Z" id="Path-90" fill="#706764" opacity="0.300000012" mask="url(#mask-23)"></path>
                        <path d="M38.0118225,0.349772987 C49.0137445,10.2798618 49.1962647,36.496818 44.4442523,49.4225753 C54.5280879,28.5932291 57.7607402,5.25391372 38.0118225,0.349772987 Z" id="Path-91" fill="#706764" opacity="0.200000003" mask="url(#mask-23)"></path>
                        <path d="M39.2004164,1.04106116 C57.4911749,13.8276478 55.6514772,36.3009797 49.460515,60.8681335 C64.2031933,33.7408644 64.8343085,12.1959301 39.2004164,1.04106116 Z" id="Path-92" fill="#706764" opacity="0.200000003" mask="url(#mask-23)"></path>
                        <path d="M28.5259336,73.4456355 C28.7351081,74.856581 28.1761822,75.4223743 26.849156,75.1430155" id="Path-105" stroke="#E4C7C4" stroke-width="1.008" opacity="0.736403924" stroke-linecap="round" mask="url(#mask-23)"></path>
                        <path d="M21.1964355,80.8063508 C22.1384067,84.1480472 26.435921,84.5296628 27.3711856,82.6667713 C25.2764289,82.4594672 23.1980139,82.0673633 21.1964355,80.8063508 Z" id="Path-106" stroke="#D59F9C" stroke-width="1.008" opacity="0.738840963" stroke-linecap="round" mask="url(#mask-23)" transform="translate(24.283811, 82.293046) rotate(7.000000) translate(-24.283811, -82.293046) "></path>
                        <path d="M25.157722,58.8161603 C23.7281569,55.800594 19.7256913,55.2144236 16.8264036,55.6785073" id="Path-104" stroke="#847471" stroke-width="1.008" opacity="0.699999988" stroke-linecap="round" mask="url(#mask-23)"></path>
                        <path d="M42.9586496,66.3705972 C44.7219857,65.8694225 48.0184579,66.1139077 50.2050971,68.6766917" id="Path-107" stroke="#847471" stroke-width="1.008" opacity="0.699999988" stroke-linecap="round" mask="url(#mask-23)"></path>
                        <g id="Group-6" mask="url(#mask-23)">
                            <g transform="translate(41.000000, 66.000000)">
                                <path d="M0.860770202,3.53031666 C0.077260785,4.17485237 0.544724828,4.8094966 2.26316233,5.43424935 C3.98159983,6.0590021 5.89312893,6.52295517 7.99774962,6.82610857 C5.06668392,5.974364 1.92056651,4.29798797 0.860770202,3.53031666 Z" id="Path-12" fill="#D2C5B8"></path>
                                <path d="M1.02871251,2.83404001 C0.586668092,4.22675687 0.901600445,5.26030704 1.97350957,5.93469054 C3.84683474,7.09739448 6.14140739,6.67377938 8.85722754,4.66384523 C5.92616184,3.81210067 2.08850882,3.60171132 1.02871251,2.83404001 Z" id="Path-12-Copy" fill="#F7E8D9" transform="translate(4.846169, 4.703945) scale(1, -1) rotate(-34.000000) translate(-4.846169, -4.703945) "></path>
                                <path d="M8.00140801,7.35784127 C8.54528983,6.96824929 8.19108084,4.80708578 6.1675958,3.80219861 C4.75246468,3.09942736 3.92528259,3.33613512 2.72258729,3.55346684 C2.20555789,3.64689606 1.43064377,3.55221995 0.820475515,3.68194082 C1.17053366,3.81139865 7.41075156,7.62625339 8.00140801,7.35784127 Z" id="Oval-3-Copy-2" fill="#F3F1F1" opacity="0.699999988" transform="translate(4.525421, 5.352072) scale(-1, 1) rotate(-46.000000) translate(-4.525421, -5.352072) "></path>
                                <path d="M0.665646649,4.02152163 C0.676271477,3.69806159 0.884899617,3.46589223 1.29153107,3.32501355 C1.69816252,3.18413488 2.20969453,3.08037862 2.82612708,3.01374478 L2.94675566,5.0996504 C2.40449429,5.22971858 0.509644692,4.49901626 0.665646649,4.02152163 Z" id="Path-14" fill="#F7ECEC"></path>
                                <path d="M1.42033137,4.41564999 C1.29321426,3.54273304 2.92107138,2.60023489 4.6036859,3.27843961 C6.11799642,3.897583 6.41929636,5.18700876 5.63741037,5.80678639 C5.3664811,6.02154391 4.43528371,5.74528206 3.52602079,5.47237513 C2.53087507,5.17369128 1.5070845,5.01138633 1.42033137,4.41564999 Z" id="Path-8" fill="#7E7572"></path>
                                <circle id="Oval-3" fill="#C6C6C6" opacity="0.449999988" cx="4.5" cy="5.5" r="1"></circle>
                                <path d="M0.711171712,3.70214325 C1.39745575,2.63979062 2.72472522,2.36137424 4.69298009,2.8668941 C6.7866717,3.4584951 7.89600505,6.16335243 7.98208057,6.78653889 C6.14134088,3.26380202 3.71770459,2.23567014 0.711171712,3.70214325 Z" id="Path-13" fill="#706562"></path>
                            </g>
                        </g>
                        <g id="Group-6" mask="url(#mask-23)">
                            <g transform="translate(19.032627, 60.670970) scale(-1, 1) rotate(-38.000000) translate(-19.032627, -60.670970) translate(14.032627, 55.670970)">
                                <path d="M0.860770202,3.53031666 C0.077260785,4.17485237 0.544724828,4.8094966 2.26316233,5.43424935 C3.98159983,6.0590021 5.89312893,6.52295517 7.99774962,6.82610857 C5.06668392,5.974364 1.92056651,4.29798797 0.860770202,3.53031666 Z" id="Path-12" fill="#D2C5B8"></path>
                                <path d="M1.02871251,2.83404001 C0.586668092,4.22675687 0.901600445,5.26030704 1.97350957,5.93469054 C3.84683474,7.09739448 6.14140739,6.67377938 8.85722754,4.66384523 C5.92616184,3.81210067 2.08850882,3.60171132 1.02871251,2.83404001 Z" id="Path-12-Copy" fill="#F7E8D9" transform="translate(4.846169, 4.703945) scale(1, -1) rotate(-34.000000) translate(-4.846169, -4.703945) "></path>
                                <path d="M8.00140801,7.35784127 C8.54528983,6.96824929 8.19108084,4.80708578 6.1675958,3.80219861 C4.75246468,3.09942736 3.92528259,3.33613512 2.72258729,3.55346684 C2.20555789,3.64689606 1.43064377,3.55221995 0.820475515,3.68194082 C1.17053366,3.81139865 7.41075156,7.62625339 8.00140801,7.35784127 Z" id="Oval-3-Copy-2" fill="#F3F1F1" opacity="0.699999988" transform="translate(4.525421, 5.352072) scale(-1, 1) rotate(-46.000000) translate(-4.525421, -5.352072) "></path>
                                <path d="M0.665646649,4.02152163 C0.676271477,3.69806159 0.884899617,3.46589223 1.29153107,3.32501355 C1.69816252,3.18413488 2.20969453,3.08037862 2.82612708,3.01374478 L2.94675566,5.0996504 C2.40449429,5.22971858 0.509644692,4.49901626 0.665646649,4.02152163 Z" id="Path-14" fill="#F7ECEC"></path>
                                <path d="M1.42033137,4.41564999 C1.29321426,3.54273304 2.92107138,2.60023489 4.6036859,3.27843961 C6.11799642,3.897583 6.41929636,5.18700876 5.63741037,5.80678639 C5.3664811,6.02154391 4.43528371,5.74528206 3.52602079,5.47237513 C2.53087507,5.17369128 1.5070845,5.01138633 1.42033137,4.41564999 Z" id="Path-8" fill="#7E7572"></path>
                                <circle id="Oval-3" fill="#C6C6C6" opacity="0.449999988" cx="4.5" cy="5.5" r="1"></circle>
                                <path d="M0.711171712,3.70214325 C1.39745575,2.63979062 2.72472522,2.36137424 4.69298009,2.8668941 C6.7866717,3.4584951 7.89600505,6.16335243 7.98208057,6.78653889 C6.14134088,3.26380202 3.71770459,2.23567014 0.711171712,3.70214325 Z" id="Path-13" fill="#706562"></path>
                            </g>
                        </g>
                    </g>
                    <path d="M30.1131102,113.387182 C30.2906238,113.298374 30.2906238,113.240293 30.1131102,113.212939 C26.377199,112.637237 22.9329336,112.76351 18.1686018,113.387182 C22.4300025,112.902394 26.4115053,112.902394 30.1131102,113.387182 Z" id="Path-83" fill="#DEC4B3" opacity="0.109141791"></path>
                    <polygon id="Path-96" fill="#54B3A7" opacity="0.100000001" points="42.6129184 114.473977 54.9536938 94.6081687 41.8270076 110.057778 43.3164694 110.768616"></polygon>
                </g>
            </g>
            <text id="请先绑定孩子" font-family="PingFangSC-Regular, PingFang SC" font-size="16" font-weight="normal" line-spacing="23" fill="#55595C">
                <tspan x="140" y="328">请先绑定孩子</tspan>
            </text>
        </g>
    </g>
</svg>