<?xml version="1.0" encoding="UTF-8" standalone="no"?>
<svg width="375px" height="374px" viewBox="0 0 375 374" version="1.1" xmlns="http://www.w3.org/2000/svg" xmlns:xlink="http://www.w3.org/1999/xlink">
    <!-- Generator: Sketch 49.3 (51167) - http://www.bohemiancoding.com/sketch -->
    <title>2 copy</title>
    <desc>Created with Sketch.</desc>
    <defs>
        <rect id="path-1" x="0" y="0" width="327" height="268" rx="20.3"></rect>
        <path d="M1.65940644,50.0618186 C47.1390821,64.6922257 99.9311101,65.6414523 160.035491,52.9094981 C250.192061,33.8115669 290.016124,35.1022706 328.308832,50.0299602 C328.326571,49.7468803 330.857852,1.69915898 319.938565,0.358656117 C315.264167,-0.221069037 308.618819,-0.00610306925 258.78941,0.358656117 C248.941202,0.430746561 187.624419,0.430746561 74.8390612,0.358656117 C32.009724,0.256963873 8.39938761,2.83254611 4.00805221,8.08540282 C-0.383283184,13.3382595 -1.16616511,27.3303981 1.65940644,50.0618186 Z" id="path-3"></path>
        <radialGradient cx="65.7551822%" cy="21.3952411%" fx="65.7551822%" fy="21.3952411%" r="81.3217042%" gradientTransform="translate(0.657552,0.213952),scale(1.000000,0.929261),rotate(107.266728),translate(-0.657552,-0.213952)" id="radialGradient-5">
            <stop stop-color="#56F0FC" offset="0%"></stop>
            <stop stop-color="#61D6F7" offset="21.5880102%"></stop>
            <stop stop-color="#7E9EED" offset="49.3403221%"></stop>
            <stop stop-color="#804EEA" offset="100%"></stop>
        </radialGradient>
        <path d="M31.716895,68.2626365 C47.5717295,68.2626365 63.43379,52.9815248 63.43379,34.1313183 C63.43379,15.2811117 49.2336524,0 31.716895,0 C14.2001376,0 0,15.2811117 0,34.1313183 C0,52.9815248 15.8620604,68.2626365 31.716895,68.2626365 Z" id="path-6"></path>
        <filter x="-5.3%" y="-4.9%" width="110.6%" height="109.8%" filterUnits="objectBoundingBox" id="filter-7">
            <feGaussianBlur stdDeviation="1" in="SourceAlpha" result="shadowBlurInner1"></feGaussianBlur>
            <feOffset dx="4" dy="0" in="shadowBlurInner1" result="shadowOffsetInner1"></feOffset>
            <feComposite in="shadowOffsetInner1" in2="SourceAlpha" operator="arithmetic" k2="-1" k3="1" result="shadowInnerInner1"></feComposite>
            <feColorMatrix values="0 0 0 0 0.890911952   0 0 0 0 0.337140941   0 0 0 0 1  0 0 0 0.235563859 0" type="matrix" in="shadowInnerInner1"></feColorMatrix>
        </filter>
        <linearGradient x1="50%" y1="0%" x2="50%" y2="100%" id="linearGradient-8">
            <stop stop-color="#8052EA" offset="0%"></stop>
            <stop stop-color="#63D4F7" offset="100%"></stop>
        </linearGradient>
        <linearGradient x1="50%" y1="0%" x2="50%" y2="100%" id="linearGradient-9">
            <stop stop-color="#D10F12" offset="0%"></stop>
            <stop stop-color="#FFD257" offset="100%"></stop>
        </linearGradient>
        <radialGradient cx="65.7551822%" cy="21.3952411%" fx="65.7551822%" fy="21.3952411%" r="81.3217042%" gradientTransform="translate(0.657552,0.213952),scale(1.000000,0.929261),rotate(107.266728),translate(-0.657552,-0.213952)" id="radialGradient-10">
            <stop stop-color="#FFF695" offset="0%"></stop>
            <stop stop-color="#FFD374" offset="21.5880102%"></stop>
            <stop stop-color="#FD8290" offset="49.3403221%"></stop>
            <stop stop-color="#F4505B" offset="100%"></stop>
        </radialGradient>
        <filter x="-126.4%" y="-189.4%" width="352.9%" height="478.7%" filterUnits="objectBoundingBox" id="filter-11">
            <feGaussianBlur stdDeviation="2.51100069" in="SourceGraphic"></feGaussianBlur>
        </filter>
        <filter x="-126.4%" y="-189.4%" width="352.9%" height="478.7%" filterUnits="objectBoundingBox" id="filter-12">
            <feGaussianBlur stdDeviation="2.51100069" in="SourceGraphic"></feGaussianBlur>
        </filter>
        <radialGradient cx="50%" cy="50%" fx="50%" fy="50%" r="50%" gradientTransform="translate(0.500000,0.500000),scale(0.999277,1.000000),rotate(90.000000),translate(-0.500000,-0.500000)" id="radialGradient-13">
            <stop stop-color="#FFC5C5" offset="0%"></stop>
            <stop stop-color="#FFCBCB" stop-opacity="0" offset="100%"></stop>
        </radialGradient>
        <radialGradient cx="50%" cy="50%" fx="50%" fy="50%" r="50%" gradientTransform="translate(0.500000,0.500000),scale(0.999277,1.000000),rotate(90.000000),translate(-0.500000,-0.500000)" id="radialGradient-14">
            <stop stop-color="#FFC5C5" offset="0%"></stop>
            <stop stop-color="#FFCBCB" stop-opacity="0" offset="100%"></stop>
        </radialGradient>
        <path d="M0.702552452,7.86227385 C15.5671361,9.3988413 26.0545793,6.78535399 32.1648819,0.0218119395 C35.0330885,8.52183778 34.3659696,14.5729258 30.1635251,18.175076 C23.8598585,23.5783013 16.4681463,22.9802461 10.6992761,19.3923905 C6.85336263,17.0004869 3.52112142,13.1571146 0.702552452,7.86227385 Z" id="path-15"></path>
    </defs>
    <g id="Page-2" stroke="none" stroke-width="1" fill="none" fill-rule="evenodd">
        <g id="2-copy" transform="translate(0.000000, -88.000000)">
            <g id="Group-8" transform="translate(-26.000000, 97.000000)">
                <g id="开心">
                    <path d="M378,0 C374.337213,2.12110598 361.022043,5.97733641 369.511022,8.699522 C378,11.4217076 369.142395,12.5461925 366.235645,14.9039064 C363.328894,17.2616202 369.822124,21.8097495 366.235645,23.0226636 C362.649166,24.2355777 361.250087,26.1200758 366.235645,29" id="Path-40" stroke="#17B6BC" stroke-width="2.1" stroke-linecap="round"></path>
                    <path d="M1.36952953,163 C-0.021445468,158.938632 -2.12246227,155.07088 5.38547604,157.71392 C12.8934144,160.35696 3.73772165,148.520958 9.80478451,150.256899 C15.8718474,151.992839 23.8077711,156.968929 15.8718474,145.693449 C7.93592369,134.417969 26.5806915,142.893382 31,145.693449" id="Path-39" stroke="#FF2619" stroke-width="2.1" stroke-linecap="round"></path>
                    <path d="M390.224885,65.6732828 L390.224885,61.0517616 C390.224885,59.9186049 391.164758,59 392.324149,59 C393.483541,59 394.423414,59.9186049 394.423414,61.0517616 L394.423414,65.6732828 L397.419669,62.1024854 C398.148048,61.234437 399.4585,61.1348834 400.346646,61.8801261 C401.234791,62.6253688 401.364308,63.9331996 400.635929,64.8012479 L397.738979,68.2536979 L402.230203,67.461774 C403.346144,67.2650035 404.414001,68.0310834 404.615327,69.1728614 C404.816653,70.3146395 404.075211,71.3997476 402.95927,71.5965182 L398.520886,72.379125 L402.405584,74.6219568 C403.386927,75.1885351 403.712525,76.4617913 403.132829,77.4658541 C402.553134,78.4699168 401.287662,78.8245681 400.30632,78.2579898 L396.303965,75.9472292 L397.86375,80.2327046 C398.251313,81.2975235 397.682303,82.4821852 396.592831,82.8787206 C395.503359,83.2752559 394.305986,82.7335051 393.918423,81.6686862 L392.324149,77.2884547 L390.729876,81.6686862 C390.342313,82.7335051 389.14494,83.2752559 388.055468,82.8787206 C386.965996,82.4821852 386.396986,81.2975235 386.784549,80.2327046 L388.344334,75.9472292 L384.341979,78.2579898 C383.360637,78.8245681 382.095165,78.4699168 381.515469,77.4658541 C380.935774,76.4617913 381.261372,75.1885351 382.242715,74.6219568 L386.127413,72.379125 L381.689029,71.5965182 C380.573088,71.3997476 379.831646,70.3146395 380.032972,69.1728614 C380.234298,68.0310834 381.302155,67.2650035 382.418096,67.461774 L386.90932,68.2536979 L384.01237,64.8012479 C383.283991,63.9331996 383.413508,62.6253688 384.301653,61.8801261 C385.189799,61.1348834 386.500251,61.234437 387.22863,62.1024854 L390.224885,65.6732828 Z M390.224885,67.7930519 C389.995309,67.8760667 389.775619,68.0004612 389.577041,68.1670883 C389.407285,68.3095305 389.265244,68.4725256 389.15161,68.6490742 L389.826929,68.7681511 C389.941669,68.7883829 390.05245,68.8180059 390.158654,68.8561162 C389.682077,68.8539539 389.230441,69.0219963 388.870777,69.3121539 C388.760868,69.7836116 388.815508,70.2853511 389.04396,70.7238269 C389.052158,70.7206777 389.060369,70.7175856 389.068592,70.7145505 C389.061727,70.7202579 389.054907,70.7260054 389.048133,70.7317925 C389.06156,70.7572831 389.075576,70.7825571 389.090185,70.8075963 C389.068488,70.7892225 389.047113,70.7703278 389.026077,70.7509132 C388.652206,71.0798467 388.420667,71.5311999 388.355065,72.0126735 C388.592458,72.4329369 388.971616,72.7657361 389.439667,72.9336917 C389.326833,72.9331797 389.212602,72.923127 389.097862,72.9028952 L388.391374,72.7783224 C388.43812,72.9781397 388.514781,73.1749243 388.62298,73.3623309 C388.747768,73.5784695 388.904333,73.7645152 389.083002,73.9177568 L389.357609,73.1632789 C389.397458,73.0537952 389.445868,72.9498414 389.501841,72.8518686 C389.408257,73.3688818 389.523666,73.8919664 389.800206,74.3214743 C390.230052,74.4619715 390.701109,74.4618807 391.138831,74.3003101 C391.052066,74.372446 390.958098,74.4381719 390.857197,74.4964269 L390.26835,74.8363984 C390.442635,74.9737533 390.641873,75.0863386 390.862443,75.1666198 C391.106036,75.2552802 391.355023,75.2970343 391.599146,75.2965233 L391.345363,74.5992604 C391.305514,74.4897768 391.275778,74.3790262 391.25568,74.2679957 C391.497488,74.6912419 391.880452,75.0028649 392.324149,75.1664767 C392.767846,75.0028649 393.150811,74.6912419 393.392619,74.2679957 C393.372521,74.3790262 393.342785,74.4897768 393.302936,74.5992604 L393.049153,75.2965233 C393.293276,75.2970343 393.542263,75.2552802 393.785855,75.1666198 C394.006426,75.0863386 394.205664,74.9737533 394.379949,74.8363984 L393.791102,74.4964269 C393.690201,74.4381719 393.596233,74.372446 393.509468,74.3003101 C393.94719,74.4618807 394.418247,74.4619715 394.848093,74.3214743 C395.124632,73.8919664 395.240042,73.3688818 395.146458,72.8518686 C395.202431,72.9498414 395.250841,73.0537952 395.29069,73.1632789 L395.565297,73.9177568 C395.743966,73.7645152 395.900531,73.5784695 396.025319,73.3623309 C396.133518,73.1749243 396.210179,72.9781397 396.256925,72.7783224 L395.550437,72.9028952 C395.435697,72.923127 395.321465,72.9331797 395.208632,72.9336917 C395.676683,72.7657361 396.055841,72.4329369 396.293234,72.0126735 C396.227632,71.5311999 395.996093,71.0798467 395.622222,70.7509132 C395.601185,70.7703278 395.579811,70.7892225 395.558114,70.8075963 C395.572723,70.7825571 395.586739,70.7572831 395.600166,70.7317925 C395.593392,70.7260054 395.586572,70.7202579 395.579707,70.7145505 C395.58793,70.7175856 395.596141,70.7206777 395.604339,70.7238269 C395.832791,70.2853511 395.887431,69.7836116 395.777522,69.3121539 C395.417858,69.0219963 394.966221,68.8539539 394.489645,68.8561162 C394.595849,68.8180059 394.70663,68.7883829 394.82137,68.7681511 L395.496689,68.6490742 C395.383055,68.4725256 395.241014,68.3095305 395.071258,68.1670883 C394.87268,68.0004612 394.65299,67.8760667 394.423414,67.7930519 L394.423414,68.5748873 C394.423414,68.6913973 394.413478,68.8056392 394.394389,68.9168476 C394.308345,68.4155829 394.036339,67.9759493 393.650075,67.6680301 C393.19356,67.6803155 392.745825,67.8417001 392.386324,68.1461479 C392.443184,68.048687 392.509006,67.9547859 392.583897,67.865534 L393.035173,67.3277238 C392.813128,67.2496131 392.573725,67.2070463 392.324149,67.2070463 C392.074574,67.2070463 391.835171,67.2496131 391.613126,67.3277238 L392.064402,67.865534 C392.139293,67.9547859 392.205115,68.048687 392.261975,68.1461479 C391.902474,67.8417001 391.454739,67.6803155 390.998224,67.6680301 C390.61196,67.9759493 390.339953,68.4155829 390.25391,68.9168476 C390.234821,68.8056392 390.224885,68.6913973 390.224885,68.5748873 L390.224885,67.7930519 Z M389.010976,70.736832 C388.954026,70.6831782 388.89963,70.6256574 388.848142,70.5642966 L388.337376,69.9555894 C388.232372,70.1510787 388.156095,70.3668397 388.115335,70.5980001 C388.076854,70.8162342 388.072816,71.032398 388.099251,71.2406842 L388.757933,70.8603939 C388.840463,70.8127449 388.925004,70.7716115 389.010976,70.736832 Z M396.549048,71.2406842 C396.575483,71.032398 396.571445,70.8162342 396.532964,70.5980001 C396.492204,70.3668397 396.415927,70.1510787 396.310923,69.9555894 L395.800157,70.5642966 C395.748669,70.6256574 395.694273,70.6831782 395.637323,70.736832 C395.723295,70.7716115 395.807836,70.8127449 395.890366,70.8603939 L396.549048,71.2406842 Z" id="Combined-Shape-Copy" fill="#FFE10E"></path>
                    <g id="Path-38" transform="translate(51.000000, 93.000000)">
                        <mask id="mask-2" fill="white">
                            <use xlink:href="#path-1"></use>
                        </mask>
                        <use id="Mask" fill="#FFFFFF" xlink:href="#path-1"></use>
                        <path d="M0.656440618,39.1230421 C46.1720512,53.4949824 97.0211703,55.7648652 153.203798,45.9326905 C188.059241,39.8328547 228.225496,30.4910653 257.549026,29.8667507 C299.124308,28.9815893 325.992101,43.3397919 326.300488,43.813908 C326.826385,44.6224238 340.446085,-2.93697571 327.959093,-4.44375864 C323.187148,-5.01958063 314.375185,-4.80606198 263.505917,-4.44375864 C253.452193,-4.37215356 190.855828,-4.37215356 75.7168212,-4.44375864 C31.9937048,-4.54476621 7.89065878,-1.98652482 3.40768329,3.23096552 C-1.07529219,8.44845587 -1.99237308,20.4124814 0.656440618,39.1230421 Z" fill="#E3E3E3" mask="url(#mask-2)"></path>
                    </g>
                    <g id="Path-38-Copy-2" transform="translate(50.000000, 77.000000)">
                        <mask id="mask-4" fill="white">
                            <use xlink:href="#path-3"></use>
                        </mask>
                        <use id="Mask" fill="#F7830E" xlink:href="#path-3"></use>
                        <path d="M-2.62929869,50.758961 C45.4644774,63.6088782 101.870227,61.8650711 166.587949,45.5275396 C263.664532,21.0212423 285.09349,20.9556066 328.581029,47.4143016 C328.586528,47.3265453 329.637999,42.1240201 330.761084,34.9464365 C333.260791,18.9709414 336.115276,-6.7889061 328.581029,-7.71384559 C323.906631,-8.29357075 304.497733,-5.85739351 254.668324,-5.49263432 C244.820116,-5.42054388 183.503334,-5.42054388 70.7179756,-5.49263432 C27.8886384,-5.59432657 4.27830201,-3.01874433 -0.113033382,2.23411238 C-4.50436878,7.4869691 -5.34312388,23.6619186 -2.62929869,50.758961 Z" fill="#FF9501" mask="url(#mask-4)"></path>
                    </g>
                    <g id="Group-3" transform="translate(185.000000, 39.000000)" fill="#FFE10E">
                        <path d="M11.2400691,8.33443048 C10.9042946,8.62483969 10.6674958,9.02919527 10.5880324,9.48839094 C10.6126659,9.49600813 10.6370638,9.50407669 10.6612182,9.51258544 C10.1740052,9.50753056 9.71513385,9.68235542 9.36243249,9.98329801 C9.2992441,10.417366 9.38173138,10.8727531 9.61637037,11.2695941 C9.53435205,11.1993097 9.45694903,11.1213582 9.3851873,11.0358359 L8.93542723,10.4998328 C8.83020186,10.6854546 8.75442828,10.8916253 8.71533156,11.1133538 C8.67506106,11.3417392 8.67700145,11.5679226 8.71559875,11.7840787 L9.33630899,11.4257114 C9.4329933,11.3698907 9.53238933,11.3231137 9.63350001,11.2851199 C9.27302224,11.5812784 9.03845583,11.9870681 8.95180199,12.4224188 C9.18137711,12.8137081 9.54666711,13.1247012 9.99637185,13.2831164 C9.88836426,13.2819958 9.77896384,13.2720352 9.6690185,13.2526489 L8.94138503,13.1243475 C8.97859784,13.3432253 9.05453191,13.5590252 9.17181843,13.7621714 C9.28053803,13.9504793 9.41643971,14.1134518 9.57187041,14.2490904 L9.809758,13.5954997 C9.84794161,13.490591 9.89401569,13.3908672 9.94704902,13.2967696 C9.86195784,13.751695 9.94113916,14.2096202 10.1507999,14.5968564 C10.5613227,14.7541212 11.0237397,14.7724688 11.4600482,14.6315288 C11.4583597,14.6231076 11.4567278,14.614685 11.4551522,14.6062613 C11.4594268,14.6138458 11.4637467,14.6213938 11.4681113,14.6289051 C11.494796,14.6201585 11.5213811,14.6108148 11.5478488,14.6008692 C11.5263786,14.6185085 11.5044618,14.6357588 11.482103,14.6526034 C11.7201311,15.0494328 12.084162,15.3407284 12.5,15.4913161 C12.915838,15.3407284 13.2798689,15.0494328 13.517897,14.6526034 C13.4955382,14.6357588 13.4736214,14.6185085 13.4521512,14.6008692 C13.4786189,14.6108148 13.505204,14.6201585 13.5318887,14.6289051 C13.5362533,14.6213938 13.5405732,14.6138458 13.5448478,14.6062613 C13.5432722,14.614685 13.5416403,14.6231076 13.5399518,14.6315288 C13.9762603,14.7724688 14.4386773,14.7541212 14.8492001,14.5968564 C15.0588608,14.2096202 15.1380422,13.751695 15.052951,13.2967696 C15.1059843,13.3908672 15.1520584,13.490591 15.190242,13.5954997 L15.4281296,14.2490904 C15.5835603,14.1134518 15.719462,13.9504793 15.8281816,13.7621714 C15.9454681,13.5590252 16.0214022,13.3432253 16.058615,13.1243475 L15.3309815,13.2526489 C15.2210362,13.2720352 15.1116357,13.2819958 15.0036282,13.2831164 C15.4533329,13.1247012 15.8186229,12.8137081 16.048198,12.4224188 C15.9615442,11.9870681 15.7269778,11.5812784 15.3665,11.2851199 C15.4676107,11.3231137 15.5670067,11.3698907 15.663691,11.4257114 L16.2844012,11.7840787 C16.3229986,11.5679226 16.3249389,11.3417392 16.2846684,11.1133538 C16.2455717,10.8916253 16.1697981,10.6854546 16.0645728,10.4998328 L15.6148127,11.0358359 C15.543051,11.1213582 15.4656479,11.1993097 15.3836296,11.2695941 C15.6182686,10.8727531 15.7007559,10.417366 15.6375675,9.98329801 C15.2848662,9.68235542 14.8259948,9.50753056 14.3387818,9.51258544 C14.3629362,9.50407669 14.3873341,9.49600813 14.4119676,9.48839094 C14.3325042,9.02919527 14.0957054,8.62483969 13.7599309,8.33443048 C13.3194204,8.32814872 12.8779529,8.47076838 12.5163151,8.75470378 C12.5276337,8.77252763 12.5386361,8.79048048 12.5493228,8.80855478 C12.5330607,8.79461916 12.5166171,8.78098496 12.5,8.76765292 C12.4833829,8.78098496 12.4669393,8.79461916 12.4506772,8.80855478 C12.4613639,8.79048048 12.4723663,8.77252763 12.4836849,8.75470378 C12.1220471,8.47076838 11.6805796,8.32814872 11.2400691,8.33443048 Z M11.8782898,7.96709362 L12.3592605,8.54029222 C12.410457,8.60130579 12.45736,8.66447788 12.5,8.72943551 C12.54264,8.66447788 12.589543,8.60130579 12.6407395,8.54029222 L13.1217102,7.96709362 C12.9265284,7.90030599 12.7174392,7.86409795 12.5,7.86409795 C12.2825608,7.86409795 12.0734716,7.90030599 11.8782898,7.96709362 Z M10.5588116,8.4685192 C10.3712417,8.54256085 10.1924357,8.64749895 10.0297331,8.78402266 C9.85208084,8.93309062 9.70817933,9.10760448 9.59880416,9.29799947 L10.3431862,9.4292541 C10.4253382,9.44373972 10.5054044,9.46306647 10.583136,9.48688377 C10.5671275,9.3852376 10.5588116,9.28099285 10.5588116,9.17478095 L10.5588116,8.4685192 Z M10.5588116,6.39460076 L10.5588116,1.96602449 C10.5588116,0.880219146 11.4279112,0 12.5,0 C13.5720888,0 14.4411884,0.880219146 14.4411884,1.96602449 L14.4411884,6.39460076 L17.2744388,3.0180644 C17.9723811,2.18628925 19.203944,2.07064875 20.0252116,2.75977412 C20.8464792,3.4488995 20.9464543,4.68183297 20.248512,5.51360812 L17.3633417,8.95202021 L21.7560531,8.17746668 C22.8253626,7.98891856 23.8431268,8.69196619 24.0292931,9.74776751 C24.2154593,10.8035688 23.4995303,11.8123134 22.4302208,12.0008615 L18.0098834,12.7802862 L21.9066572,15.0300897 C22.8469922,15.5729923 23.1747346,16.7657643 22.6386902,17.6942204 C22.1026458,18.6226765 20.9058038,18.9352293 19.9654688,18.3923266 L16.1302093,16.1780385 L17.6557819,20.3695149 C18.0271492,21.3898382 17.5115154,22.5142232 16.5040815,22.8808992 C15.4966476,23.2475751 14.3789084,22.7176893 14.0075411,21.697366 L12.5,17.555431 L10.9924589,21.697366 C10.6210916,22.7176893 9.50335243,23.2475751 8.49591853,22.8808992 C7.48848464,22.5142232 6.97285078,21.3898382 7.34421808,20.3695149 L8.86979073,16.1780385 L5.03453118,18.3923266 C4.09419617,18.9352293 2.8973542,18.6226765 2.36130982,17.6942204 C1.82526544,16.7657643 2.15300775,15.5729923 3.09334276,15.0300897 L6.99011663,12.7802862 L2.56977925,12.0008615 C1.50046973,11.8123134 0.784540661,10.8035688 0.970706921,9.74776751 C1.15687318,8.69196619 2.17463739,7.98891856 3.24394691,8.17746668 L7.63665829,8.95202021 L4.75148797,5.51360812 C4.05354575,4.68183297 4.15352075,3.4488995 4.97478839,2.75977412 C5.79605602,2.07064875 7.02761895,2.18628925 7.72556117,3.0180644 L10.5588116,6.39460076 Z M11.4668388,14.6639891 C11.4068174,14.7083151 11.3436744,14.7497411 11.2774974,14.7879484 L10.6196174,15.1677756 C10.784147,15.3036353 10.9740276,15.4140588 11.1855984,15.4910643 C11.3851828,15.5637071 11.5890963,15.6011614 11.7906781,15.6065851 L11.5420011,14.9233507 C11.5107405,14.8374629 11.485765,14.7508377 11.4668388,14.6639891 Z M13.2093219,15.6065851 C13.4109037,15.6011614 13.6148172,15.5637071 13.8144016,15.4910643 C14.0259724,15.4140588 14.215853,15.3036353 14.3803826,15.1677756 L13.7225026,14.7879484 C13.6563256,14.7497411 13.5931826,14.7083151 13.5331612,14.6639891 C13.514235,14.7508377 13.4892595,14.8374629 13.4579989,14.9233507 L13.2093219,15.6065851 Z M14.416864,9.48688377 C14.4945956,9.46306647 14.5746618,9.44373972 14.6568138,9.4292541 L15.4011958,9.29799947 C15.2918207,9.10760448 15.1479192,8.93309062 14.9702669,8.78402266 C14.8075643,8.64749895 14.6287583,8.54256085 14.4411884,8.4685192 L14.4411884,9.17478095 C14.4411884,9.28099285 14.4328725,9.3852376 14.416864,9.48688377 Z" id="Combined-Shape"></path>
                    </g>
                    <g id="Group-7" transform="translate(264.000000, 3.000000)">
                        <g id="Group-4" transform="translate(46.775507, 64.549768) rotate(-9.000000) translate(-46.775507, -64.549768) translate(8.775507, 6.049768)">
                            <g id="Group-3-Copy" transform="translate(38.182620, 39.905805) rotate(-10.000000) translate(-38.182620, -39.905805) translate(6.182620, 5.405805)">
                                <g id="Oval-2">
                                    <use fill="url(#radialGradient-5)" fill-rule="evenodd" xlink:href="#path-6"></use>
                                    <use fill="black" fill-opacity="1" filter="url(#filter-7)" xlink:href="#path-6"></use>
                                    <use stroke="#FFFFFF" stroke-width="0.7" xlink:href="#path-6"></use>
                                </g>
                            </g>
                            <path d="M45.2616213,72.9322488 C49.8619349,80.4860025 51.846258,86.227001 51.2145906,90.1552443 C50.5829231,94.0834876 47.7747052,102.935728 42.7899368,116.711966" id="Path-6" stroke="#E26DC0" stroke-width="0.7" stroke-linecap="round"></path>
                            <path d="M43.9439238,72.5140401 C39.57569,75.665789 37.8365021,79.336262 38.7263602,83.5254594 C39.6162183,87.7146568 42.5482296,98.201998 47.5223942,114.987483" id="Path-7" stroke="#7E99ED" stroke-width="0.7" stroke-linecap="round"></path>
                            <path d="M44.5957048,72.3826409 C42.8828337,72.2009083 41.4500028,73.0407806 40.2972123,74.9022577 L40.2972314,74.9022695 C39.890147,75.5596121 40.0930214,76.4225006 40.7503639,76.829585 C40.9530423,76.9551013 41.1844156,77.0267819 41.4225557,77.0378334 L47.0901838,77.3008677 C47.8625585,77.3367117 48.5177493,76.7396356 48.5535934,75.9672608 C48.5646799,75.728365 48.5143847,75.4906115 48.4075034,75.276671 C47.5319145,73.5240359 46.261315,72.5593592 44.5957048,72.3826409 Z" id="Path-3" stroke="#FFFFFF" stroke-width="0.7" fill="url(#linearGradient-8)"></path>
                        </g>
                        <g id="Group-3" transform="translate(57.917808, 18.764034)">
                            <path d="M30.4581798,68.2976182 C33.7638385,69.0504272 35.708591,71.6510954 36.2924372,76.0996226 C37.1682065,82.7724134 41.4851929,87.0233577 44.6176597,80.5818273 C47.7501265,74.1402969 54.0899649,72.1329994 55.8286559,79.9160587 C57.5673469,87.6991181 61.0005437,88.2730051 68.2045018,80.5818273 C75.4084599,72.8906495 92.4046037,90.2060724 92.4046037,108.749184" id="Path-4" stroke="#E26DC0" stroke-width="0.7" stroke-linecap="round"></path>
                            <path d="M27.5998129,71.0133183 C24.8479049,87.7870276 23.6721748,99.3314048 24.0745673,105.666383 C24.0865172,105.854514 24.2502496,105.997433 24.4402737,105.985602 C24.6302979,105.973771 25.360099,106.173733 25.3481491,105.985602 C24.9499691,99.7169423 25.5364394,87.8479758 28.2803915,71.1227602 C28.3109172,70.9366965 28.1833105,70.7613627 27.9953739,70.7311412 C27.8074374,70.7009197 27.6303386,70.8272547 27.5998129,71.0133183 Z" id="Path-5" fill="#E26DC0" fill-rule="nonzero"></path>
                            <path d="M30.1162528,68.2868827 C28.4033816,68.1051501 26.9705508,68.9450224 25.8177602,70.8064995 L25.8177794,70.8065113 C25.410695,71.4638539 25.6135693,72.3267424 26.2709119,72.7338268 C26.4735902,72.8593431 26.7049635,72.9310237 26.9431036,72.9420752 L32.6107317,73.2051095 C33.3831065,73.2409535 34.0382973,72.6438774 34.0741413,71.8715026 C34.0852279,71.6326068 34.0349326,71.3948534 33.9280513,71.1809129 C33.0524625,69.4282777 31.7818629,68.463601 30.1162528,68.2868827 Z" id="Path-3" stroke="#FFFFFF" stroke-width="0.7" fill="url(#linearGradient-9)"></path>
                            <path d="M31.716895,68.2626365 C47.5717295,68.2626365 63.43379,52.9815248 63.43379,34.1313183 C63.43379,15.2811117 49.2336524,0 31.716895,0 C14.2001376,0 0,15.2811117 0,34.1313183 C0,52.9815248 15.8620604,68.2626365 31.716895,68.2626365 Z" id="Oval-2" stroke="#FFFFFF" stroke-width="0.7" fill="url(#radialGradient-10)"></path>
                        </g>
                    </g>
                    <polygon id="Path-8-Copy" fill="#85FF00" transform="translate(259.500000, 69.500000) rotate(-34.000000) translate(-259.500000, -69.500000) " points="256 62 256 77 263 71.5371107 263 62"></polygon>
                    <rect id="Rectangle-3" fill="#F15400" transform="translate(246.000000, 22.000000) rotate(-44.000000) translate(-246.000000, -22.000000) " x="241" y="17" width="10" height="10"></rect>
                    <g id="Group-13" transform="translate(31.000000, 0.000000)">
                        <g id="Group-12" transform="translate(0.000000, 80.211340)">
                            <path d="M39.9596114,15.6854522 C35.0794223,14.2120137 31.0946994,12.9732112 28.0054427,11.9690449 C24.916186,10.9648786 19.0971964,8.92172518 10.5484741,5.83958474 L8.60627424,9.6858726 C8.25415408,10.2900851 8.11790373,10.6230996 8.19752319,10.6849161 C13.0728631,14.470125 18.1665842,16.6476332 21.9426303,18.6559808 C25.8111766,20.7135259 31.816837,23.4653486 39.9596114,26.9114488 L39.9596114,15.6854522 Z" id="Path-22" stroke="#882502" stroke-width="1.05" fill="#FFF6ED"></path>
                            <g id="Group-11" transform="translate(6.524909, 6.875642) scale(-1, 1) rotate(60.000000) translate(-6.524909, -6.875642) translate(1.524909, 2.375642)">
                                <path d="M5.36266651,0.0463361937 C9.50068746,0.246381781 11.0119865,4.28077241 8.0834841,7.13285885 C7.70257341,7.5038301 6.75762549,8.04444089 5.24864036,8.7546912 C4.23412311,8.65120674 3.56556543,8.5448255 3.24296733,8.43554748 C2.92036924,8.32626945 2.72917637,8.14141574 2.66938872,7.88098634 C1.43663435,2.22413075 2.33439361,-0.387419294 5.36266651,0.0463361937 Z" id="Path-35" stroke="#882502" stroke-width="1.05" fill="#FFF6ED"></path>
                                <polygon id="Rectangle-5" fill="#FFF6ED" points="2.13441796 3.19931271 5.33604489 3.19931271 4.63662634 7.78963844 2.74550795 7.60342526"></polygon>
                                <path d="M2.88897339,8.26106621 C0.593887227,7.27640923 -0.414657417,4.26417933 0.516496748,2.41742068 C1.08860071,1.28276654 2.38648677,0.953629099 4.41015495,1.43000836 L4.41016262,1.42997577 C5.09770052,1.59182483 5.52385552,2.28038902 5.36200646,2.96792692 C5.22602586,3.54557508 4.71054651,3.95379868 4.11710896,3.95379868 C4.11710896,3.95379868 4.11710896,3.95379868 4.11710896,3.95379868 C3.08904384,3.95379868 2.56007422,4.24735988 2.53020011,4.83448228" id="Path-36" stroke="#882502" stroke-width="1.05" fill="#FFF6ED" stroke-linecap="round"></path>
                                <path d="M7.47046285,1.06643757 C7.83726754,2.40254596 7.74703271,3.47681578 7.19975834,4.28924704" id="Path-23" stroke="#882502" stroke-width="1.05" stroke-linecap="round"></path>
                                <path d="M5.33604489,2.27373675e-13 C6.03545735,1.52387524 6.1115264,2.69202849 5.56425203,3.50445975" id="Path-23-Copy" stroke="#882502" stroke-width="1.05" stroke-linecap="round"></path>
                                <path d="M8.09284131,6.54019726 C6.56683752,4.9394022 5.53935851,4.24351323 5.01040428,4.45253036 C4.21697294,4.76605605 2.64779666,4.21393122 2.18605759,6.21218196 C1.87823154,7.54434912 2.94662856,8.27178988 5.39124863,8.39450425 L8.09284131,6.54019726 Z" id="Path-34" fill="#FFB56B" filter="url(#filter-11)"></path>
                            </g>
                        </g>
                        <g id="Group-12" transform="translate(115.132054, 74.984841) scale(-1, 1) rotate(33.000000) translate(-115.132054, -74.984841) translate(95.132054, 61.484841)">
                            <path d="M39.9596114,15.6854522 C35.0794223,14.2120137 31.0946994,12.9732112 28.0054427,11.9690449 C24.916186,10.9648786 19.0971964,8.92172518 10.5484741,5.83958474 L8.60627424,9.6858726 C8.25415408,10.2900851 8.11790373,10.6230996 8.19752319,10.6849161 C13.0728631,14.470125 18.1665842,16.6476332 21.9426303,18.6559808 C25.8111766,20.7135259 31.816837,23.4653486 39.9596114,26.9114488 L39.9596114,15.6854522 Z" id="Path-22" stroke="#882502" stroke-width="1.05" fill="#FFF6ED"></path>
                            <g id="Group-11" transform="translate(6.524909, 6.875642) scale(-1, 1) rotate(60.000000) translate(-6.524909, -6.875642) translate(1.524909, 2.375642)">
                                <path d="M5.36266651,0.0463361937 C9.50068746,0.246381781 11.0119865,4.28077241 8.0834841,7.13285885 C7.70257341,7.5038301 6.75762549,8.04444089 5.24864036,8.7546912 C4.23412311,8.65120674 3.56556543,8.5448255 3.24296733,8.43554748 C2.92036924,8.32626945 2.72917637,8.14141574 2.66938872,7.88098634 C1.43663435,2.22413075 2.33439361,-0.387419294 5.36266651,0.0463361937 Z" id="Path-35" stroke="#882502" stroke-width="1.05" fill="#FFF6ED"></path>
                                <polygon id="Rectangle-5" fill="#FFF6ED" points="2.13441796 3.19931271 5.33604489 3.19931271 4.63662634 7.78963844 2.74550795 7.60342526"></polygon>
                                <path d="M2.88897339,8.26106621 C0.593887227,7.27640923 -0.414657417,4.26417933 0.516496748,2.41742068 C1.10456061,1.25111326 2.37649992,1.00032568 4.33231469,1.66505796 L4.33229266,1.66512278 C4.54673943,1.73800785 4.71266215,1.91015639 4.77760209,2.12714131 C5.16768186,3.43052139 4.88856659,4.08221144 3.9402563,4.08221144 C2.91219118,4.08221144 2.44217245,4.33296838 2.53020011,4.83448228" id="Path-36" stroke="#882502" stroke-width="1.05" fill="#FFF6ED" stroke-linecap="round"></path>
                                <path d="M7.47046285,1.06643757 C7.83726754,2.40254596 7.74703271,3.47681578 7.19975834,4.28924704" id="Path-23" stroke="#882502" stroke-width="1.05" stroke-linecap="round"></path>
                                <path d="M5.33604489,2.27373675e-13 C6.03545735,1.52387524 6.1115264,2.69202849 5.56425203,3.50445975" id="Path-23-Copy" stroke="#882502" stroke-width="1.05" stroke-linecap="round"></path>
                                <path d="M8.09284131,6.54019726 C6.56683752,4.9394022 5.53935851,4.24351323 5.01040428,4.45253036 C4.21697294,4.76605605 2.64779666,4.21393122 2.18605759,6.21218196 C1.87823154,7.54434912 2.94662856,8.27178988 5.39124863,8.39450425 L8.09284131,6.54019726 Z" id="Path-34" fill="#FFB56B" filter="url(#filter-12)"></path>
                            </g>
                        </g>
                        <g id="Group-10-Copy" transform="translate(4.824023, 0.000000)">
                            <path d="M52.2034127,95.98033 L49.7261799,97.3663369 L35.087523,94.914252 L33.1685156,107.008692 C35.409518,107.864944 37.107131,108.387894 38.2613548,108.577541 C39.4155785,108.767189 42.0677164,108.958934 46.2177684,109.152778 C45.4328025,115.728895 45.5881459,121.937103 46.6837985,127.777401 C48.3272774,136.537848 91.3205937,131.99983 95.9196103,126.351712 C100.518627,120.703594 94.9073536,110.465623 92.333852,107.008692 C98.1600561,101.50446 101.148585,98.2903415 101.299439,97.3663369 C96.7348507,90.9809735 94.4525566,87.7882918 94.4525566,87.7882918 L83.108692,93.8459154 L79.0729356,92.3591498" id="Path-26" stroke="#882502" stroke-width="1.26" fill="#FFF55D"></path>
                            <path d="M57.0123425,96.7643932 C59.3249381,99.9369405 63.0088023,101.40812 68.0639349,101.177932 C73.1190676,100.947743 76.3956117,97.6789355 77.8935671,91.3715079 L57.0123425,96.7643932 Z" id="Path-37" stroke="#882502" stroke-width="0.7" fill="#FFF6ED"></path>
                            <path d="M7.10974119,58.5521334 C7.10974119,59.0724415 7.19753604,59.769774 7.37295795,60.6118844 C9.33420075,70.0268017 24.2732543,91.8249488 47.5481838,95.6066962 C71.7008658,99.5310623 94.1859788,88.6194566 97.4488427,74.5791107 C100.711706,60.5387647 95.6005883,51.5200002 96.1602956,46.0957545 C96.7200029,40.6715087 96.4025101,14.0871364 73.1874216,11.214148 C49.972333,8.34115955 22.8052413,8.90452122 12.8088142,33.7283273 C2.81238702,58.5521334 7.10974119,52.2147048 7.10974119,58.5521334 Z" id="Path-24" stroke="#A1512F" stroke-width="1.26" fill="#FFF6ED"></path>
                            <path d="M42.0915809,59.8788932 C45.1362298,60.0615231 47.3634177,60.7070864 48.7731445,61.8155833 C44.4482305,62.3913554 41.7173607,63.5456193 40.5805351,65.2783749" id="Path-15" stroke="#393939" stroke-width="1.4" stroke-linecap="round" transform="translate(44.676840, 62.578634) rotate(-28.000000) translate(-44.676840, -62.578634) "></path>
                            <path d="M76.3859134,50.2393428 C79.4305623,50.4219726 81.6577501,51.067536 83.067477,52.1760328 C78.742563,52.751805 76.0116932,53.9060689 74.8748675,55.6388245" id="Path-15" stroke="#393939" stroke-width="1.4" stroke-linecap="round" transform="translate(78.971172, 52.939084) scale(-1, 1) rotate(27.000000) translate(-78.971172, -52.939084) "></path>
                            <ellipse id="Oval-6" fill="url(#radialGradient-13)" cx="42.1928692" cy="77.1262887" rx="7.2036606" ry="7.19845361"></ellipse>
                            <ellipse id="Oval-6-Copy-2" fill="url(#radialGradient-14)" cx="91.9324305" cy="64.443299" rx="6.17456623" ry="6.17010309"></ellipse>
                            <path d="" id="Path-27" stroke="#979797" stroke-width="1.26"></path>
                            <path d="M41.5180253,29.52226 C42.1584233,33.6247944 47.4617866,38.4158663 57.4281152,43.8954757 C65.518992,38.4814596 69.5644305,33.6903877 69.5644305,29.52226 L73.8523945,41.3711039 C77.489234,33.8827722 79.3076537,28.7606736 79.3076537,26.0048081 L89.2934443,39.2813199 L91.5545561,35.7213708 L96.2524543,45.6156175 C97.3310724,42.3609518 97.8963161,39.9241855 97.9481853,38.3053185 C98.0259891,35.8770179 97.9481853,32.4990813 96.2524543,26.0048081 C94.5567233,19.510535 86.1375928,12.1240068 84.1599014,10.8556126 C82.18221,9.5872183 78.4891874,6.27989055 71.1768676,3.71082364 C63.8645478,1.14175673 50.6610339,-1.18739659 37.4802514,1.2907754 C24.2994689,3.76894738 16.9079937,8.75859224 11.0495165,14.8203621 C5.19103936,20.882132 0.751192852,29.125564 0.445475038,39.2813199 C0.3475064,42.5357771 -0.472274869,50.7563899 3.93661446,60.3885641 C4.83569248,62.3527949 8.32399555,67.2056907 14.4015237,74.9472517 C12.8755192,61.5106864 13.5346171,53.3546235 16.3788172,50.479063 C18.6898634,57.5991429 19.8453865,61.1591828 19.8453865,61.1591828 C19.7057438,49.1255756 21.8695063,41.2481937 26.3366742,37.527037 L39.1573732,43.8954757 C37.5494662,38.3993279 38.3363502,33.608256 41.5180253,29.52226 Z" id="Path-28" stroke="#4A4A4A" stroke-width="1.26" fill="#202020"></path>
                            <path d="M9.23753303,33.4293864 C6.43285843,37.1066931 4.96807019,41.2439931 4.84316833,45.8412864 C4.71826647,50.4385797 5.45066059,54.9764764 7.04035068,59.4549766 C8.90754895,53.1843869 10.5894668,48.6464902 12.0861044,45.8412864 C13.5827419,43.0360826 16.0016032,39.8877353 19.3426884,36.3962443" id="Path-29" fill="#373737" transform="translate(12.086104, 46.442182) rotate(-11.000000) translate(-12.086104, -46.442182) "></path>
                            <path d="M86.369654,14.775424 C82.8646842,18.4916012 81.0639567,22.1253662 80.9674716,25.6767191 C80.8709864,29.2280719 81.4367519,32.7335417 82.6647681,36.1931283 C83.1347968,29.8442657 83.9478782,25.5863416 85.1040124,23.419356 C86.2601466,21.2523704 88.5636325,17.9022619 92.0144703,13.3690306 L86.369654,14.775424 Z" id="Path-29-Copy" fill="#373737" transform="translate(86.485699, 24.781079) scale(-1, 1) rotate(14.000000) translate(-86.485699, -24.781079) "></path>
                            <path d="M71.2353409,47.1430933 C73.0527207,43.4513804 75.5537618,41.7947196 78.7384641,42.1731107" id="Path-30" stroke="#090909" stroke-width="1.26" stroke-linecap="round" transform="translate(74.986903, 44.631718) rotate(17.000000) translate(-74.986903, -44.631718) "></path>
                            <path d="M36.9387034,54.1007152 C38.7560831,50.4090023 41.2571242,48.7523415 44.4418265,49.1307326" id="Path-30-Copy" stroke="#090909" stroke-width="1.26" stroke-linecap="round" transform="translate(40.690265, 51.589340) scale(-1, 1) rotate(48.000000) translate(-40.690265, -51.589340) "></path>
                            <path d="M61.9836902,66.8987941 C62.649115,65.0462966 63.5470201,63.9763878 64.6774056,63.6890677 C66.3382375,63.2669192 67.6479584,64.4333475 68.3685884,65.7037763" id="Path-31" stroke="#E69797" stroke-width="1.26" stroke-linecap="round" transform="translate(65.176139, 65.249936) rotate(-10.000000) translate(-65.176139, -65.249936) "></path>
                            <g id="Path-33" transform="translate(66.044106, 77.262565) rotate(6.000000) translate(-66.044106, -77.262565) translate(49.044106, 65.762565)">
                                <mask id="mask-16" fill="white">
                                    <use xlink:href="#path-15"></use>
                                </mask>
                                <g id="Mask">
                                    <use fill="#8E1912" fill-rule="evenodd" xlink:href="#path-15"></use>
                                    <path stroke="#8E1912" stroke-width="1.26" d="M0.767331028,7.23561306 C15.4514852,8.75352933 25.7448524,6.18840605 31.6974019,-0.400517767 L32.4180894,-1.1982525 L32.7618138,-0.179613795 C35.7034751,8.53809748 35.0072718,14.8529941 30.5735273,18.6534046 C24.5108264,23.8500847 16.9540234,24.0243335 10.3665571,19.9273654 C6.41866693,17.4720389 3.01392531,13.5450455 0.146437122,8.15830719 L-0.409491623,7.11396368 L0.767331028,7.23561306 Z"></path>
                                </g>
                                <path d="M6.53942591,20.0990565 C7.0323831,13.6354779 8.87330754,10.0689394 12.0621992,9.39944122 C13.5761717,9.08158725 19.2628165,6.51378939 21.57926,5.57245422 C27.4690599,3.17901111 32.0229878,5.93449101 33.7517346,12.7629447 C35.2419389,18.6491691 30.7065541,22.4525836 20.1455802,24.1731882 C13.3049498,24.5697925 9.22237568,24.5697925 7.8978579,24.1731882 C6.57334011,23.7765838 6.12052945,22.4185399 6.53942591,20.0990565 Z" id="Path-32" fill="#CB2109" mask="url(#mask-16)"></path>
                                <path d="M8.00347256,8.98940611 L8.00347256,8.98940611 C8.00347256,9.98711071 8.81227194,10.7959101 9.80997655,10.7959101 C9.83845635,10.7959101 9.86693218,10.7952366 9.89538014,10.7938902 C16.6344561,10.47491 21.9061757,9.34419664 25.7105375,7.40172069 C29.8639347,5.28103013 31.2530307,3.61823388 29.8778253,2.41333196 L8.00347256,8.47890916 L8.00347256,8.98940611 Z" fill="#FFFFFF" mask="url(#mask-16)"></path>
                            </g>
                        </g>
                        <path d="M23.0618168,70.0293251 C19.150046,66.4991946 16.6086639,66.4991946 15.4376705,70.0293251 C13.6811803,75.3245207 19.5915639,82.4597121 23.0618168,78.6440707" id="Path-21" stroke="#393939" stroke-width="0.7" fill="#FFF6ED" stroke-linecap="round" transform="translate(19.090224, 73.551830) rotate(-14.000000) translate(-19.090224, -73.551830) "></path>
                        <path d="M19.9905695,71.9845361 C21.5203536,72.0772894 22.6394044,72.4051557 23.3477218,72.9681348 C21.1746683,73.2605557 19.8025425,73.8467789 19.2313443,74.7268041" id="Path-15-Copy-2" stroke="#777777" stroke-width="0.7" stroke-linecap="round" transform="translate(21.289533, 73.355670) rotate(-28.000000) translate(-21.289533, -73.355670) "></path>
                    </g>
                </g>
            </g>
        </g>
    </g>
</svg>