<?xml version="1.0" encoding="UTF-8" standalone="no"?>
<svg width="19px" height="19px" viewBox="0 0 19 19" version="1.1" xmlns="http://www.w3.org/2000/svg" xmlns:xlink="http://www.w3.org/1999/xlink">
    <!-- Generator: Sketch 49.3 (51167) - http://www.bohemiancoding.com/sketch -->
    <title></title>
    <desc>Created with Sketch.</desc>
    <defs></defs>
    <g id="Page-1" stroke="none" stroke-width="1" fill="none" fill-rule="evenodd">
        <g id="19-copy" transform="translate(-16.000000, -81.000000)" fill="#FA9003">
            <path d="M35,90.5 C35,92.2110217 34.5722444,93.7943548 33.7167339,95.25 C32.8612233,96.7056452 31.7056452,97.8612233 30.25,98.7167339 C28.7943548,99.5722444 27.2110217,100 25.5,100 C23.7889783,100 22.2056452,99.5722444 20.75,98.7167339 C19.2943548,97.8612233 18.1387767,96.7056452 17.2832661,95.25 C16.4277556,93.7943548 16,92.2110217 16,90.5 C16,88.7889783 16.4277556,87.2056452 17.2832661,85.75 C18.1387767,84.2943548 19.2943548,83.1387767 20.75,82.2832661 C22.2056452,81.4277556 23.7889783,81 25.5,81 C27.2110217,81 28.7943548,81.4277556 30.25,82.2832661 C31.7056452,83.1387767 32.8612233,84.2943548 33.7167339,85.75 C34.5722444,87.2056452 35,88.7889783 35,90.5 Z M25.7681452,84.141129 C24.7466396,84.141129 23.8655912,84.3581991 23.125,84.7923387 C22.4354839,85.1754032 21.8225806,85.7755378 21.2862903,86.5927419 C21.2096774,86.6948927 21.1841396,86.8034274 21.2096774,86.9183468 C21.2352152,87.0332661 21.2990589,87.1290323 21.4012097,87.2056452 L22.7419355,88.2016129 C22.8185484,88.2782258 22.9206991,88.3101477 23.0483871,88.297379 C23.1760751,88.2846104 23.2782258,88.2271507 23.3548387,88.125 C23.7634411,87.6397848 24.0826613,87.3077959 24.3125,87.1290323 C24.6700267,86.8736557 25.078629,86.7459677 25.5383065,86.7459677 C25.972446,86.7459677 26.3746638,86.8672717 26.7449597,87.109879 C27.1152556,87.3524864 27.3004032,87.652554 27.3004032,88.0100806 C27.3004032,88.2909944 27.1854839,88.5336023 26.9556452,88.7379032 C26.8024194,88.8655912 26.5087364,89.0571235 26.0745968,89.3125 L25.9979839,89.3508065 C25.3595428,89.7083331 24.9126346,90.027554 24.6572581,90.3084677 C24.1975806,90.793683 23.9677419,91.3682798 23.9677419,92.0322581 L23.9677419,92.1854839 C23.9677419,92.3131718 24.012433,92.4217072 24.1018145,92.5110887 C24.191196,92.6004702 24.2997314,92.6451613 24.4274194,92.6451613 L26.5725806,92.6451613 C26.7002686,92.6451613 26.808804,92.6004702 26.8981855,92.5110887 C26.987567,92.4217072 27.0322581,92.3131718 27.0322581,92.1854839 L27.0322581,92.1471774 C27.0322581,91.9428765 27.1344088,91.7641129 27.3387097,91.6108871 C27.4663977,91.5087364 27.7090056,91.3555106 28.0665323,91.1512097 C28.7305106,90.7426073 29.2029572,90.3850806 29.483871,90.078629 C29.9690862,89.5423387 30.2116935,88.8655912 30.2116935,88.0483871 C30.2116935,87.3333331 29.9946235,86.6757394 29.5604839,86.0756048 C29.1263443,85.4754702 28.5645161,85.0030242 27.875,84.6582661 C27.1854839,84.3135081 26.4831991,84.141129 25.7681452,84.141129 Z M25.5,93.641129 C25.0147848,93.641129 24.5997984,93.8135081 24.2550403,94.1582661 C23.9102823,94.5030242 23.7379032,94.9180106 23.7379032,95.4032258 C23.7379032,95.8884411 23.9102823,96.3034274 24.2550403,96.6481855 C24.5997984,96.9929435 25.0147848,97.1653226 25.5,97.1653226 C25.9852152,97.1653226 26.4002016,96.9929435 26.7449597,96.6481855 C27.0897177,96.3034274 27.2620968,95.8884411 27.2620968,95.4032258 C27.2620968,94.9180106 27.0897177,94.5030242 26.7449597,94.1582661 C26.4002016,93.8135081 25.9852152,93.641129 25.5,93.641129 Z" id=""></path>
        </g>
    </g>
</svg>