<?xml version="1.0" encoding="UTF-8" standalone="no"?>
<svg width="35px" height="40px" viewBox="0 0 35 40" version="1.1" xmlns="http://www.w3.org/2000/svg" xmlns:xlink="http://www.w3.org/1999/xlink">
    <!-- Generator: Sketch 49.3 (51167) - http://www.bohemiancoding.com/sketch -->
    <title>Slice 2</title>
    <desc>Created with Sketch.</desc>
    <defs>
        <linearGradient x1="46.394852%" y1="1.27501871%" x2="53.605148%" y2="101.275019%" id="linearGradient-1">
            <stop stop-color="#A65F2A" offset="0%"></stop>
            <stop stop-color="#CB9761" stop-opacity="0" offset="100%"></stop>
        </linearGradient>
        <filter x="-48.0%" y="-18.8%" width="196.0%" height="137.7%" filterUnits="objectBoundingBox" id="filter-2">
            <feGaussianBlur stdDeviation="0.889246618" in="SourceGraphic"></feGaussianBlur>
        </filter>
        <linearGradient x1="0%" y1="54.8801667%" x2="100%" y2="47.6698707%" id="linearGradient-3">
            <stop stop-color="#BA7435" stop-opacity="0.411316803" offset="0%"></stop>
            <stop stop-color="#B07E2A" stop-opacity="0" offset="100%"></stop>
        </linearGradient>
        <linearGradient x1="0%" y1="54.8801667%" x2="100%" y2="47.6698707%" id="linearGradient-4">
            <stop stop-color="#BF9572" offset="0%"></stop>
            <stop stop-color="#C16E36" stop-opacity="0" offset="100%"></stop>
        </linearGradient>
        <linearGradient x1="0%" y1="54.8801667%" x2="99.0764993%" y2="47.7364579%" id="linearGradient-5">
            <stop stop-color="#CD6B2E" offset="0%"></stop>
            <stop stop-color="#894F2C" stop-opacity="0" offset="100%"></stop>
        </linearGradient>
        <radialGradient cx="50%" cy="50%" fx="50%" fy="50%" r="50%" gradientTransform="translate(0.500000,0.500000),scale(0.995146,1.000000),rotate(90.000000),translate(-0.500000,-0.500000)" id="radialGradient-6">
            <stop stop-color="#FFFFFF" offset="0%"></stop>
            <stop stop-color="#FFFFFF" stop-opacity="0" offset="100%"></stop>
        </radialGradient>
        <filter x="-7.4%" y="-7.5%" width="114.8%" height="114.9%" filterUnits="objectBoundingBox" id="filter-7">
            <feGaussianBlur stdDeviation="0.171414335" in="SourceGraphic"></feGaussianBlur>
        </filter>
        <linearGradient x1="50%" y1="0%" x2="50%" y2="100%" id="linearGradient-8">
            <stop stop-color="#FFCA6E" offset="0%"></stop>
            <stop stop-color="#FFD336" offset="100%"></stop>
        </linearGradient>
        <linearGradient x1="50%" y1="3.45014451%" x2="50%" y2="97.4471667%" id="linearGradient-9">
            <stop stop-color="#FFD571" offset="0%"></stop>
            <stop stop-color="#FFBF51" offset="100%"></stop>
        </linearGradient>
        <linearGradient x1="50%" y1="0%" x2="50%" y2="95.4068078%" id="linearGradient-10">
            <stop stop-color="#FFC333" offset="0%"></stop>
            <stop stop-color="#FADF9F" offset="44.2960778%"></stop>
            <stop stop-color="#FFC438" offset="100%"></stop>
        </linearGradient>
        <linearGradient x1="0%" y1="43.8833249%" x2="86.4020971%" y2="45.4108575%" id="linearGradient-11">
            <stop stop-color="#CBA47D" stop-opacity="0" offset="0%"></stop>
            <stop stop-color="#D3913A" stop-opacity="0.229138361" offset="100%"></stop>
        </linearGradient>
        <linearGradient x1="50%" y1="0%" x2="50%" y2="100%" id="linearGradient-12">
            <stop stop-color="#FFB708" offset="0%"></stop>
            <stop stop-color="#FFC02B" offset="16.8526786%"></stop>
            <stop stop-color="#FCCF64" offset="30.341199%"></stop>
            <stop stop-color="#FFD879" offset="50.263074%"></stop>
            <stop stop-color="#FFB608" offset="100%"></stop>
        </linearGradient>
        <path d="M15.2515402,2.8927943 L15.2515402,2.8927943 C16.0412146,2.8927943 16.6813721,3.53295185 16.6813721,4.3226262 L16.6813721,17.1958079 L13.8217083,17.1958079 L13.8217083,4.3226262 C13.8217083,3.53295185 14.4618659,2.8927943 15.2515402,2.8927943 Z" id="path-13"></path>
        <filter x="-17.5%" y="-3.5%" width="135.0%" height="107.0%" filterUnits="objectBoundingBox" id="filter-14">
            <feGaussianBlur stdDeviation="0.5" in="SourceAlpha" result="shadowBlurInner1"></feGaussianBlur>
            <feOffset dx="0" dy="0" in="shadowBlurInner1" result="shadowOffsetInner1"></feOffset>
            <feComposite in="shadowOffsetInner1" in2="SourceAlpha" operator="arithmetic" k2="-1" k3="1" result="shadowInnerInner1"></feComposite>
            <feColorMatrix values="0 0 0 0 1   0 0 0 0 1   0 0 0 0 1  0 0 0 0.5 0" type="matrix" in="shadowInnerInner1"></feColorMatrix>
        </filter>
        <linearGradient x1="1.6348818%" y1="75.7762085%" x2="98.0259874%" y2="75.7762074%" id="linearGradient-15">
            <stop stop-color="#DFAC2F" offset="0%"></stop>
            <stop stop-color="#EAC05C" offset="52.1440969%"></stop>
            <stop stop-color="#D4A32B" offset="100%"></stop>
        </linearGradient>
        <linearGradient x1="95.0310549%" y1="75.7762075%" x2="1.6348818%" y2="75.7762085%" id="linearGradient-16">
            <stop stop-color="#FFC946" offset="0%"></stop>
            <stop stop-color="#FFDF90" offset="52.1440969%"></stop>
            <stop stop-color="#FFCA49" offset="100%"></stop>
        </linearGradient>
    </defs>
    <g id="Page-1" stroke="none" stroke-width="1" fill="none" fill-rule="evenodd">
        <g id="Group-6-Copy-2" transform="translate(2.000000, 7.000000)">
            <path d="M15.8736317,5.93625375 C21.4431816,10.8458246 20.8497272,15.5689674 14.0932686,20.1056822 C15.2531768,11.0123884 15.8466312,6.28924554 15.8736317,5.93625375 Z" id="Path-9" fill="url(#linearGradient-1)" opacity="0.100000001" filter="url(#filter-2)"></path>
            <path d="M10.5689964,5.73097915 C14.0115437,6.02603683 15.3736444,10.3916575 14.6552983,18.8278411 C12.0881933,18.3936441 9.91453959,16.4899723 8.13433726,13.1168256 C5.96392238,9.00429989 8.69242948,6.30343688 10.5689964,5.73097915 Z" id="Path-9-Copy" fill="url(#linearGradient-3)" opacity="0.100000001"></path>
            <path d="M4.03334382,6.86051609 C5.45874717,11.779205 6.74229968,16.1422212 7.88400136,19.9495649 C5.31689633,19.5153679 3.14324266,17.6116961 1.36304033,14.2385494 C-0.807374547,10.1260237 4.01258347,7.13192671 4.03334382,6.86051609 Z" id="Path-9-Copy-2" fill="url(#linearGradient-4)" opacity="0.100000001"></path>
            <path d="M25.0996009,7.23442403 C26.5250043,12.1531129 27.8085568,16.5161292 28.9502585,20.3234728 C26.3831535,19.8892759 24.2094998,17.985604 22.4292975,14.6124573 C20.2588826,10.4999316 25.0788406,7.50583465 25.0996009,7.23442403 Z" id="Path-9-Copy-3" fill="url(#linearGradient-5)" opacity="0.100000001" transform="translate(25.409020, 13.778948) scale(-1, 1) translate(-25.409020, -13.778948) "></path>
            <ellipse id="Oval-3" fill="url(#radialGradient-6)" opacity="0.428579757" filter="url(#filter-7)" cx="15.2845768" cy="3.94072014" rx="3.46625914" ry="3.4494324"></ellipse>
            <g id="Group-5-Copy" transform="translate(0.033037, 1.457129)">
                <g id="Group-3" transform="translate(11.822159, 0.000000)" fill="url(#linearGradient-8)">
                    <g id="Group-2" transform="translate(1.795288, 0.000000)">
                        <path d="M1.6340936,2.77624679 L3.03432367,0.397322924 C3.10844159,0.271400124 3.06570944,0.109665189 2.93887873,0.0360778351 C2.89815753,0.0124513378 2.85184103,0 2.80467636,0 L0.463510829,3.23426315e-16 C0.316611222,3.23426315e-16 0.197525562,0.118233195 0.197525562,0.264081233 C0.197525562,0.310908277 0.210066674,0.356893224 0.233863519,0.397322924 L1.6340936,2.77624679 Z" id="Triangle-Copy"></path>
                        <path d="M1.6340936,2.37964011 L3.01763384,5.20685604 C3.08183063,5.33803993 3.0267601,5.49605474 2.89463037,5.55979198 C2.85840829,5.57726493 2.81866289,5.58634376 2.77839179,5.58634376 L0.473821987,5.58634376 C0.326922381,5.58634376 0.20783672,5.46811057 0.20783672,5.32226253 C0.20783672,5.28187584 0.217166621,5.2420272 0.235108838,5.20578146 L1.6340936,2.37964011 Z" id="Triangle-Copy"></path>
                    </g>
                    <g transform="translate(3.091329, 3.140555) rotate(-270.000000) translate(-3.091329, -3.140555) translate(0.890702, 0.227390)" id="Group-2">
                        <g>
                            <path d="M1.6340936,2.77624679 L3.03283679,0.399849065 C3.10733869,0.273273904 3.06462443,0.110561926 2.93743182,0.0364216915 C2.89651549,0.0125716728 2.84995289,0 2.8025342,0 L0.465652995,0 C0.318247116,0 0.198751041,0.118915989 0.198751041,0.265606295 C0.198751041,0.312794796 0.21138404,0.359131364 0.235350401,0.399849065 L1.6340936,2.77624679 Z" id="Triangle-Copy"></path>
                            <path d="M1.6340936,2.37964011 L3.02921765,4.74988909 C3.10467905,4.8780944 3.06192167,5.04319889 2.93371636,5.11866029 C2.89230691,5.14303381 2.84513148,5.1558869 2.7970814,5.1558869 L0.471105792,5.1558869 C0.322340793,5.1558869 0.201742934,5.03528904 0.201742934,4.88652404 C0.201742934,4.83847396 0.214596023,4.79129853 0.238969543,4.74988909 L1.6340936,2.37964011 Z" id="Triangle-Copy"></path>
                        </g>
                    </g>
                </g>
                <g id="Group" transform="translate(0.000000, 2.608472)">
                    <path d="M7.34798356,2.72360614 C4.35396526,1.74782842 1.14179042,3.19190495 0.382647982,6.40705869 C-0.38674697,9.66563436 1.88711411,13.4957441 6.97622534,18.0400731 C7.46341873,18.4751131 8.21697594,18.4393756 8.65934245,17.9602512 C9.10170897,17.4811267 9.06536961,16.7400499 8.57817621,16.3050099 C4.07260602,12.2817546 2.19053006,9.11157089 2.70394246,6.93714392 C3.12357711,5.15988861 4.85688173,4.38065815 6.59833783,4.94821448 C7.22299201,5.15179495 7.89718818,4.81883398 8.10419713,4.20452535 C8.31120608,3.59021672 7.97263773,2.9271866 7.34798356,2.72360614 Z" id="Path-2-Copy-3" fill="url(#linearGradient-9)" fill-rule="nonzero"></path>
                    <path d="M2.52349332,3.26097026 C4.50997877,2.07492931 6.95456658,2.19998106 8.68162398,3.35718313 C6.4644768,2.26253843 4.53974976,2.32471319 2.52349332,3.26097026 Z" id="Path-11" fill="#FFFFFF" opacity="0.571245336"></path>
                    <path d="M28.522662,2.61263462 C25.6079375,1.87735928 22.6647366,3.34522964 21.9417963,6.40705869 C21.1877719,9.60053633 23.3574446,13.341621 28.2265997,17.7620805 C28.7101311,18.2010542 29.4639622,18.171425 29.9103286,17.6959019 C30.356695,17.2203788 30.3265668,16.4790327 29.8430354,16.040059 C25.5467546,12.1396831 23.7615113,9.06145553 24.2630907,6.93714392 C24.6634273,5.24162092 26.2387612,4.45595045 27.9305528,4.8827258 C28.5679782,5.04352426 29.2172618,4.66569995 29.3807682,4.03883158 C29.5442747,3.41196321 29.1600874,2.77343308 28.522662,2.61263462 Z" id="Path-2-Copy-2" fill="url(#linearGradient-9)" fill-rule="nonzero" transform="translate(26.010907, 10.249263) scale(-1, 1) translate(-26.010907, -10.249263) "></path>
                    <path d="M21.7088346,3.26097026 C23.6953201,2.07492931 26.1399079,2.19998106 27.8669653,3.35718313 C25.6498181,2.26253843 23.7250911,2.32471319 21.7088346,3.26097026 Z" id="Path-11" fill="#FFFFFF" opacity="0.571245336" transform="translate(24.787900, 2.892794) scale(-1, 1) translate(-24.787900, -2.892794) "></path>
                    <path d="M16.1284595,5.55201892 C16.1284595,-0.382570279 7.02567899,-1.39848154 5.62536494,4.53219073 C4.77442317,8.13613708 7.6426921,12.4508068 13.9880528,17.6804812 C14.4924174,18.0961648 15.2439389,18.0310464 15.6666231,17.5350351 C16.0893072,17.0390238 16.0230921,16.299949 15.5187275,15.8842654 C9.81291575,11.1816899 7.36959936,7.50626632 7.94665941,5.06227596 C8.70643535,1.84443914 13.7454063,2.40681097 13.7454063,5.55201892 C13.7454063,6.19918203 14.2788709,6.72381139 14.9369329,6.72381139 C15.5949948,6.72381139 16.1284595,6.19918203 16.1284595,5.55201892 Z" id="Path-2" fill="#D1AA69" fill-rule="nonzero"></path>
                    <path d="M16.1284595,5.55201892 C16.1284595,-0.382570279 7.02567899,-1.39848154 5.62536494,4.53219073 C4.77442317,8.13613708 7.6426921,12.4508068 13.9880528,17.6804812 C14.4924174,18.0961648 15.2439389,18.0310464 15.6666231,17.5350351 C16.0893072,17.0390238 16.0230921,16.299949 15.5187275,15.8842654 C9.81291575,11.1816899 7.36959936,7.50626632 7.94665941,5.06227596 C8.70643535,1.84443914 13.7454063,2.40681097 13.7454063,5.55201892 C13.7454063,6.19918203 14.2788709,6.72381139 14.9369329,6.72381139 C15.5949948,6.72381139 16.1284595,6.19918203 16.1284595,5.55201892 Z" id="Path-2" fill="url(#linearGradient-10)" fill-rule="nonzero"></path>
                    <path d="M24.9836272,5.55201892 C24.9836272,-0.382570279 15.8808467,-1.39848154 14.4805327,4.53219073 C13.633755,8.11850107 16.4699575,12.4079142 22.7474923,17.6014344 C23.2510631,18.0180478 24.0027075,17.9543159 24.426337,17.4590853 C24.8499666,16.9638547 24.7851614,16.224659 24.2815906,15.8080456 C18.6407569,11.1412799 16.2280517,7.49235524 16.8018271,5.06227596 C17.5616031,1.84443914 22.600574,2.40681097 22.600574,5.55201892 C22.600574,6.19918203 23.1340387,6.72381139 23.7921006,6.72381139 C24.4501626,6.72381139 24.9836272,6.19918203 24.9836272,5.55201892 Z" id="Path-2-Copy" fill="url(#linearGradient-10)" fill-rule="nonzero" transform="translate(19.658887, 9.218302) scale(-1, 1) translate(-19.658887, -9.218302) "></path>
                    <path d="M14.5550174,14.7947403 C12.5863751,14.3059714 9.25991415,7.56480746 10.7740993,16.1443691 C11.2350444,17.8500636 14.2328246,17.1718467 15.2463933,17.1718467 C15.1272872,17.3322639 16.3066498,16.6607979 14.5550174,14.7947403 Z" id="Path-10" fill="url(#linearGradient-11)" opacity="0.343108675"></path>
                    <path d="M18.8355133,14.8913103 C16.866871,14.4025414 13.5404101,7.66137746 15.0545952,16.2409391 C15.5155403,17.9466336 18.5133205,17.2684167 19.5268892,17.2684167 C19.4077832,17.4288339 20.5871457,16.7573679 18.8355133,14.8913103 Z" id="Path-10" fill="url(#linearGradient-11)" opacity="0.343108675" transform="translate(17.238413, 14.657321) scale(-1, 1) translate(-17.238413, -14.657321) "></path>
                    <g id="Rectangle-7">
                        <use fill="url(#linearGradient-12)" fill-rule="evenodd" xlink:href="#path-13"></use>
                        <use fill="black" fill-opacity="1" filter="url(#filter-14)" xlink:href="#path-13"></use>
                    </g>
                    <path d="M7.79005759,1.39143056 C9.77654305,0.205389612 12.2211309,0.330441364 13.9481883,1.48764343 C11.7310411,0.392998735 9.80631404,0.455173493 7.79005759,1.39143056 Z" id="Path-11" fill="#FFFFFF" opacity="0.571245336"></path>
                    <path d="M16.4422703,1.39143056 C18.4287558,0.205389612 20.8733436,0.330441364 22.600401,1.48764343 C20.3832538,0.392998735 18.4585268,0.455173493 16.4422703,1.39143056 Z" id="Path-11" fill="#FFFFFF" opacity="0.571245336" transform="translate(19.521336, 1.023255) scale(-1, 1) translate(-19.521336, -1.023255) "></path>
                </g>
                <g id="Group-4" transform="translate(5.242717, 18.398129)">
                    <path d="M0.481856622,2.96152921 C0.422306358,2.50320865 0.869748233,2.29983553 1.82418225,2.35140983 C3.56871069,2.44567809 5.72758814,2.88278424 10.015192,2.88278424 C14.3027959,2.88278424 17.0795579,2.44639151 18.8319476,2.35140983 C19.3621888,2.32267009 19.6003003,2.52604322 19.5462819,2.96152921 L19.5462819,2.96152921 C19.5462819,3.23340904 19.3502303,3.46566677 19.0822085,3.51130612 C16.0790418,4.02270759 13.0640513,4.27840075 10.0372398,4.27840075 C7.00897937,4.27840075 3.97856763,4.02246275 0.946004528,3.51058674 L0.946004387,3.51058757 C0.67803251,3.46535574 0.481856622,3.23329168 0.481856622,2.96152921 Z" id="Rectangle-6-Copy" fill="url(#linearGradient-15)"></path>
                    <path d="M0.487131222,0.851896743 C3.79400915,0.283965581 6.96386273,5.78749794e-17 9.99669198,0 C13.030097,0 16.2079307,0.284073405 19.5301931,0.852220215 L19.5301776,0.852311005 C19.7912978,0.896965694 19.9667777,1.1448452 19.9221231,1.40596538 C19.9212806,1.41089182 19.9203611,1.41580479 19.9193651,1.4207025 L19.5410359,3.28101894 C16.3515004,2.65606295 13.1700524,2.34358495 9.99669198,2.34358495 C6.82333153,2.34358495 3.64997108,2.65606295 0.476610632,3.28101894 L0.0982875354,1.42021853 C0.0454948962,1.1606271 0.213138438,0.907389781 0.472729867,0.854597142 C0.477516289,0.853623735 0.482317301,0.852723498 0.487131222,0.851896743 Z" id="Rectangle-5-Copy" fill="url(#linearGradient-16)"></path>
                </g>
            </g>
        </g>
    </g>
</svg>