<?xml version="1.0" encoding="UTF-8" standalone="no"?>
<svg width="46px" height="46px" viewBox="0 0 46 46" version="1.1" xmlns="http://www.w3.org/2000/svg" xmlns:xlink="http://www.w3.org/1999/xlink">
    <!-- Generator: Sketch 49.3 (51167) - http://www.bohemiancoding.com/sketch -->
    <title>Group 6 Copy 4</title>
    <desc>Created with Sketch.</desc>
    <defs>
        <linearGradient x1="50%" y1="0%" x2="50%" y2="100%" id="linearGradient-1">
            <stop stop-color="#A9EA4E" offset="0%"></stop>
            <stop stop-color="#73C334" offset="100%"></stop>
        </linearGradient>
        <rect id="path-2" x="0" y="0" width="46" height="46" rx="9.85714286"></rect>
        <linearGradient x1="50%" y1="0%" x2="50%" y2="100%" id="linearGradient-4">
            <stop stop-color="#7CB93E" offset="0%"></stop>
            <stop stop-color="#65AC2B" offset="100%"></stop>
        </linearGradient>
        <radialGradient cx="50%" cy="50%" fx="50%" fy="50%" r="50%" id="radialGradient-5">
            <stop stop-color="#FFFFFF" offset="0%"></stop>
            <stop stop-color="#FFFFFF" stop-opacity="0" offset="35.1363202%"></stop>
            <stop stop-color="#FFFFFF" stop-opacity="0.848703578" offset="79.3503935%"></stop>
            <stop stop-color="#86CC2E" stop-opacity="0.460711051" offset="100%"></stop>
        </radialGradient>
        <filter x="-10.0%" y="-18.4%" width="119.9%" height="136.8%" filterUnits="objectBoundingBox" id="filter-6">
            <feGaussianBlur stdDeviation="0.932978269" in="SourceGraphic"></feGaussianBlur>
        </filter>
        <radialGradient cx="50%" cy="5.53698448%" fx="50%" fy="5.53698448%" r="93.742588%" gradientTransform="translate(0.500000,0.055370),scale(0.541915,1.000000),rotate(92.976174),translate(-0.500000,-0.055370)" id="radialGradient-7">
            <stop stop-color="#FFFFFF" offset="0%"></stop>
            <stop stop-color="#FFFFFF" offset="89.9852519%"></stop>
            <stop stop-color="#C6EA9F" offset="100%"></stop>
        </radialGradient>
    </defs>
    <g id="Page-1" stroke="none" stroke-width="1" fill="none" fill-rule="evenodd">
        <g id="22" transform="translate(-30.000000, -93.000000)">
            <g id="Group-10" transform="translate(15.000000, 92.000000)"></g>
            <g id="Group-6-Copy-4" transform="translate(30.000000, 93.000000)">
                <g id="Group-11">
                    <g id="vip-copy-14">
                        <g id="Group-6-Copy">
                            <mask id="mask-3" fill="white">
                                <use xlink:href="#path-2"></use>
                            </mask>
                            <use id="Rectangle" fill="url(#linearGradient-1)" xlink:href="#path-2"></use>
                            <text id="S" opacity="0.105522382" mask="url(#mask-3)" transform="translate(35.763116, 33.433702) rotate(-40.000000) translate(-35.763116, -33.433702) " font-family="Stencil" font-size="19.7142857" font-weight="normal" letter-spacing="2.25892483" fill="#FFFFFF">
                                <tspan x="29.1130757" y="39.9337022">S</tspan>
                            </text>
                        </g>
                    </g>
                    <g id="Group-6" transform="translate(7.557143, 5.585714)">
                        <circle id="Oval" fill="url(#linearGradient-4)" cx="2.3" cy="2.3" r="1.91666667"></circle>
                        <path d="M2.3,3.83333333 C3.14683662,3.83333333 3.83333333,3.14683662 3.83333333,2.3 C3.83333333,1.45316338 3.14683662,0.766666667 2.3,0.766666667 C1.45316338,0.766666667 0.766666667,1.45316338 0.766666667,2.3 C0.766666667,3.14683662 1.45316338,3.83333333 2.3,3.83333333 Z M2.3,4.6 C1.02974508,4.6 0,3.57025492 0,2.3 C0,1.02974508 1.02974508,0 2.3,0 C3.57025492,0 4.6,1.02974508 4.6,2.3 C4.6,3.57025492 3.57025492,4.6 2.3,4.6 Z" id="Oval-Copy" fill="url(#radialGradient-5)" fill-rule="nonzero"></path>
                    </g>
                    <path d="M9.62231814,8.36508026 C9.98524812,8.36508026 10.1937062,8.35300165 10.1937062,7.80860668 C10.1937062,7.26421172 10.4230356,7.26398485 9.84182339,6.9 C9.47889341,6.9 8.86035274,7.32622585 8.8715793,7.77174159 C8.88280587,8.21725732 9.25938816,8.36508026 9.62231814,8.36508026 Z" id="Oval-10" fill="#EDF8E0"></path>
                    <g id="Group-6-Copy-2" transform="translate(33.842857, 5.585714)">
                        <circle id="Oval" fill="url(#linearGradient-4)" cx="2.3" cy="2.3" r="1.91666667"></circle>
                        <path d="M2.3,3.83333333 C3.14683662,3.83333333 3.83333333,3.14683662 3.83333333,2.3 C3.83333333,1.45316338 3.14683662,0.766666667 2.3,0.766666667 C1.45316338,0.766666667 0.766666667,1.45316338 0.766666667,2.3 C0.766666667,3.14683662 1.45316338,3.83333333 2.3,3.83333333 Z M2.3,4.6 C1.02974508,4.6 0,3.57025492 0,2.3 C0,1.02974508 1.02974508,0 2.3,0 C3.57025492,0 4.6,1.02974508 4.6,2.3 C4.6,3.57025492 3.57025492,4.6 2.3,4.6 Z" id="Oval-Copy" fill="url(#radialGradient-5)" fill-rule="nonzero"></path>
                    </g>
                    <path d="M36.2261321,8.816946 C36.5890621,8.816946 36.8832749,8.37562669 36.8832749,7.83123172 C36.8832749,7.28683675 36.9182069,7.26398485 36.3369946,6.9 C35.9740647,6.9 35.4857143,7.26057178 35.4857143,7.80496675 C35.4857143,8.34936171 35.8632021,8.816946 36.2261321,8.816946 Z" id="Oval-10" fill="#EDF8E0"></path>
                    <path d="M10.5815938,13.339737 C11.0233237,13.5510607 11.0981411,13.9536734 10.9691115,14.2528408 C11.3355457,14.4918709 11.3563163,14.9113316 11.181846,15.1879644 C11.6517175,15.3306039 11.7879629,15.7135157 11.7088256,16.0279266 C12.113473,16.2105424 12.195852,16.6260908 12.0619539,16.926894 C12.5396304,16.9978608 12.731209,17.3507 12.7033045,17.670775 C13.1353474,17.7881892 13.2811673,18.1907248 13.1922201,18.5101117 C13.6707677,18.5080079 13.9133595,18.8244862 13.9363142,19.1433222 C14.3853111,19.1911505 14.592737,19.570661 14.5516548,19.9018774 C15.0200239,19.8283877 15.3068579,20.1016019 15.3793026,20.4113248 C15.832345,20.3870039 16.097584,20.7310729 16.1080831,21.0656862 C16.5609242,20.9232414 16.8842998,21.147299 17.0038077,21.4404632 C17.4540711,21.3446259 17.7695574,21.6474483 17.829632,21.9786648 C18.2497914,21.7758954 18.5994793,21.9464983 18.7616391,22.2153188 C19.194036,22.0476 19.5552608,22.3000399 19.6652852,22.6200119 C20.0470492,22.3591291 20.4168296,22.4739395 20.6176685,22.7137051 C21.0204122,22.4775275 21.4190334,22.6721679 21.5772474,22.9729559 C21.9130647,22.6607349 22.2944401,22.7180441 22.5287934,22.9237034 C22.8907524,22.624571 23.3170968,22.7554352 23.5203941,23.0293235 C23.8038479,22.6733427 24.1883685,22.6726403 24.4505349,22.8400484 C24.7605656,22.4866366 25.2019122,22.5478021 25.4463816,22.7855001 C25.6750374,22.3899087 26.0542042,22.3316189 26.3382023,22.4573867 C26.5924415,22.056212 27.0382157,22.049704 27.316692,22.2474363 C27.4839107,21.8289902 27.8481303,21.7162952 28.1462453,21.7979183 C28.3341039,21.3605308 28.7738732,21.2838524 29.0802474,21.435557 C29.182745,20.9988062 29.5264693,20.8332641 29.8334658,20.8698656 C29.9499909,20.4078666 30.3721315,20.2627841 30.6986498,20.3642006 C30.7346136,19.9184572 31.0507312,19.7035336 31.3601422,19.6945644 C31.4023812,19.2218162 31.7931921,19.0119512 32.1306093,19.0582751 C32.0992451,18.6080456 32.3808581,18.3479879 32.6863048,18.2934878 C32.6560777,17.817437 33.0085356,17.5514797 33.3483982,17.5444718 C33.252948,17.107378 33.4935059,16.8095213 33.7873866,16.7112249 C33.6836742,16.2471203 33.9884667,15.9299195 34.3220329,15.8688381 C34.1614145,15.4508093 34.3566454,15.1189349 34.6342139,14.978458 C34.4605708,14.5379462 34.7101564,14.178231 35.0286362,14.064887 C34.8058303,13.6752414 34.951059,13.3158331 35.2065214,13.1357789 C34.9683562,12.7295438 35.1568948,12.3371175 35.4519799,12.1748223 C35.1712493,11.8225598 35.2625984,11.4427623 35.4904982,11.2264702 C35.1346708,10.7901999 35.385883,10.2784929 35.7587392,10.1447153 C36.0845495,10.0278174 36.2267232,9.72528053 36.1852601,9.23710477 C37.1077064,9.68635571 37.1190023,10.2896627 36.7295225,10.5622901 C37.1472712,11.0152162 36.9863239,11.4575813 36.5852125,11.610082 C36.9964154,12.0745885 36.8806471,12.4963283 36.5399759,12.6675083 C36.8838595,13.1820169 36.6538615,13.5951322 36.2316395,13.6818245 C36.5657214,14.2029303 36.3902896,14.6009122 36.0313877,14.7200873 C36.291799,15.2837624 35.9980719,15.6565724 35.5657136,15.6746428 C35.815637,16.2402029 35.5848471,16.6064544 35.215257,16.6719616 C35.3847448,17.270769 35.0345088,17.5932011 34.6033907,17.5417754 C34.7638899,18.1389251 34.4829631,18.466164 34.1102861,18.4773068 C34.1841049,19.0980646 33.7833701,19.3610789 33.3633595,19.2383115 C33.4349929,19.8480765 33.1095403,20.1296746 32.7388391,20.0860282 C32.720539,20.7074808 32.2828405,20.9068779 31.8836781,20.7200661 C31.8639427,21.3398689 31.4999882,21.5720418 31.1401677,21.4747285 C31.0242015,22.0848437 30.5603457,22.2124524 30.1954839,21.9646431 C30.0814307,22.5763664 29.6874787,22.7521557 29.3471965,22.6034655 C29.1366959,23.1862782 28.6589165,23.2389746 28.3376977,22.936906 C28.1312174,23.5268412 27.7154386,23.6423304 27.4018156,23.4453399 C27.1015993,23.9875429 26.6201394,23.962357 26.3510488,23.6107611 C26.0626028,24.1633682 25.6334479,24.2154689 25.3515371,23.9722751 C24.9776923,24.458882 24.5059652,24.3613517 24.2917675,23.9724122 C23.9197832,24.4831239 23.4846665,24.4711675 23.2419644,24.1874571 C22.7978696,24.6063493 22.3490271,24.4369879 22.1980425,24.0211165 C21.7498648,24.4724706 21.320266,24.3948116 21.1234287,24.0773365 C20.6214083,24.4183147 20.2065171,24.1824244 20.121513,23.7503656 C19.6062923,24.1310713 19.1919585,23.9885802 19.0459312,23.6441718 C18.499733,23.899383 18.1286233,23.6039651 18.1104908,23.166564 C17.5391151,23.4666029 17.1497956,23.2615947 17.0585863,22.8979045 C16.4807656,23.0626269 16.1615493,22.7128903 16.2122898,22.2785167 C15.6037647,22.4928913 15.2488367,22.2290074 15.2153119,21.8518579 C14.6271874,21.9276302 14.3644447,21.5368477 14.4769206,21.1152948 C13.8338522,21.2382329 13.5204295,20.9201791 13.5467283,20.5398279 C12.95843,20.5217451 12.759882,20.0990626 12.9324658,19.7023721 C12.2734323,19.7254283 12.012061,19.3605637 12.0985092,18.9876072 C11.5246969,18.8777545 11.3935367,18.4338154 11.6208569,18.0704003 C10.9616617,17.9913025 10.759655,17.5879271 10.9049368,17.2318638 C10.3573525,17.0337988 10.2966511,16.5765685 10.5759679,16.2534843 C9.93643471,16.0793476 9.7996081,15.6468435 10.0021261,15.3148371 C9.49606463,15.0416525 9.50188869,14.5836163 9.82240819,14.3042719 C9.20872572,14.0320493 9.14042731,13.5792711 9.39550662,13.2816591 C8.9409972,12.9349374 9.01432147,12.4869157 9.36858951,12.2596278 C8.80189858,11.8937088 8.80629965,11.4338158 9.10720363,11.1798635 C8.66123419,10.7135816 8.8985427,10.2247964 9.39731705,10.1141301 C10.0369898,9.97220175 10.0379405,9.25162368 9.83088925,9.2 C10.642883,9.55981208 10.6334589,10.1540759 10.3503274,10.4712221 C10.622431,10.8077505 10.5186558,11.2077901 10.2736415,11.4193159 C10.6806431,11.6978824 10.6910232,12.1098816 10.5149813,12.3858255 C10.8382781,12.678022 10.7949048,13.0933833 10.5815938,13.339737 Z M10.3065654,13.5768171 C10.2026617,13.6957212 10.1533074,13.8491243 10.1585028,14.0370265 C10.2772146,13.8918723 10.3153517,13.7236087 10.3065654,13.5768171 Z M10.8747892,15.9371458 C10.9719082,15.7747466 10.9843403,15.6007334 10.9530668,15.4560209 C10.8664942,15.5903357 10.8404017,15.7507107 10.8747892,15.9371458 Z M11.8693779,17.231522 C11.8038104,17.3767747 11.8016012,17.5393728 11.8627504,17.7193166 C11.9350512,17.5440737 11.9217374,17.3702167 11.8693779,17.231522 Z M13.1170393,19.3096804 C13.1549652,19.1341016 13.1169819,18.9726387 13.0479274,18.8480918 C13.0113606,18.9953631 13.0343979,19.149226 13.1170393,19.3096804 Z M14.4616419,20.2668483 C14.4528511,20.4100762 14.4979545,20.5507726 14.596952,20.6889374 C14.6024972,20.5201794 14.5437667,20.3750675 14.4616419,20.2668483 Z M16.2716461,21.8301098 C16.2522611,21.6626045 16.1727441,21.5276783 16.0756854,21.4328052 C16.0879747,21.576212 16.153295,21.7086468 16.2716461,21.8301098 Z M17.8508794,22.3576157 C17.8840167,22.4961888 17.967228,22.6168434 18.1005132,22.7195794 C18.0569365,22.5580568 17.9597995,22.4371705 17.8508794,22.3576157 Z M20.0358491,23.2995912 C19.8994678,23.222599 19.8042323,23.1230902 19.7501425,23.0010647 C19.862431,23.0612428 19.9690588,23.1591411 20.0358491,23.2995912 Z M21.7276635,23.3460614 C21.7977767,23.4484548 21.9000923,23.525969 22.0346104,23.5786038 C21.9507516,23.4623384 21.8395794,23.3875399 21.7276635,23.3460614 Z M24.0503694,23.5509733 C23.9220682,23.5204183 23.8175324,23.4646533 23.7367622,23.3836784 C23.8448746,23.4078076 23.9559179,23.460392 24.0503694,23.5509733 Z M25.7101652,23.0981061 C25.8023761,23.1675247 25.9144519,23.207834 26.0463925,23.2190341 C25.9393729,23.1424466 25.8211688,23.1062781 25.7101652,23.0981061 Z M27.9804266,22.5986967 C27.8484139,22.6061957 27.7319452,22.5822589 27.6310203,22.526886 C27.7419181,22.5192224 27.8636932,22.538203 27.9804266,22.5986967 Z M29.4467295,21.6667119 C29.5476393,21.7004212 29.6574745,21.7054932 29.7762351,21.6819278 C29.6612091,21.6462648 29.5478639,21.6456929 29.4467295,21.6667119 Z M31.4112843,20.5040847 C31.3071131,20.5402891 31.2066104,20.5513795 31.1097762,20.5373559 C31.1997348,20.5054652 31.3023733,20.4905142 31.4112843,20.5040847 Z M32.5540897,19.1656986 C32.6560143,19.1669956 32.7576077,19.1407655 32.8588699,19.0870082 C32.7445644,19.0881417 32.6411992,19.1189987 32.5540897,19.1656986 Z M34.0898136,17.4680723 C33.9945603,17.5382099 33.8949118,17.5795884 33.790868,17.5922079 C33.8722522,17.5315771 33.9730024,17.4849952 34.0898136,17.4680723 Z M34.7756801,15.8443439 C34.8707136,15.8159348 34.9578242,15.7626843 35.037012,15.6845924 C34.9313575,15.7187271 34.8440158,15.7764555 34.7756801,15.8443439 Z M35.7027462,13.7777321 C35.6392722,13.8617282 35.5651784,13.9245992 35.4804646,13.9663451 C35.5357231,13.8928922 35.6094116,13.8261939 35.7027462,13.7777321 Z M35.8886205,12.0030622 C35.9622944,11.9501778 36.0232478,11.8795839 36.0714808,11.7912807 C35.9909959,11.8515694 35.9309225,11.925437 35.8886205,12.0030622 Z M9.73989209,12.0521162 C9.88791448,11.924961 9.95435232,11.7588679 9.96809668,11.6080667 C9.84015529,11.7104944 9.76408709,11.8585109 9.73989209,12.0521162 Z" id="Combined-Shape" fill="#66A627" opacity="0.43126166" filter="url(#filter-6)"></path>
                    <path d="M10.5815938,11.039737 C11.0233237,11.2510607 11.0981411,11.6536734 10.9691115,11.9528408 C11.3355457,12.1918709 11.3563163,12.6113316 11.181846,12.8879644 C11.6517175,13.0306039 11.7879629,13.4135157 11.7088256,13.7279266 C12.113473,13.9105424 12.195852,14.3260908 12.0619539,14.626894 C12.5396304,14.6978608 12.731209,15.0507 12.7033045,15.370775 C13.1353474,15.4881892 13.2811673,15.8907248 13.1922201,16.2101117 C13.6707677,16.2080079 13.9133595,16.5244862 13.9363142,16.8433222 C14.3853111,16.8911505 14.592737,17.270661 14.5516548,17.6018774 C15.0200239,17.5283877 15.3068579,17.8016019 15.3793026,18.1113248 C15.832345,18.0870039 16.097584,18.4310729 16.1080831,18.7656862 C16.5609242,18.6232414 16.8842998,18.847299 17.0038077,19.1404632 C17.4540711,19.0446259 17.7695574,19.3474483 17.829632,19.6786648 C18.2497914,19.4758954 18.5994793,19.6464983 18.7616391,19.9153188 C19.194036,19.7476 19.5552608,20.0000399 19.6652852,20.3200119 C20.0470492,20.0591291 20.4168296,20.1739395 20.6176685,20.4137051 C21.0204122,20.1775275 21.4190334,20.3721679 21.5772474,20.6729559 C21.9130647,20.3607349 22.2944401,20.4180441 22.5287934,20.6237034 C22.8907524,20.324571 23.3170968,20.4554352 23.5203941,20.7293235 C23.8038479,20.3733427 24.1883685,20.3726403 24.4505349,20.5400484 C24.7605656,20.1866366 25.2019122,20.2478021 25.4463816,20.4855001 C25.6750374,20.0899087 26.0542042,20.0316189 26.3382023,20.1573867 C26.5924415,19.756212 27.0382157,19.749704 27.316692,19.9474363 C27.4839107,19.5289902 27.8481303,19.4162952 28.1462453,19.4979183 C28.3341039,19.0605308 28.7738732,18.9838524 29.0802474,19.135557 C29.182745,18.6988062 29.5264693,18.5332641 29.8334658,18.5698656 C29.9499909,18.1078666 30.3721315,17.9627841 30.6986498,18.0642006 C30.7346136,17.6184572 31.0507312,17.4035336 31.3601422,17.3945644 C31.4023812,16.9218162 31.7931921,16.7119512 32.1306093,16.7582751 C32.0992451,16.3080456 32.3808581,16.0479879 32.6863048,15.9934878 C32.6560777,15.517437 33.0085356,15.2514797 33.3483982,15.2444718 C33.252948,14.807378 33.4935059,14.5095213 33.7873866,14.4112249 C33.6836742,13.9471203 33.9884667,13.6299195 34.3220329,13.5688381 C34.1614145,13.1508093 34.3566454,12.8189349 34.6342139,12.678458 C34.4605708,12.2379462 34.7101564,11.878231 35.0286362,11.764887 C34.8058303,11.3752414 34.951059,11.0158331 35.2065214,10.8357789 C34.9683562,10.4295438 35.1568948,10.0371175 35.4519799,9.87482228 C35.1712493,9.52255978 35.2625984,9.14276235 35.4904982,8.92647018 C35.1346708,8.4901999 35.385883,7.97849287 35.7587392,7.8447153 C36.0845495,7.72781738 36.2282213,7.42503176 36.1897545,6.93635845 C37.1123898,7.38570142 37.1203973,7.98967895 36.7296246,8.26240083 C37.1472449,8.71528832 36.9862912,9.15759371 36.5852125,9.31008199 C36.9964154,9.77458847 36.8806471,10.1963283 36.5399759,10.3675083 C36.8838595,10.8820169 36.6538615,11.2951322 36.2316395,11.3818245 C36.5657214,11.9029303 36.3902896,12.3009122 36.0313877,12.4200873 C36.291799,12.9837624 35.9980719,13.3565724 35.5657136,13.3746428 C35.815637,13.9402029 35.5848471,14.3064544 35.215257,14.3719616 C35.3847448,14.970769 35.0345088,15.2932011 34.6033907,15.2417754 C34.7638899,15.8389251 34.4829631,16.166164 34.1102861,16.1773068 C34.1841049,16.7980646 33.7833701,17.0610789 33.3633595,16.9383115 C33.4349929,17.5480765 33.1095403,17.8296746 32.7388391,17.7860282 C32.720539,18.4074808 32.2828405,18.6068779 31.8836781,18.4200661 C31.8639427,19.0398689 31.4999882,19.2720418 31.1401677,19.1747285 C31.0242015,19.7848437 30.5603457,19.9124524 30.1954839,19.6646431 C30.0814307,20.2763664 29.6874787,20.4521557 29.3471965,20.3034655 C29.1366959,20.8862782 28.6589165,20.9389746 28.3376977,20.636906 C28.1312174,21.2268412 27.7154386,21.3423304 27.4018156,21.1453399 C27.1015993,21.6875429 26.6201394,21.662357 26.3510488,21.3107611 C26.0626028,21.8633682 25.6334479,21.9154689 25.3515371,21.6722751 C24.9776923,22.158882 24.5059652,22.0613517 24.2917675,21.6724122 C23.9197832,22.1831239 23.4846665,22.1711675 23.2419644,21.8874571 C22.7978696,22.3063493 22.3490271,22.1369879 22.1980425,21.7211165 C21.7498648,22.1724706 21.320266,22.0948116 21.1234287,21.7773365 C20.6214083,22.1183147 20.2065171,21.8824244 20.121513,21.4503656 C19.6062923,21.8310713 19.1919585,21.6885802 19.0459312,21.3441718 C18.499733,21.599383 18.1286233,21.3039651 18.1104908,20.866564 C17.5391151,21.1666029 17.1497956,20.9615947 17.0585863,20.5979045 C16.4807656,20.7626269 16.1615493,20.4128903 16.2122898,19.9785167 C15.6037647,20.1928913 15.2488367,19.9290074 15.2153119,19.5518579 C14.6271874,19.6276302 14.3644447,19.2368477 14.4769206,18.8152948 C13.8338522,18.9382329 13.5204295,18.6201791 13.5467283,18.2398279 C12.95843,18.2217451 12.759882,17.7990626 12.9324658,17.4023721 C12.2734323,17.4254283 12.012061,17.0605637 12.0985092,16.6876072 C11.5246969,16.5777545 11.3935367,16.1338154 11.6208569,15.7704003 C10.9616617,15.6913025 10.759655,15.2879271 10.9049368,14.9318638 C10.3573525,14.7337988 10.2966511,14.2765685 10.5759679,13.9534843 C9.93643471,13.7793476 9.7996081,13.3468435 10.0021261,13.0148371 C9.49606463,12.7416525 9.50188869,12.2836163 9.82240819,12.0042719 C9.20872572,11.7320493 9.14042731,11.2792711 9.39550662,10.9816591 C8.9409972,10.6349374 9.01432147,10.1869157 9.36858951,9.9596278 C8.80189858,9.59370879 8.80629965,9.13381584 9.10720363,8.87986354 C8.66123419,8.41358158 8.8985427,7.9247964 9.39731705,7.81413009 C10.0369898,7.67220175 10.0379405,6.95162368 9.83088925,6.9 C10.642883,7.25981208 10.6334589,7.85407587 10.3503274,8.17122211 C10.622431,8.50775052 10.5186558,8.90779005 10.2736415,9.11931586 C10.6806431,9.3978824 10.6910232,9.80988159 10.5149813,10.0858255 C10.8382781,10.378022 10.7949048,10.7933833 10.5815938,11.039737 Z M10.3065654,11.2768171 C10.2026617,11.3957212 10.1533074,11.5491243 10.1585028,11.7370265 C10.2772146,11.5918723 10.3153517,11.4236087 10.3065654,11.2768171 Z M10.8747892,13.6371458 C10.9719082,13.4747466 10.9843403,13.3007334 10.9530668,13.1560209 C10.8664942,13.2903357 10.8404017,13.4507107 10.8747892,13.6371458 Z M11.8693779,14.931522 C11.8038104,15.0767747 11.8016012,15.2393728 11.8627504,15.4193166 C11.9350512,15.2440737 11.9217374,15.0702167 11.8693779,14.931522 Z M13.1170393,17.0096804 C13.1549652,16.8341016 13.1169819,16.6726387 13.0479274,16.5480918 C13.0113606,16.6953631 13.0343979,16.849226 13.1170393,17.0096804 Z M14.4616419,17.9668483 C14.4528511,18.1100762 14.4979545,18.2507726 14.596952,18.3889374 C14.6024972,18.2201794 14.5437667,18.0750675 14.4616419,17.9668483 Z M16.2716461,19.5301098 C16.2522611,19.3626045 16.1727441,19.2276783 16.0756854,19.1328052 C16.0879747,19.276212 16.153295,19.4086468 16.2716461,19.5301098 Z M17.8508794,20.0576157 C17.8840167,20.1961888 17.967228,20.3168434 18.1005132,20.4195794 C18.0569365,20.2580568 17.9597995,20.1371705 17.8508794,20.0576157 Z M20.0358491,20.9995912 C19.8994678,20.922599 19.8042323,20.8230902 19.7501425,20.7010647 C19.862431,20.7612428 19.9690588,20.8591411 20.0358491,20.9995912 Z M21.7276635,21.0460614 C21.7977767,21.1484548 21.9000923,21.225969 22.0346104,21.2786038 C21.9507516,21.1623384 21.8395794,21.0875399 21.7276635,21.0460614 Z M24.0503694,21.2509733 C23.9220682,21.2204183 23.8175324,21.1646533 23.7367622,21.0836784 C23.8448746,21.1078076 23.9559179,21.160392 24.0503694,21.2509733 Z M25.7101652,20.7981061 C25.8023761,20.8675247 25.9144519,20.907834 26.0463925,20.9190341 C25.9393729,20.8424466 25.8211688,20.8062781 25.7101652,20.7981061 Z M27.9804266,20.2986967 C27.8484139,20.3061957 27.7319452,20.2822589 27.6310203,20.226886 C27.7419181,20.2192224 27.8636932,20.238203 27.9804266,20.2986967 Z M29.4467295,19.3667119 C29.5476393,19.4004212 29.6574745,19.4054932 29.7762351,19.3819278 C29.6612091,19.3462648 29.5478639,19.3456929 29.4467295,19.3667119 Z M31.4112843,18.2040847 C31.3071131,18.2402891 31.2066104,18.2513795 31.1097762,18.2373559 C31.1997348,18.2054652 31.3023733,18.1905142 31.4112843,18.2040847 Z M32.5540897,16.8656986 C32.6560143,16.8669956 32.7576077,16.8407655 32.8588699,16.7870082 C32.7445644,16.7881417 32.6411992,16.8189987 32.5540897,16.8656986 Z M34.0898136,15.1680723 C33.9945603,15.2382099 33.8949118,15.2795884 33.790868,15.2922079 C33.8722522,15.2315771 33.9730024,15.1849952 34.0898136,15.1680723 Z M34.7756801,13.5443439 C34.8707136,13.5159348 34.9578242,13.4626843 35.037012,13.3845924 C34.9313575,13.4187271 34.8440158,13.4764555 34.7756801,13.5443439 Z M35.7027462,11.4777321 C35.6392722,11.5617282 35.5651784,11.6245992 35.4804646,11.6663451 C35.5357231,11.5928922 35.6094116,11.5261939 35.7027462,11.4777321 Z M35.8886205,9.70306223 C35.9622944,9.65017779 36.0232478,9.57958394 36.0714808,9.49128068 C35.9909959,9.55156942 35.9309225,9.625437 35.8886205,9.70306223 Z M9.73989209,9.75211624 C9.76408709,9.55851093 9.84015529,9.41049442 9.96809668,9.30806673 C9.95435232,9.45886792 9.88791448,9.624961 9.73989209,9.75211624 Z" id="Combined-Shape" fill="url(#radialGradient-7)"></path>
                </g>
            </g>
        </g>
    </g>
</svg>