<?xml version="1.0" encoding="UTF-8" standalone="no"?>
<svg width="26px" height="27px" viewBox="0 0 26 27" version="1.1" xmlns="http://www.w3.org/2000/svg" xmlns:xlink="http://www.w3.org/1999/xlink">
    <!-- Generator: Sketch 49.3 (51167) - http://www.bohemiancoding.com/sketch -->
    <title>1</title>
    <desc>Created with Sketch.</desc>
    <defs>
        <linearGradient x1="50%" y1="3.53820448%" x2="50%" y2="96.0373013%" id="linearGradient-1">
            <stop stop-color="#FBA84C" offset="0%"></stop>
            <stop stop-color="#FEB826" offset="100%"></stop>
        </linearGradient>
        <path d="M0.720992079,8.34949987 C0.873820406,7.70588751 1.01462038,7.21247009 1.14339201,6.86924761 C2.65290066,2.84586678 6.37467541,0 10.7267291,0 C15.0880744,0 19.0965352,2.83895547 20.3197043,6.89503346 C20.5574252,7.6833253 20.9706299,9.24915908 19.9660849,8.91298485 C17.1631666,8.01334363 13.922796,7.45011086 10.4323774,7.45011086 C7.75632491,7.45011086 5.2105956,7.75352609 2.90518631,8.30054304 C2.31062061,8.44161886 1.73203921,8.59889726 1.17132895,8.77135222 C1.17132895,8.77135222 1.17132895,8.77135222 1.17132895,8.77135222 L1.17132895,8.77135222 C0.983701594,8.82905986 0.784818287,8.72373912 0.727110646,8.53611177 C0.708488293,8.47556411 0.706385812,8.4111397 0.721020817,8.34950669 Z" id="path-2"></path>
        <linearGradient x1="50%" y1="0%" x2="50%" y2="100%" id="linearGradient-4">
            <stop stop-color="#FFDF5B" offset="0%"></stop>
            <stop stop-color="#FF9B33" offset="100%"></stop>
        </linearGradient>
        <ellipse id="path-5" cx="10.5" cy="6.70509978" rx="6.73796791" ry="6.70509978"></ellipse>
    </defs>
    <g id="Page-1" stroke="none" stroke-width="1" fill="none" fill-rule="evenodd">
        <g id="13-copy" transform="translate(-22.000000, -218.000000)">
            <g id="Group-74" transform="translate(24.000000, 220.000000)">
                <g id="Group-71" transform="translate(3.762032, 0.000000)"></g>
                <g id="Group-72" transform="translate(0.000000, 14.400000)">
                    <mask id="mask-3" fill="white">
                        <use xlink:href="#path-2"></use>
                    </mask>
                    <use id="Combined-Shape" fill="url(#linearGradient-1)" xlink:href="#path-2"></use>
                    <path d="M20.7213874,9.17781539 C19.8855771,8.87047425 19.0020107,8.59920627 18.0780864,8.36807151 C18.0815762,8.26938657 18.0833333,8.17034046 18.0833333,8.07095344 C18.0833333,5.09981722 16.5130117,2.43334601 14.0241819,0.612984653 C17.5151318,1.92009327 20.1372766,5.18984097 20.7213874,9.17781539 Z" id="Combined-Shape" fill="#D8840E" opacity="0.200000003" mask="url(#mask-3)"></path>
                    <path d="M7.28053879,9.01137151 C6.77738965,8.82635531 6.25693407,8.65441173 5.72078603,8.49642648 C4.74786817,4.51829167 3.04144706,2.44120393 0.552617303,0.620842572 C4.04356716,1.92795119 6.69642804,5.02339708 7.28053879,9.01137151 Z" id="Combined-Shape" fill="#FFFFFF" opacity="0.200000003" mask="url(#mask-3)" transform="translate(3.916578, 4.816107) scale(-1, 1) translate(-3.916578, -4.816107) "></path>
                </g>
                <mask id="mask-6" fill="white">
                    <use xlink:href="#path-5"></use>
                </mask>
                <use id="Oval-38" fill="url(#linearGradient-4)" xlink:href="#path-5"></use>
            </g>
        </g>
    </g>
</svg>