<?xml version="1.0" encoding="UTF-8" standalone="no"?>
<svg width="26px" height="27px" viewBox="0 0 26 27" version="1.1" xmlns="http://www.w3.org/2000/svg" xmlns:xlink="http://www.w3.org/1999/xlink">
    <!-- Generator: Sketch 49.3 (51167) - http://www.bohemiancoding.com/sketch -->
    <title>2</title>
    <desc>Created with Sketch.</desc>
    <defs>
        <linearGradient x1="50%" y1="-2.48949813e-15%" x2="50%" y2="100%" id="linearGradient-1">
            <stop stop-color="#77D7F7" offset="0%"></stop>
            <stop stop-color="#28BCFF" offset="100%"></stop>
        </linearGradient>
        <linearGradient x1="50%" y1="0%" x2="50%" y2="100%" id="linearGradient-2">
            <stop stop-color="#6FD4F8" offset="0%"></stop>
            <stop stop-color="#2EBEFE" offset="100%"></stop>
        </linearGradient>
        <path d="M11.7948718,22.8 C10.0244806,22.7511037 7.49620199,23.018957 4.21003607,23.6035597 L4.21004681,23.60362 C3.89930058,23.6589012 3.60257675,23.4518059 3.54729558,23.1410596 C3.54141764,23.1080186 3.53846154,23.074524 3.53846154,23.0409642 L3.53846154,13.2 L20.0513559,13.2 L20.0513559,23.0563379 C20.0513537,23.3719673 19.7954836,23.6278338 19.4798542,23.6278315 C19.4503785,23.6278313 19.420947,23.6255508 19.3918231,23.6210102 C16.1900282,23.1218389 13.6577111,22.8481688 11.7948718,22.8 Z" id="path-3"></path>
        <linearGradient x1="50%" y1="0%" x2="50%" y2="100%" id="linearGradient-4">
            <stop stop-color="#55CBFB" offset="0%"></stop>
            <stop stop-color="#2EBEFE" offset="100%"></stop>
        </linearGradient>
        <path d="M11.7948718,17.4 L11.7948718,17.4 C13.0976974,17.4 14.1538462,18.4561488 14.1538462,19.7589744 L14.1538462,22.8 C12.5811966,22.7305411 11.008547,22.7111093 9.43589744,22.8 L9.43589744,19.7589744 C9.43589744,18.4561488 10.4920462,17.4 11.7948718,17.4 Z" id="path-5"></path>
        <path d="M13.0935434,0.582667319 L22.7394794,11.1889045 C23.174345,11.6670631 23.139249,12.4072154 22.6610904,12.8420809 C22.4456529,13.0380125 22.1649053,13.1465839 21.8736967,13.1465839 L1.71604187,13.1465839 C1.06971091,13.1465839 0.545756153,12.6226292 0.545756153,11.9762982 C0.545756153,11.6850896 0.654327606,11.404342 0.850259137,11.1889045 L10.4961952,0.582667319 C11.1484935,-0.134570579 12.258722,-0.187214491 12.9759599,0.465083849 C13.0169898,0.502398884 13.0562283,0.541637386 13.0935434,0.582667319 Z" id="path-6"></path>
    </defs>
    <g id="Page-1" stroke="none" stroke-width="1" fill="none" fill-rule="evenodd">
        <g id="13-copy" transform="translate(-21.000000, -266.000000)">
            <g id="Group-76" transform="translate(22.000000, 267.000000)">
                <g id="Combined-Shape">
                    <use fill="url(#linearGradient-1)" fill-rule="evenodd" xlink:href="#path-3"></use>
                    <path stroke="url(#linearGradient-2)" stroke-width="0.877714286" d="M11.7835277,23.2387105 L11.7827557,23.2386899 C10.0478594,23.1907739 7.54623953,23.4558029 4.286985,24.0356181 C3.7375952,24.1334636 3.21296023,23.7673289 3.11522226,23.2179247 C3.10483055,23.1595108 3.0996044,23.1002952 3.0996044,23.0409642 L3.0996044,12.7611429 L20.490213,12.7611429 L20.490213,23.0563409 C20.4902091,23.6143445 20.0378547,24.0666926 19.4798511,24.0666887 C19.4277408,24.0666883 19.3757086,24.0626565 19.3242203,24.0546293 C16.1394604,23.5581137 13.6244329,23.2863121 11.7835277,23.2387105 Z"></path>
                </g>
                <g id="Rectangle-30">
                    <use fill="#FEFDFF" fill-rule="evenodd" xlink:href="#path-5"></use>
                    <path stroke="url(#linearGradient-4)" stroke-width="0.877714286" d="M11.7948718,16.9611429 C13.3400715,16.9611429 14.5927033,18.2137747 14.5927033,19.7589744 L14.5927033,23.2586679 L14.1344821,23.2384297 C12.3980956,23.161739 10.8948145,23.1570954 9.46066339,23.2381578 L8.99704029,23.2643631 L8.99704029,19.7589744 C8.99704029,18.2137747 10.2496721,16.9611429 11.7948718,16.9611429 Z"></path>
                </g>
                <g id="Group-7">
                    <g id="Triangle-6">
                        <use fill="url(#linearGradient-1)" fill-rule="evenodd" xlink:href="#path-6"></use>
                        <path stroke="url(#linearGradient-2)" stroke-width="0.877714286" d="M13.4182119,0.287394663 L23.0641479,10.8936318 C23.6620881,11.5510999 23.6138312,12.5688093 22.9563631,13.1667495 C22.6601365,13.4361553 22.2741086,13.5854411 21.8736967,13.5854411 L1.71604187,13.5854411 C0.827336807,13.5854411 0.10689901,12.8650033 0.10689901,11.9762982 C0.10689901,11.5758863 0.256184758,11.1898584 0.525590614,10.8936318 L10.1715267,0.287394663 C10.9868996,-0.609152709 12.3746852,-0.6749576 13.2712326,0.140415325 C13.32252,0.187059119 13.3715681,0.236107247 13.4182119,0.287394663 Z"></path>
                    </g>
                </g>
            </g>
        </g>
    </g>
</svg>