<?xml version="1.0" encoding="UTF-8" standalone="no"?>
<svg width="26px" height="27px" viewBox="0 0 26 27" version="1.1" xmlns="http://www.w3.org/2000/svg" xmlns:xlink="http://www.w3.org/1999/xlink">
    <!-- Generator: Sketch 49.3 (51167) - http://www.bohemiancoding.com/sketch -->
    <title>4</title>
    <desc>Created with Sketch.</desc>
    <defs>
        <linearGradient x1="50%" y1="0%" x2="50%" y2="100%" id="linearGradient-1">
            <stop stop-color="#B7F33C" offset="0%"></stop>
            <stop stop-color="#8ADE2D" offset="100%"></stop>
        </linearGradient>
        <path d="M5.56930962,0.558139535 C5.52406415,0.73653205 5.5,0.923553729 5.5,1.11627907 C5.5,2.34928688 6.48497355,3.34883721 7.7,3.34883721 L14.3,3.34883721 C15.5150264,3.34883721 16.5,2.34928688 16.5,1.11627907 C16.5,0.923553729 16.4759358,0.73653205 16.4306904,0.558139535 L18.7,0.558139535 C20.5225397,0.558139535 22,2.05746502 22,3.90697674 L22,20.6511628 C22,22.5006745 20.5225397,24 18.7,24 L3.3,24 C1.47746033,24 0,22.5006745 0,20.6511628 L0,3.90697674 C0,2.05746502 1.47746033,0.558139535 3.3,0.558139535 L5.56930962,0.558139535 Z" id="path-2"></path>
        <filter x="-9.1%" y="-8.5%" width="118.2%" height="117.1%" filterUnits="objectBoundingBox" id="filter-3">
            <feGaussianBlur stdDeviation="1.5" in="SourceAlpha" result="shadowBlurInner1"></feGaussianBlur>
            <feOffset dx="0" dy="-1" in="shadowBlurInner1" result="shadowOffsetInner1"></feOffset>
            <feComposite in="shadowOffsetInner1" in2="SourceAlpha" operator="arithmetic" k2="-1" k3="1" result="shadowInnerInner1"></feComposite>
            <feColorMatrix values="0 0 0 0 0.572200783   0 0 0 0 0.889615221   0 0 0 0 0.220367912  0 0 0 0.541921422 0" type="matrix" in="shadowInnerInner1"></feColorMatrix>
        </filter>
    </defs>
    <g id="Page-1" stroke="none" stroke-width="1" fill="none" fill-rule="evenodd">
        <g id="13-copy" transform="translate(-22.000000, -370.000000)">
            <g id="Group-5" transform="translate(15.000000, 371.000000)">
                <g id="Group-17" transform="translate(9.000000, 0.000000)">
                    <g id="Combined-Shape">
                        <use fill="url(#linearGradient-1)" fill-rule="evenodd" xlink:href="#path-2"></use>
                        <use fill="black" fill-opacity="1" filter="url(#filter-3)" xlink:href="#path-2"></use>
                    </g>
                    <rect id="Rectangle-11" fill="#D8FCB0" x="4.07407407" y="7.44827586" width="13.8518519" height="1.6744186" rx="0.837209302"></rect>
                    <rect id="Rectangle-11-Copy" fill="#D8FCB0" x="4.07407407" y="11.5862069" width="13.8518519" height="1.6744186" rx="0.837209302"></rect>
                    <rect id="Rectangle-11-Copy-2" fill="#D8FCB0" x="4.07407407" y="15.7241379" width="13.8518519" height="1.6744186" rx="0.837209302"></rect>
                    <rect id="Rectangle-10" fill="#A1EC4F" x="7.15" y="0" width="7.7" height="2.79069767" rx="1.39534884"></rect>
                </g>
            </g>
        </g>
    </g>
</svg>