<?xml version="1.0" encoding="UTF-8" standalone="no"?>
<svg width="26px" height="27px" viewBox="0 0 26 27" version="1.1" xmlns="http://www.w3.org/2000/svg" xmlns:xlink="http://www.w3.org/1999/xlink">
    <!-- Generator: Sketch 49.3 (51167) - http://www.bohemiancoding.com/sketch -->
    <title>3</title>
    <desc>Created with Sketch.</desc>
    <defs>
        <radialGradient cx="50%" cy="50%" fx="50%" fy="50%" r="50%" gradientTransform="translate(0.500000,0.500000),scale(0.976620,1.000000),rotate(90.000000),translate(-0.500000,-0.500000)" id="radialGradient-1">
            <stop stop-color="#FFFFFF" offset="0%"></stop>
            <stop stop-color="#FFFFFF" stop-opacity="0" offset="100%"></stop>
        </radialGradient>
        <filter x="-7.3%" y="-7.5%" width="114.6%" height="114.9%" filterUnits="objectBoundingBox" id="filter-2">
            <feGaussianBlur stdDeviation="0.134682692" in="SourceGraphic"></feGaussianBlur>
        </filter>
        <linearGradient x1="50%" y1="100%" x2="50%" y2="3.061617e-15%" id="linearGradient-3">
            <stop stop-color="#FFE54F" offset="0%"></stop>
            <stop stop-color="#FFE66E" offset="100%"></stop>
        </linearGradient>
        <linearGradient x1="50%" y1="0%" x2="50%" y2="97.1753071%" id="linearGradient-4">
            <stop stop-color="#FFE98C" offset="0%"></stop>
            <stop stop-color="#FFE44A" offset="44.2960778%"></stop>
            <stop stop-color="#FFE33B" offset="100%"></stop>
        </linearGradient>
        <linearGradient x1="50%" y1="0%" x2="50%" y2="100%" id="linearGradient-5">
            <stop stop-color="#FFEA76" offset="0%"></stop>
            <stop stop-color="#FFE339" offset="100%"></stop>
        </linearGradient>
        <path d="M12.1935873,2.26973091 L12.1935873,2.26973091 C12.824931,2.26973091 13.3367361,2.78153607 13.3367361,3.41287972 L13.3367361,13.4920954 L11.0504385,13.4920954 L11.0504385,3.41287972 C11.0504385,2.78153607 11.5622436,2.26973091 12.1935873,2.26973091 Z" id="path-6"></path>
        <filter x="-43.7%" y="-8.9%" width="187.5%" height="117.8%" filterUnits="objectBoundingBox" id="filter-7">
            <feGaussianBlur stdDeviation="1" in="SourceAlpha" result="shadowBlurInner1"></feGaussianBlur>
            <feOffset dx="0" dy="0" in="shadowBlurInner1" result="shadowOffsetInner1"></feOffset>
            <feComposite in="shadowOffsetInner1" in2="SourceAlpha" operator="arithmetic" k2="-1" k3="1" result="shadowInnerInner1"></feComposite>
            <feColorMatrix values="0 0 0 0 1   0 0 0 0 1   0 0 0 0 1  0 0 0 0.5 0" type="matrix" in="shadowInnerInner1"></feColorMatrix>
        </filter>
        <linearGradient x1="1.6348818%" y1="75.7762085%" x2="98.0259874%" y2="75.7762074%" id="linearGradient-8">
            <stop stop-color="#DFAC2F" offset="0%"></stop>
            <stop stop-color="#EAC05C" offset="52.1440969%"></stop>
            <stop stop-color="#D4A32B" offset="100%"></stop>
        </linearGradient>
        <linearGradient x1="95.0310549%" y1="75.7762075%" x2="1.6348818%" y2="75.7762085%" id="linearGradient-9">
            <stop stop-color="#F0B831" offset="0%"></stop>
            <stop stop-color="#F7C651" offset="52.1440969%"></stop>
            <stop stop-color="#F0B831" offset="100%"></stop>
        </linearGradient>
    </defs>
    <g id="Page-1" stroke="none" stroke-width="1" fill="none" fill-rule="evenodd">
        <g id="13-copy" transform="translate(-20.000000, -317.000000)">
            <g id="Group-4" transform="translate(15.000000, 319.000000)">
                <g id="Group-6-Copy-2" transform="translate(5.799999, 1.000000)">
                    <ellipse id="Oval-3" fill="url(#radialGradient-1)" opacity="0.661555504" filter="url(#filter-2)" cx="12.22" cy="3.09194965" rx="2.77126984" ry="2.70647773"></ellipse>
                    <g id="Group-5-Copy" transform="translate(0.026413, 1.143286)">
                        <g id="Group-3" transform="translate(9.207440, 0.000000)" fill="url(#linearGradient-3)">
                            <g id="Group-2" transform="translate(1.679691, 0.000000)">
                                <path d="M1.30645578,0 L2.42068765,1.85778626 C2.48080795,1.95802633 2.44828446,2.08802408 2.34804439,2.14814439 C2.31515922,2.1678677 2.27753332,2.17828594 2.23918696,2.17828594 L0.373724605,2.17828594 C0.25683782,2.17828594 0.162082359,2.08353048 0.162082359,1.9666437 C0.162082359,1.92829733 0.172500603,1.89067144 0.192223919,1.85778626 L1.30645578,0 Z" id="Triangle-Copy" transform="translate(1.306473, 1.089143) scale(1, -1) translate(-1.306473, -1.089143) "></path>
                                <path d="M1.30645578,1.86710224 L2.41259447,4.08537935 C2.46391973,4.18830826 2.41989091,4.3122891 2.31425335,4.36229832 C2.28529384,4.37600787 2.25351745,4.38313126 2.22132076,4.38313126 L0.378820085,4.38313126 C0.261374034,4.38313126 0.166165197,4.29036368 0.166165197,4.17592906 C0.166165197,4.14424105 0.173624441,4.11297519 0.187969221,4.08453622 L1.30645578,1.86710224 Z" id="Triangle-Copy"></path>
                            </g>
                            <g transform="translate(2.727278, 2.107099) rotate(-270.000000) translate(-2.727278, -2.107099) translate(1.334421, -0.165628)" id="Group-2">
                                <g>
                                    <path d="M1.30645578,2.17828594 L2.42474921,0.313727728 C2.48431339,0.214414909 2.45016339,0.0867485885 2.34847306,0.0285770195 C2.31576051,0.00986392786 2.27853376,0 2.24062258,0 L0.372288986,0 C0.25443817,0 0.158901208,0.0933033143 0.158901208,0.208398785 C0.158901208,0.245423609 0.169001275,0.281779993 0.188162351,0.313727728 L1.30645578,2.17828594 Z" id="Triangle-Copy"></path>
                                    <path d="M1.30645578,1.86710224 L2.42068765,3.7248885 C2.48080795,3.82512856 2.44828446,3.95512632 2.34804439,4.01524662 C2.31515922,4.03496994 2.27753332,4.04538818 2.23918696,4.04538818 L0.373724605,4.04538818 C0.25683782,4.04538818 0.162082359,3.95063272 0.162082359,3.83374594 C0.162082359,3.79539957 0.172500603,3.75777367 0.192223919,3.7248885 L1.30645578,1.86710224 Z" id="Triangle-Copy"></path>
                                </g>
                            </g>
                        </g>
                        <g id="Group" transform="translate(0.000000, 2.046647)">
                            <path d="M5.87470364,2.13698328 C3.48098977,1.37137307 0.912860007,2.50441773 0.305926582,5.02707682 C-0.309203718,7.58380542 1.50874537,10.5889684 5.57748342,14.1545189 C5.96699393,14.495858 6.56946196,14.4678178 6.92313344,14.0918894 C7.27680492,13.7159609 7.24775164,13.1345007 6.85824113,12.7931616 C3.25604341,9.63645363 1.75132604,7.1490787 2.16179861,5.44298985 C2.49729598,4.04852799 3.88307086,3.43713178 5.27536283,3.88244521 C5.77477306,4.04217757 6.31379205,3.78093127 6.47929545,3.29893527 C6.64479884,2.81693927 6.37411387,2.29671564 5.87470364,2.13698328 Z" id="Path-2-Copy-3" fill="url(#linearGradient-4)" fill-rule="nonzero"></path>
                            <path d="M2.01752974,2.55860744 C3.60572237,1.62802146 5.56016727,1.72613899 6.94094749,2.63409753 C5.1683411,1.77522246 3.62952424,1.82400573 2.01752974,2.55860744 Z" id="Path-11" fill="#FFFFFF"></path>
                            <path d="M22.8038325,2.04991332 C20.473514,1.47300497 18.1204285,2.62471864 17.5424386,5.02707682 C16.9395971,7.53272851 18.6742477,10.4680411 22.5671311,13.9364016 C22.9537138,14.2808271 23.5564008,14.2575796 23.9132702,13.8844769 C24.2701396,13.5113741 24.2460521,12.9297025 23.8594694,12.5852771 C20.4245983,9.52498214 18.9972985,7.10975741 19.3983106,5.44298985 C19.7183792,4.11265642 20.9778567,3.49620728 22.3304419,3.83106179 C22.8400628,3.95722673 23.3591642,3.66077996 23.4898874,3.16892939 C23.6206106,2.67707882 23.3134534,2.17607826 22.8038325,2.04991332 Z" id="Path-2-Copy-2" fill="url(#linearGradient-4)" fill-rule="nonzero" transform="translate(20.795688, 8.041730) scale(-1, 1) translate(-20.795688, -8.041730) "></path>
                            <path d="M17.3561861,2.55860744 C18.9443787,1.62802146 20.8988236,1.72613899 22.2796038,2.63409753 C20.5069974,1.77522246 18.9681806,1.82400573 17.3561861,2.55860744 Z" id="Path-11" fill="#FFFFFF" transform="translate(19.817895, 2.269731) scale(-1, 1) translate(-19.817895, -2.269731) "></path>
                            <path d="M19.6390046,4.35619946 C19.6390046,-0.300170526 12.361343,-1.09727013 11.2417937,3.55602657 C10.564796,6.36990084 12.8323364,9.73544036 17.8512176,13.8103562 C18.2538218,14.1372375 18.8547605,14.0872325 19.1934518,13.6986669 C19.5321431,13.3101014 20.2586553,13.114377 19.8560511,12.7874957 C15.3462116,9.12587949 13.4172568,6.26287705 13.8759896,4.35619946 C14.4834295,1.83143519 18.5120804,2.27268078 18.5120804,4.74045932 C18.5120804,5.24823346 18.1602609,5.27560586 18.6863806,5.27560586 C19.2125003,5.27560586 19.6390046,4.86397359 19.6390046,4.35619946 Z" id="Path-2-Copy" fill="url(#linearGradient-4)" fill-rule="nonzero" transform="translate(15.549569, 7.232822) scale(-1, 1) translate(-15.549569, -7.232822) "></path>
                            <path d="M12.2104332,4.35619946 C12.2104332,-0.300170526 4.93277161,-1.09727013 3.81322228,3.55602657 C3.1362246,6.36990084 5.40376495,9.73544036 10.4226461,13.8103562 C10.8252503,14.1372375 11.4261891,14.0872325 11.7648804,13.6986669 C12.1035717,13.3101014 12.8300839,13.114377 12.4274797,12.7874957 C7.91764015,9.12587949 5.98868537,6.26287705 6.44741813,4.35619946 C7.05485804,1.83143519 11.083509,2.27268078 11.083509,4.74045932 C11.083509,5.24823346 11.1996597,5.33740616 11.2578092,5.27560586 C11.7839289,5.27560586 12.2104332,4.86397359 12.2104332,4.35619946 Z" id="Path-2-Copy" fill="url(#linearGradient-4)" fill-rule="nonzero"></path>
                            <g id="Rectangle-7">
                                <use fill="url(#linearGradient-5)" fill-rule="evenodd" xlink:href="#path-6"></use>
                                <use fill="black" fill-opacity="1" filter="url(#filter-7)" xlink:href="#path-6"></use>
                            </g>
                        </g>
                        <g id="Group-4" transform="translate(4.191546, 14.435455)">
                            <path d="M0.385243765,2.32366138 C0.337633404,1.96405602 0.695362622,1.80448634 1.45843142,1.84495233 C2.85317973,1.91891665 4.57919954,2.26187686 8.00713347,2.26187686 C11.4350674,2.26187686 13.6550852,1.91947642 15.0561185,1.84495233 C15.4800457,1.82240269 15.6704155,1.98197237 15.6272279,2.32366138 L15.6272279,2.32366138 C15.6272279,2.53681349 15.4731931,2.71875375 15.2629618,2.75391919 C12.8596954,3.15590175 10.4469624,3.35689905 8.0247606,3.35689905 C5.60141688,3.35689905 3.17634994,3.15571218 0.749559787,2.75333844 L0.749557271,2.75335362 C0.539370613,2.71850364 0.385243765,2.5367176 0.385243765,2.32366138 Z" id="Rectangle-6-Copy" fill="url(#linearGradient-8)"></path>
                            <path d="M0.385536193,0.669072915 C3.03079759,0.223024305 5.56639977,4.54320679e-17 7.99234271,0 C10.4187261,0 12.9606924,0.22310529 15.6182417,0.669315869 L15.6182392,0.669331083 C15.8235411,0.703801906 15.9620271,0.898176159 15.9275563,1.10347813 C15.9267661,1.10818469 15.9258865,1.11287583 15.9249181,1.11754899 L15.6230337,2.57433793 C13.0730041,2.08398785 10.5294404,1.83881281 7.99234271,1.83881281 C5.45524501,1.83881281 2.91814731,2.08398785 0.381049603,2.57433793 L0.0791465352,1.11720398 C0.0369086557,0.913378667 0.167901151,0.713905039 0.371726462,0.671667159 C0.376313185,0.670716671 0.380917228,0.669851773 0.385536193,0.669072915 Z" id="Rectangle-5-Copy" fill="url(#linearGradient-9)"></path>
                        </g>
                    </g>
                </g>
            </g>
        </g>
    </g>
</svg>