<?xml version="1.0" encoding="UTF-8" standalone="no"?>
<svg width="373px" height="350px" viewBox="0 0 373 350" version="1.1" xmlns="http://www.w3.org/2000/svg" xmlns:xlink="http://www.w3.org/1999/xlink">
    <!-- Generator: Sketch 49.3 (51167) - http://www.bohemiancoding.com/sketch -->
    <title>Group 3</title>
    <desc>Created with Sketch.</desc>
    <defs>
        <rect id="path-1" x="0" y="0" width="309.4" height="266" rx="18.85"></rect>
        <path d="M1.57038357,50.4857482 C44.6101921,64.2902453 94.5700643,65.1858864 151.45,53.1726716 C236.769904,35.1528495 274.457508,36.3706908 310.695912,50.4556882 C310.712698,50.1885886 312.484177,5.95223294 302.774687,3.5884094 C298.44008,1.31892728 274.543647,-0.00604912198 227.387457,0.33811882 C218.06758,0.406139643 166.300669,0.406139643 72.0867226,0.33811882 C30.7133462,2.40902765 7.94878217,5.92264431 3.79303057,10.8789688 C-0.362721031,15.8352933 -1.10360336,29.0375531 1.57038357,50.4857482 Z" id="path-3"></path>
        <radialGradient cx="50%" cy="50%" fx="50%" fy="50%" r="50%" id="radialGradient-5">
            <stop stop-color="#FFC5C5" offset="0%"></stop>
            <stop stop-color="#FFCBCB" stop-opacity="0" offset="100%"></stop>
        </radialGradient>
        <path d="M12.1002388,1.55950496 C7.25384375,4.27367692 2.64909778,14.576689 0,32.7694246 C22.4766005,39.9530263 35.6256222,39.2353262 39.4470653,30.6163243 C43.2685083,21.9973224 41.2868958,16.556542 33.5022276,14.293983 C32.3093525,7.87420945 30.3718065,3.89370956 27.6895896,2.35248328 C23.6662641,0.0406438614 16.9466339,-1.15466701 12.1002388,1.55950496 Z" id="path-6"></path>
        <path d="M3.55889377,0.45709628 C2.13348346,1.25262944 0.779146405,4.27247782 0,9.60483135 C6.61076484,11.7103698 10.4781242,11.5000094 11.602078,8.97375024 C12.7260319,6.44749106 12.1432046,4.85277955 9.85359636,4.1896157 C9.50275074,2.30795794 8.93288427,1.1412597 8.14399693,0.689520962 C6.96066592,0.0119128559 4.98430409,-0.338436881 3.55889377,0.45709628 Z" id="path-8"></path>
        <path d="M3.55889377,0.45709628 C2.13348346,1.25262944 0.779146405,4.27247782 0,9.60483135 C6.61076484,11.7103698 10.4781242,11.5000094 11.602078,8.97375024 C12.7260319,6.44749106 12.1432046,4.85277955 9.85359636,4.1896157 C9.50275074,2.30795794 8.93288427,1.1412597 8.14399693,0.689520962 C6.96066592,0.0119128559 4.98430409,-0.338436881 3.55889377,0.45709628 Z" id="path-10"></path>
        <path d="M3.55889377,0.45709628 C2.13348346,1.25262944 0.779146405,4.27247782 0,9.60483135 C6.61076484,11.7103698 10.4781242,11.5000094 11.602078,8.97375024 C12.7260319,6.44749106 12.1432046,4.85277955 9.85359636,4.1896157 C9.50275074,2.30795794 8.93288427,1.1412597 8.14399693,0.689520962 C6.96066592,0.0119128559 4.98430409,-0.338436881 3.55889377,0.45709628 Z" id="path-12"></path>
    </defs>
    <g id="Page-1" stroke="none" stroke-width="1" fill="none" fill-rule="evenodd">
        <g id="2" transform="translate(-2.000000, -107.000000)">
            <g id="Group-3" transform="translate(0.000000, 103.000000)">
                <g id="Path-38" transform="translate(34.450000, 87.750000)">
                    <mask id="mask-2" fill="white">
                        <use xlink:href="#path-1"></use>
                    </mask>
                    <use id="Mask" fill="#FFFFFF" xlink:href="#path-1"></use>
                    <path d="M0.621109257,37.0853837 C43.6869499,50.7087854 91.7992358,52.8604451 144.957967,43.5403628 C177.937398,37.7582269 215.9418,28.902989 243.68706,28.3111908 C283.024651,27.4721315 308.446349,41.0825111 308.738138,41.5319337 C309.235729,42.2983392 322.122382,-2.78400822 310.307472,-4.21231288 C305.792366,-4.75814413 297.454686,-4.55574625 249.323335,-4.21231288 C239.810729,-4.14443723 180.583465,-4.14443723 71.6415428,-4.21231288 C30.2717194,-4.30805964 7.46596277,-1.88305999 3.22427282,3.06268607 C-1.01741713,8.00843213 -1.88513832,19.3493313 0.621109257,37.0853837 Z" fill="#E3E3E3" mask="url(#mask-2)"></path>
                </g>
                <g id="Path-38-Copy-2" transform="translate(33.150000, 70.200000)">
                    <mask id="mask-4" fill="white">
                        <use xlink:href="#path-3"></use>
                    </mask>
                    <use id="Mask" fill="#F7830E" xlink:href="#path-3"></use>
                    <path d="M-2.48824361,51.1435358 C43.0254257,63.2680544 96.4051521,61.622688 157.650936,46.2074365 C249.519611,23.0845593 269.798961,23.0226288 310.953505,47.9876878 C310.958709,47.9048855 311.953772,42.9960513 313.016607,36.2236538 C315.382211,21.1500012 318.08356,-3.1556614 310.953505,-4.02838657 C306.529877,-4.5753853 288.162216,-2.2767342 241.006026,-1.93256626 C231.68615,-1.86454543 173.658854,-1.86454543 66.924139,-1.93256626 C26.392485,-2.02851781 4.04878217,0.401668653 -0.106969433,5.35799313 C-4.26272103,10.3143176 -5.05647909,25.5761652 -2.48824361,51.1435358 Z" fill="#FF9501" mask="url(#mask-4)"></path>
                    <path d="M36.4057482,38.8627146 L40.131161,53.8875868 C40.3847243,54.9102231 41.4047488,55.5465132 42.4347023,55.3245333 C44.209279,54.942069 45.197817,54.7755686 45.4003163,54.8250321 C45.6646464,54.8895987 46.46121,49.4218464 47.7900068,38.4217751 L36.4057482,38.8627146 Z" id="Path-3" stroke="#A1512F" stroke-width="1.17" fill="#FFF6ED" mask="url(#mask-4)"></path>
                    <path d="M81.9,36.165597 L84.1250949,53.5161043 C84.2498876,54.489194 85.0781957,55.2180603 86.0592547,55.2180603 L88.1849227,55.2180603 L90.1918702,39.8049348 L81.9,36.165597 Z" id="Path-3-Copy" stroke="#A1512F" stroke-width="1.17" fill="#FFF6ED" mask="url(#mask-4)" transform="translate(86.045935, 45.691829) scale(-1, 1) translate(-86.045935, -45.691829) "></path>
                </g>
                <g id="Group-15" transform="translate(33.150000, 0.000000)">
                    <g id="Group-10" transform="translate(33.800000, 92.300000)" stroke="#882502">
                        <path d="M15.4730053,2.85269434 L11.7383561,4.07696939 L8.08332464,5.86500061 C2.25448175,13.8777095 -0.371561508,17.9382442 0.205194862,18.0466044 C2.05821281,18.3947472 9.29370917,24.0707309 10.7808094,24.1670978 C11.2836306,24.1996816 12.4034992,21.7893206 14.1404153,16.9360148 C11.900678,25.0661858 10.7808094,30.7046347 10.7808094,33.8513616 C10.7808094,38.5714519 47.0944125,36.9373264 49.7373666,36.7072471 C52.3803208,36.4771678 49.6762042,21.324191 47.2379788,18.0466044 C49.4994626,22.5038981 50.7016667,24.2945112 50.8445909,23.4184436 C54.540269,19.9274255 56.6678697,16.6373531 57.2273932,13.5482266 L46.1370487,2.85269434 L39.8164647,1.11758491 L15.4730053,2.85269434 Z" id="Path-26" stroke-width="1.17" fill="#FFF55D"></path>
                        <path d="M17.6560241,3.169581 C20.6867002,7.59400725 24.596743,9.69709728 29.3861525,9.47885108 C34.175562,9.26060488 37.2798744,6.16138171 38.6990898,0.181181561 L17.6560241,3.169581 Z" id="Path-37" stroke-width="0.65" fill="#FFF6ED"></path>
                    </g>
                    <g id="Group-13-Copy" transform="translate(54.564928, 56.385404) rotate(8.000000) translate(-54.564928, -56.385404) translate(6.464928, 6.660404)">
                        <g id="Group-10-Copy" transform="translate(0.000000, -0.000000)">
                            <path d="M8.03601747,58.1144664 C8.03601747,58.607781 8.11919737,59.2689361 8.28539823,60.0673581 C10.1435483,68.9938323 14.5615358,83.5884083 38.042508,88.7016815 C60.9286996,93.6854337 67.1805002,89.424072 79.1212489,82.1276332 C92.6572561,71.4221996 93.9769912,51.1045608 94.5072775,45.9617233 C95.0375638,40.8188858 92.6351097,15.9563 70.6403229,13.2323614 C48.6455361,10.5084227 22.9064832,11.0425573 13.4355185,34.5785118 C3.96455383,58.1144664 8.03601747,52.1058217 8.03601747,58.1144664 Z" id="Path-24" stroke="#A1512F" stroke-width="1.17" fill="#FFF6ED"></path>
                            <polygon id="Path-49" fill="#626262" points="42.8965242 66.8643094 34.1344914 66.0127477 42.8965242 64.9816967"></polygon>
                            <path d="M83.0788153,41.0369346 C83.0788153,42.4999157 83.0788153,44.2063685 83.0788153,46.1562928" id="Path-43" stroke="#090909" stroke-width="0.65" stroke-linecap="round"></path>
                            <path d="M84.9177725,41.0369346 C84.9177725,43.080221 84.9177725,45.4635544 84.9177725,48.1869346" id="Path-43-Copy" stroke="#090909" stroke-width="0.65" stroke-linecap="round" transform="translate(85.242772, 44.611935) scale(-1, 1) translate(-85.242772, -44.611935) "></path>
                            <path d="M87.6288153,41.0369346 C87.6288153,44.3804942 87.6288153,48.2804942 87.6288153,52.7369346" id="Path-43-Copy-2" stroke="#090909" stroke-width="0.65" stroke-linecap="round" transform="translate(87.953815, 46.886935) scale(-1, 1) translate(-87.953815, -46.886935) "></path>
                            <circle id="Oval-6" fill="url(#radialGradient-5)" cx="38.025" cy="75.725" r="6.825"></circle>
                            <circle id="Oval-6-Copy-2" fill="url(#radialGradient-5)" cx="79.3" cy="67.6" r="5.85"></circle>
                            <path d="" id="Path-27" stroke="#979797" stroke-width="1.17"></path>
                            <path d="M39.0609172,38.3732392 C39.6676527,42.2629353 40.6740712,46.2652821 42.0801729,50.3802794 C58.9390327,47.0100697 66.866339,41.7521698 65.8620918,34.6065797 L65.9102796,47.0311764 C74.740755,42.1345027 78.872328,37.6677864 78.3049986,33.6310277 L82.9240787,43.1387656 L88.3755512,39.8087366 L94.4897711,50.2709965 C95.7981753,47.5639762 96.2578211,44.5801495 95.8687087,41.3195165 C95.28504,36.4285669 96.2325762,38.9028712 92.8044558,25.7524842 C89.3763353,12.6020972 74.4071095,5.73791381 67.479162,3.30212931 C60.5512145,0.86634482 51.1583867,-1.18861673 38.6704524,1.16098844 C26.1825181,3.51059361 0.199069365,14.2496612 0.445036335,42.1613397 C0.472232975,45.2475422 1.12393782,52.6541864 5.30107376,61.7866463 C6.15289173,63.6489734 8.48444466,67.1172538 12.2957325,72.1914877 C12.7967174,61.7177046 14.3945571,55.1176244 17.0892518,52.3912471 C19.2026478,56.6355594 20.2593457,58.7577155 20.2593457,58.7577155 C20.7933084,54.4198475 23.1764653,50.4868614 27.4088164,46.9587572 L29.6083227,53.9851643 C34.1196616,50.5102423 37.2705264,45.3062672 39.0609172,38.3732392 Z" id="Path-28" stroke="#4A4A4A" stroke-width="1.17" fill="#202020"></path>
                            <path d="M10.0519619,34.2950799 C7.39471506,37.781609 6.00692346,41.7042671 5.88858707,46.0630542 C5.77025067,50.4218413 6.46414648,54.7243134 7.97027447,58.9704703 C9.73932341,53.0251969 11.3328313,48.7227249 12.750798,46.0630542 C14.1687647,43.4033836 16.4604786,40.4183715 19.6259395,37.1080181" id="Path-29" fill="#373737" transform="translate(12.750798, 46.632775) rotate(-11.000000) translate(-12.750798, -46.632775) "></path>
                            <path d="M83.1296309,16.6088795 C79.8089,20.1322625 78.1028278,23.5775089 78.0114144,26.9446186 C77.920001,30.3117283 78.456027,33.6353354 79.6194925,36.9154397 C80.0648141,30.8959542 80.8351559,26.8589299 81.9305178,24.8043668 C83.0258798,22.7498038 85.208283,19.5734979 88.4777273,15.2754493 L83.1296309,16.6088795 Z" id="Path-29-Copy" fill="#373737" transform="translate(83.239576, 26.095444) scale(-1, 1) rotate(14.000000) translate(-83.239576, -26.095444) "></path>
                            <path d="M55.3800232,71.448901 C57.7413316,72.6786683 59.4655092,72.6265999 60.552556,71.2926959" id="Path-31" stroke="#E69797" stroke-width="1.17" stroke-linecap="round" transform="translate(57.966290, 71.813229) rotate(-10.000000) translate(-57.966290, -71.813229) "></path>
                            <path d="M53.95,79.5417071 L53.95,79.5417071 C55.7445216,76.2806013 59.8429175,75.0916998 63.1040234,76.8862215 C63.2491387,76.9660756 63.391261,77.0512521 63.5301008,77.1415774 L64.478157,77.7583572" id="Path-41" stroke="#DF5959" stroke-width="1.17" stroke-linecap="round"></path>
                            <path d="M58.5,83.2 L58.5,83.2 C59.1617998,81.991251 60.6781793,81.5478611 61.8869283,82.2096609 C61.9439573,82.2408847 61.9997441,82.2743257 62.0541611,82.3099071 L62.4,82.5360397" id="Path-41-Copy" stroke="#EDCDCD" stroke-width="0.5" stroke-linecap="round"></path>
                        </g>
                    </g>
                    <g id="Group-14" transform="translate(22.750000, 67.600000)" stroke="#090909" stroke-linecap="round" stroke-width="0.65">
                        <path d="M0,0.890913374 C1.25854327,1.49172764 2.04904268,1.19475652 2.37149823,0" id="Path-42"></path>
                        <path d="M3.57963394,1.66851817 C4.83817721,2.26933244 5.62867662,1.97236131 5.95113217,0.777604793" id="Path-42-Copy" transform="translate(4.765383, 1.373840) rotate(76.000000) translate(-4.765383, -1.373840) "></path>
                        <path d="M1.20937542,4.58788322 C2.63037117,5.26625046 3.52290807,4.93094637 3.88698611,3.58197094" id="Path-42-Copy-2" transform="translate(2.548181, 4.255168) rotate(211.000000) translate(-2.548181, -4.255168) "></path>
                    </g>
                </g>
                <g id="Group-4" transform="translate(215.800000, 16.900000)">
                    <g id="Path-45-Copy">
                        <mask id="mask-7" fill="white">
                            <use xlink:href="#path-6"></use>
                        </mask>
                        <g id="Mask">
                            <use fill="#FFAF40" fill-rule="evenodd" xlink:href="#path-6"></use>
                            <path stroke="#FFFFFF" stroke-width="0.65" d="M33.784984,14.0387018 C41.6131176,16.3947877 43.6091205,22.0309281 39.7441719,30.7480538 C35.8270026,39.5829596 22.5231813,40.309109 -0.0989407797,33.0789981 L-0.361295752,32.9951485 L-0.321608333,32.7225943 C2.21126594,15.3280261 6.68020105,4.22244289 11.9414342,1.27594526 C16.4383977,-1.24253125 23.1221513,-0.646841327 27.8515099,2.07069114 C30.6096856,3.65556404 32.5731875,7.64825672 33.784984,14.0387018 Z"></path>
                        </g>
                        <path d="M14.0502388,2.20950496 C9.20384375,4.92367692 4.59909778,15.226689 1.95,33.4194246 C24.4266005,40.6030263 37.5756222,39.8853262 41.3970653,31.2663243 C45.2185083,22.6473224 43.2368958,17.206542 35.4522276,14.943983 C34.2593525,8.52420945 32.3218065,4.54370956 29.6395896,3.00248328 C25.6162641,0.690643861 18.8966339,-0.504667005 14.0502388,2.20950496 Z" fill="#FFBE00" mask="url(#mask-7)"></path>
                    </g>
                    <path d="M33.225356,14.5851914 C22.4629339,25.2565073 11.5575877,31.2170602 0.509317357,32.4668501" id="Path-46" stroke="#F5A623" stroke-width="0.65" stroke-linecap="round"></path>
                    <path d="M33.383948,13.9804216 C38.7575612,8.07383231 41.5373291,4.55111619 41.7232517,3.41227321 C42.0021358,1.70400875 43.9659491,3.25305798 43.7199844,3.87691157 C43.5560079,4.29281396 40.1106624,7.95406106 33.383948,14.8606529 L33.383948,13.9804216 Z" id="Path-47" fill="#B79148"></path>
                </g>
                <g id="Group-4-Copy" transform="translate(305.314162, 53.965250) rotate(-26.000000) translate(-305.314162, -53.965250) translate(298.814162, 48.440250)">
                    <g id="Path-45-Copy">
                        <mask id="mask-9" fill="white">
                            <use xlink:href="#path-8"></use>
                        </mask>
                        <g id="Mask">
                            <use fill="#FFAF40" fill-rule="evenodd" xlink:href="#path-8"></use>
                            <path stroke="#FFFFFF" stroke-width="0.5" d="M10.0707248,3.99419848 C12.3942835,4.73013511 12.9882445,6.47314543 11.8304916,9.07537333 C10.6327858,11.7674012 6.64678103,11.9842152 -0.0758700587,9.84304079 L-0.278051849,9.77864559 L-0.247373223,9.56868597 C0.504208537,4.42498047 1.83310723,1.13397168 3.43705745,0.238793942 C4.8117359,-0.528425353 6.83378036,-0.348831957 8.26822772,0.472572328 C9.11477215,0.957327111 9.70515005,2.13373932 10.0707248,3.99419848 Z"></path>
                        </g>
                        <path d="M4.13242318,0.647613522 C2.70701287,1.44314668 1.35267582,4.46299506 0.573529412,9.79534859 C7.18429425,11.900887 11.0516536,11.6905267 12.1756074,9.16426748 C13.2995613,6.6380083 12.716734,5.04329679 10.4271258,4.38013294 C10.0762802,2.49847519 9.50641368,1.33177694 8.71752634,0.880038203 C7.53419533,0.202430097 5.5578335,-0.147919639 4.13242318,0.647613522 Z" fill="#FFBE00" mask="url(#mask-9)"></path>
                    </g>
                    <path d="M9.77216353,4.2749699 C6.60674527,7.40276938 3.3992905,9.14982799 0.149799223,9.51614573" id="Path-46" stroke="#F5A623" stroke-width="0.5" stroke-linecap="round"></path>
                    <path d="M9.81880824,4.09770977 C11.3992827,2.36646809 12.2168615,1.33394785 12.2715446,1.00014904 C12.3535693,0.49945084 12.9311615,0.953482512 12.8588189,1.13633615 C12.8105905,1.25823858 11.7972537,2.33136272 9.81880824,4.3557086 L9.81880824,4.09770977 Z" id="Path-47" fill="#B79148"></path>
                </g>
                <g id="Group-4-Copy-3" transform="translate(8.264162, 122.215250) rotate(-26.000000) translate(-8.264162, -122.215250) translate(1.764162, 116.690250)">
                    <g id="Path-45-Copy">
                        <mask id="mask-11" fill="white">
                            <use xlink:href="#path-10"></use>
                        </mask>
                        <g id="Mask">
                            <use fill="#FFAF40" fill-rule="evenodd" xlink:href="#path-10"></use>
                            <path stroke="#FFFFFF" stroke-width="0.5" d="M10.0707248,3.99419848 C12.3942835,4.73013511 12.9882445,6.47314543 11.8304916,9.07537333 C10.6327858,11.7674012 6.64678103,11.9842152 -0.0758700587,9.84304079 L-0.278051849,9.77864559 L-0.247373223,9.56868597 C0.504208537,4.42498047 1.83310723,1.13397168 3.43705745,0.238793942 C4.8117359,-0.528425353 6.83378036,-0.348831957 8.26822772,0.472572328 C9.11477215,0.957327111 9.70515005,2.13373932 10.0707248,3.99419848 Z"></path>
                        </g>
                        <path d="M4.13242318,0.647613522 C2.70701287,1.44314668 1.35267582,4.46299506 0.573529412,9.79534859 C7.18429425,11.900887 11.0516536,11.6905267 12.1756074,9.16426748 C13.2995613,6.6380083 12.716734,5.04329679 10.4271258,4.38013294 C10.0762802,2.49847519 9.50641368,1.33177694 8.71752634,0.880038203 C7.53419533,0.202430097 5.5578335,-0.147919639 4.13242318,0.647613522 Z" fill="#FFBE00" mask="url(#mask-11)"></path>
                    </g>
                    <path d="M9.77216353,4.2749699 C6.60674527,7.40276938 3.3992905,9.14982799 0.149799223,9.51614573" id="Path-46" stroke="#F5A623" stroke-width="0.5" stroke-linecap="round"></path>
                    <path d="M9.81880824,4.09770977 C11.3992827,2.36646809 12.2168615,1.33394785 12.2715446,1.00014904 C12.3535693,0.49945084 12.9311615,0.953482512 12.8588189,1.13633615 C12.8105905,1.25823858 11.7972537,2.33136272 9.81880824,4.3557086 L9.81880824,4.09770977 Z" id="Path-47" fill="#B79148"></path>
                </g>
                <g id="Group-4-Copy-2" transform="translate(229.914162, 87.765250) rotate(-9.000000) translate(-229.914162, -87.765250) translate(223.414162, 82.240250)">
                    <g id="Path-45-Copy">
                        <mask id="mask-13" fill="white">
                            <use xlink:href="#path-12"></use>
                        </mask>
                        <g id="Mask">
                            <use fill="#FFAF40" fill-rule="evenodd" xlink:href="#path-12"></use>
                            <path stroke="#FFFFFF" stroke-width="0.5" d="M10.0707248,3.99419848 C12.3942835,4.73013511 12.9882445,6.47314543 11.8304916,9.07537333 C10.6327858,11.7674012 6.64678103,11.9842152 -0.0758700587,9.84304079 L-0.278051849,9.77864559 L-0.247373223,9.56868597 C0.504208537,4.42498047 1.83310723,1.13397168 3.43705745,0.238793942 C4.8117359,-0.528425353 6.83378036,-0.348831957 8.26822772,0.472572328 C9.11477215,0.957327111 9.70515005,2.13373932 10.0707248,3.99419848 Z"></path>
                        </g>
                        <path d="M4.13242318,0.647613522 C2.70701287,1.44314668 1.35267582,4.46299506 0.573529412,9.79534859 C7.18429425,11.900887 11.0516536,11.6905267 12.1756074,9.16426748 C13.2995613,6.6380083 12.716734,5.04329679 10.4271258,4.38013294 C10.0762802,2.49847519 9.50641368,1.33177694 8.71752634,0.880038203 C7.53419533,0.202430097 5.5578335,-0.147919639 4.13242318,0.647613522 Z" fill="#FFBE00" mask="url(#mask-13)"></path>
                    </g>
                    <path d="M9.77216353,4.2749699 C6.60674527,7.40276938 3.3992905,9.14982799 0.149799223,9.51614573" id="Path-46" stroke="#F5A623" stroke-width="0.5" stroke-linecap="round"></path>
                    <path d="M9.81880824,4.09770977 C11.3992827,2.36646809 12.2168615,1.33394785 12.2715446,1.00014904 C12.3535693,0.49945084 12.9311615,0.953482512 12.8588189,1.13633615 C12.8105905,1.25823858 11.7972537,2.33136272 9.81880824,4.3557086 L9.81880824,4.09770977 Z" id="Path-47" fill="#B79148"></path>
                </g>
                <path d="M374.585347,48.1 C371.046592,53.1530876 367.293458,57.1348572 363.115398,57.1313848 C358.937338,57.1279124 359.736013,53.7688005 363.115398,52.8919855 C366.494782,52.0151704 372.698284,55.5821958 357.5,61.5072968" id="Path-44-Copy" stroke="#FFFFFF" stroke-width="0.65" stroke-linecap="round"></path>
                <path d="M33.3353472,41.6 C29.7965919,46.6530876 26.0434576,50.6348572 21.8653976,50.6313848 C17.6873377,50.6279124 18.4860132,47.2688005 21.8653976,46.3919855 C25.2447821,45.5151704 31.448284,49.0821958 16.25,55.0072968" id="Path-44-Copy-2" stroke="#FFFFFF" stroke-width="0.65" stroke-linecap="round"></path>
                <path d="M89.3847659,20.6419887 C87.9032826,25.0782793 82.7454829,30.6090725 76.0980407,34.2271087 C71.6664125,36.6391328 68.2702297,41.1387546 65.9094921,47.7259739 C63.5495316,39.3180804 66.0093456,32.7021095 73.2889339,27.8780612 C80.5685223,23.0540129 85.9337996,17.7590604 89.3847659,11.9932037 C90.3724214,14.8015333 90.3724214,17.6844617 89.3847659,20.6419887 Z" id="Path-45" fill="#373737"></path>
                <path d="M81.3804987,65 L81.1614364,65.7064231 C80.8419983,66.7365338 79.9197673,67.4624866 78.8434475,67.531075 L69.55,68.123299" id="Path-48" stroke="#555555" stroke-width="1.16999997" stroke-linecap="round"></path>
                <path d="M119.080499,63.7 L118.861436,64.4064231 C118.541998,65.4365338 117.619767,66.1624866 116.543447,66.231075 L107.25,66.823299" id="Path-48-Copy" stroke="#555555" stroke-width="1.16999997" stroke-linecap="round" transform="translate(113.165249, 65.261650) scale(-1, 1) translate(-113.165249, -65.261650) "></path>
                <polygon id="Path-49-Copy" fill="#626262" transform="translate(112.931016, 70.491306) rotate(-180.000000) translate(-112.931016, -70.491306) " points="117.312033 71.4326127 108.55 70.581051 117.312033 69.55"></polygon>
                <path d="M368.060436,102.05 C366.47933,119.910338 365.827432,130.111765 366.104744,132.65428 C366.520712,136.468053 369.452918,137.908083 369.965215,131.014516 C370.306746,126.418804 369.67182,116.763966 368.060436,102.05 Z" id="Path-50-Copy" fill="#56C0E0"></path>
                <path d="M364.545727,4.62618186 C359.520702,11.8015555 350.859219,23.1280885 344.926383,23.1231577 C338.993547,23.1182269 342.689217,15.0206702 347.487936,13.7755947 C352.286655,12.5305191 361.626538,16.6973389 339.275308,28.7684959" id="Path-44" stroke="#FFFFFF" stroke-width="0.65" stroke-linecap="round"></path>
            </g>
        </g>
    </g>
</svg>