<?xml version="1.0" encoding="UTF-8" standalone="no"?>
<svg width="272px" height="221px" viewBox="0 0 272 221" version="1.1" xmlns="http://www.w3.org/2000/svg" xmlns:xlink="http://www.w3.org/1999/xlink">
    <!-- Generator: Sketch 49.3 (51167) - http://www.bohemiancoding.com/sketch -->
    <title>Group 5 Copy</title>
    <desc>Created with Sketch.</desc>
    <defs>
        <linearGradient x1="50%" y1="0%" x2="50%" y2="100%" id="linearGradient-1">
            <stop stop-color="#E7F9F9" offset="0%"></stop>
            <stop stop-color="#EEFAF9" offset="57.1005536%"></stop>
            <stop stop-color="#EFFAF9" stop-opacity="0" offset="100%"></stop>
        </linearGradient>
        <linearGradient x1="50%" y1="0%" x2="50%" y2="100%" id="linearGradient-2">
            <stop stop-color="#49A8F3" offset="0%"></stop>
            <stop stop-color="#A3DBF3" offset="100%"></stop>
        </linearGradient>
        <linearGradient x1="50%" y1="0%" x2="50%" y2="100%" id="linearGradient-3">
            <stop stop-color="#74C1FF" offset="0%"></stop>
            <stop stop-color="#B8E7FB" offset="100%"></stop>
        </linearGradient>
        <linearGradient x1="0%" y1="20.0034795%" x2="100%" y2="20.0034797%" id="linearGradient-4">
            <stop stop-color="#3983C5" offset="0%"></stop>
            <stop stop-color="#63AADF" offset="100%"></stop>
        </linearGradient>
        <ellipse id="path-5" cx="12.5" cy="12.375" rx="9.09090909" ry="9"></ellipse>
        <filter x="-13.8%" y="-13.9%" width="127.5%" height="127.8%" filterUnits="objectBoundingBox" id="filter-6">
            <feGaussianBlur stdDeviation="1.5" in="SourceAlpha" result="shadowBlurInner1"></feGaussianBlur>
            <feOffset dx="2" dy="-1" in="shadowBlurInner1" result="shadowOffsetInner1"></feOffset>
            <feComposite in="shadowOffsetInner1" in2="SourceAlpha" operator="arithmetic" k2="-1" k3="1" result="shadowInnerInner1"></feComposite>
            <feColorMatrix values="0 0 0 0 0.544093277   0 0 0 0 0.856029456   0 0 0 0 1  0 0 0 1 0" type="matrix" in="shadowInnerInner1"></feColorMatrix>
        </filter>
        <path d="M12.5,24.5454545 C5.59644063,24.5454545 0,19.0507674 0,12.2727273 C0,5.49468716 5.59644063,0 12.5,0 C19.4035594,0 25,5.49468716 25,12.2727273 C25,19.0507674 19.4035594,24.5454545 12.5,24.5454545 Z M12.5,20.4545455 C17.1023729,20.4545455 20.8333333,16.7914207 20.8333333,12.2727273 C20.8333333,7.75403387 17.1023729,4.09090909 12.5,4.09090909 C7.89762709,4.09090909 4.16666667,7.75403387 4.16666667,12.2727273 C4.16666667,16.7914207 7.89762709,20.4545455 12.5,20.4545455 Z" id="path-7"></path>
        <linearGradient x1="-1.11022302e-14%" y1="50%" x2="100%" y2="50%" id="linearGradient-9">
            <stop stop-color="#B6E6FF" offset="0%"></stop>
            <stop stop-color="#8ECCFF" offset="100%"></stop>
        </linearGradient>
        <ellipse id="path-10" cx="12.5" cy="13.2954545" rx="12.5" ry="12.2727273"></ellipse>
        <filter x="-6.0%" y="-6.1%" width="112.0%" height="112.2%" filterUnits="objectBoundingBox" id="filter-11">
            <feGaussianBlur stdDeviation="1" in="SourceAlpha" result="shadowBlurInner1"></feGaussianBlur>
            <feOffset dx="1" dy="-1" in="shadowBlurInner1" result="shadowOffsetInner1"></feOffset>
            <feComposite in="shadowOffsetInner1" in2="SourceAlpha" operator="arithmetic" k2="-1" k3="1" result="shadowInnerInner1"></feComposite>
            <feColorMatrix values="0 0 0 0 0.473472015   0 0 0 0 0.727013639   0 0 0 0 0.929846939  0 0 0 0.349609375 0" type="matrix" in="shadowInnerInner1"></feColorMatrix>
        </filter>
    </defs>
    <g id="Page-1" stroke="none" stroke-width="1" fill="none" fill-rule="evenodd">
        <g id="9-copy" transform="translate(-52.000000, -164.000000)">
            <g id="Group-7" transform="translate(79.000000, 200.000000)">
                <g id="Group-6" transform="translate(30.000000, 22.000000)">
                    <rect id="Rectangle-7" fill="url(#linearGradient-1)" x="0" y="12" width="24" height="50"></rect>
                    <rect id="Rectangle-7-Copy" fill="#E7F9F9" x="0" y="0" width="8" height="12"></rect>
                </g>
                <rect id="Rectangle-10" fill="url(#linearGradient-1)" x="143" y="34" width="23" height="65"></rect>
                <rect id="Rectangle-10-Copy" fill="url(#linearGradient-1)" x="173" y="52" width="21" height="47"></rect>
                <g id="Group-2" transform="translate(0.000000, 84.000000)">
                    <path d="M216.982426,41 C215.930236,55.9571324 167.763931,68 108.5,68 C49.236069,68 1.06976432,55.9571324 0.0175739444,41 L0,41 L0,23 L18,23 L18,25.3252536 C37.4264108,17.8975663 70.7066266,13 108.5,13 C146.293373,13 179.573589,17.8975663 199,25.3252536 L199,23 L217,23 L217,41 L216.982426,41 Z" id="Combined-Shape" fill="#F3FAFC"></path>
                    <ellipse id="Oval-7-Copy" fill="#F1F7FA" cx="108.5" cy="27.5" rx="108.5" ry="27.5"></ellipse>
                </g>
                <ellipse id="Oval-3" fill="#DDF6F7" transform="translate(63.500000, 110.500000) rotate(2.000000) translate(-63.500000, -110.500000) " cx="63.5" cy="110.5" rx="45.5" ry="8.5"></ellipse>
                <g id="Group-3" transform="translate(72.000000, 22.000000)">
                    <path d="M4,0 L70,0 C71.9605545,0 72.9408318,1.12577615 72.9408318,3.37732845 C72.9408318,3.49225781 72.2043545,2.51545336 72.2044819,3.07788937 C72.2053174,6.76724012 71.4943616,34.8609572 70.0716143,87.3590405 L70.0716126,87.3590405 C70.0306993,88.8687033 68.8739486,90.1126051 67.3712264,90.2628774 L3.29851116,96.6701489 C1.64987956,96.835012 0.179751589,95.6321801 0.0148884294,93.9835485 C0.00496897481,93.8843539 5.34127893e-15,93.7847266 5.32907052e-15,93.6850373 L0,4 C-2.705415e-16,1.790861 1.790861,4.05812251e-16 4,0 Z" id="Rectangle-3" fill="url(#linearGradient-2)"></path>
                    <polygon id="Path-2" fill="#A1DAF3" points="2.00398361 96.5174015 5.00941957 97.5157787 5.99699632 93.1918101 1.71317438 92.4643927 0.470795772 93.4483327"></polygon>
                    <path d="M6,1 L70,1 C71.6568542,1 73,2.34314575 73,4 L73,88.2850373 C73,89.8262917 71.8321165,91.1167883 70.2985112,91.2701489 L6.29851116,97.6701489 C4.64987956,97.835012 3.17975159,96.6321801 3.01488843,94.9835485 C3.00496897,94.8843539 3,94.7847266 3,94.6850373 L3,4 C3,2.34314575 4.34314575,1 6,1 Z" id="Rectangle-3" fill="url(#linearGradient-3)"></path>
                    <path d="M68.1989332,5 L10,5 C9.44771525,5 9,5.44771525 9,6 L9,90.9388204 C9,91.4911052 9.44771525,91.9388204 10,91.9388204 C10.0247444,91.9388204 10.0494802,91.937902 10.0741564,91.9360671 L68.2730896,87.6083253 C68.7951642,87.5695032 69.1989332,87.1345948 69.1989332,86.6110787 L69.1989332,6 C69.1989332,5.44771525 68.7512179,5 68.1989332,5 Z" id="Path-7" fill="#FFFFFF"></path>
                    <path d="M15.9646688,13.8348387 L63.1971359,13.0003185 C64.3015331,12.9808056 65.2126422,13.8602781 65.232155,14.9646752 C65.2323631,14.9764511 65.2324671,14.9882287 65.2324671,15.0000064 L65.2324671,15.9993821 C65.2324671,17.0901783 64.3584243,17.9798005 63.2677983,17.99907 L16.0353312,18.8335902 C14.9309341,18.8531031 14.019825,17.9736307 14.0003121,16.8692335 C14.000104,16.8574576 14,16.8456801 14,16.8339023 L14,15.8345266 C14,14.7437304 14.8740428,13.8541083 15.9646688,13.8348387 Z" id="Rectangle-4" fill="#EBF7F7"></path>
                    <path d="M15.9646688,24.8348387 L63.1971359,24.0003185 C64.3015331,23.9808056 65.2126422,24.8602781 65.232155,25.9646752 C65.2323631,25.9764511 65.2324671,25.9882287 65.2324671,26.0000064 L65.2324671,26.9993821 C65.2324671,28.0901783 64.3584243,28.9798005 63.2677983,28.99907 L16.0353312,29.8335902 C14.9309341,29.8531031 14.019825,28.9736307 14.0003121,27.8692335 C14.000104,27.8574576 14,27.8456801 14,27.8339023 L14,26.8345266 C14,25.7437304 14.8740428,24.8541083 15.9646688,24.8348387 Z" id="Rectangle-4-Copy" fill="#EBF7F7"></path>
                    <path d="M15.9646688,37.8348387 L63.1971359,37.0003185 C64.3015331,36.9808056 65.2126422,37.8602781 65.232155,38.9646752 C65.2323631,38.9764511 65.2324671,38.9882287 65.2324671,39.0000064 L65.2324671,39.9993821 C65.2324671,41.0901783 64.3584243,41.9798005 63.2677983,41.99907 L16.0353312,42.8335902 C14.9309341,42.8531031 14.019825,41.9736307 14.0003121,40.8692335 C14.000104,40.8574576 14,40.8456801 14,40.8339023 L14,39.8345266 C14,38.7437304 14.8740428,37.8541083 15.9646688,37.8348387 Z" id="Rectangle-4-Copy-2" fill="#EBF7F7"></path>
                </g>
                <g id="Group-5" transform="translate(96.500000, 107.500000) rotate(-75.000000) translate(-96.500000, -107.500000) translate(84.000000, 85.000000)">
                    <path d="M10.4166667,22.5 L14.5833333,22.5 L14.5833333,42.9166667 C14.5833333,44.0672599 13.6505932,45 12.5,45 L12.5,45 C11.3494068,45 10.4166667,44.0672599 10.4166667,42.9166667 L10.4166667,22.5 Z" id="Rectangle-5" fill="url(#linearGradient-4)"></path>
                    <g id="Oval-4">
                        <g id="Oval-5" opacity="0.811333955">
                            <use fill="#FFFFFF" fill-rule="evenodd" xlink:href="#path-5"></use>
                            <use fill="black" fill-opacity="1" filter="url(#filter-6)" xlink:href="#path-5"></use>
                        </g>
                        <mask id="mask-8" fill="white">
                            <use xlink:href="#path-7"></use>
                        </mask>
                        <use id="Mask" fill="#579ED8" xlink:href="#path-7"></use>
                        <g mask="url(#mask-8)">
                            <use fill="url(#linearGradient-9)" fill-rule="evenodd" xlink:href="#path-10"></use>
                            <use fill="black" fill-opacity="1" filter="url(#filter-11)" xlink:href="#path-10"></use>
                        </g>
                        <ellipse id="Oval-4-Copy" fill="#5D93DA" mask="url(#mask-8)" cx="12.5" cy="13.2954545" rx="8.33333333" ry="8.18181818"></ellipse>
                    </g>
                </g>
                <path d="M46,15.9499909 L46,16 L24,16 C22.8954305,16 22,15.1045695 22,14 C22,12.8954305 22.8954305,12 24,12 C24.0566644,12 24.1127785,12.0023565 24.1682495,12.0069768 C24.5781095,10.8381415 25.6911756,10 27,10 C27.0849967,10 27.1691677,10.0035347 27.2523742,10.0104653 C27.8671643,8.25721219 29.5367633,7 31.5,7 C33.1403804,7 34.57576,7.87771278 35.3621233,9.1891228 C35.7188665,9.06654431 36.1016621,9 36.5,9 C37.4793441,9 38.3647415,9.40223361 39,10.0505086 C39.6352585,9.40223361 40.5206559,9 41.5,9 C42.9446163,9 44.1848162,9.87521101 44.7192842,11.1243178 C44.9649269,11.0436408 45.227367,11 45.5,11 C46.8807119,11 48,12.1192881 48,13.5 C48,14.709479 47.1411202,15.7183558 46,15.9499909 Z" id="Combined-Shape" fill="#E7F6FF"></path>
                <path d="M185.846154,13.9222081 L185.846154,14 L151.153846,14 C149.412025,14 148,12.6071081 148,10.8888889 C148,9.17066967 149.412025,7.77777778 151.153846,7.77777778 C151.243202,7.77777778 151.331689,7.78144344 151.419163,7.78863064 C152.06548,5.97044227 153.8207,4.66666667 155.884615,4.66666667 C156.018649,4.66666667 156.15138,4.67216516 156.28259,4.68294596 C157.252067,1.95566341 159.884896,0 162.980769,0 C165.567523,0 167.831006,1.36533099 169.071041,3.40530214 C169.633597,3.21462448 170.237236,3.11111111 170.865385,3.11111111 C172.409735,3.11111111 173.805938,3.73680783 174.807692,4.74523565 C175.809446,3.73680783 177.20565,3.11111111 178.75,3.11111111 C181.028049,3.11111111 182.983749,4.47255046 183.826564,6.41560542 C184.213923,6.29010788 184.627771,6.22222222 185.057692,6.22222222 C187.234969,6.22222222 189,7.96333708 189,10.1111111 C189,11.9925228 187.645613,13.5618868 185.846154,13.9222081 Z" id="Combined-Shape-Copy" fill="#E7F6FF"></path>
            </g>
        </g>
    </g>
</svg>