<?xml version="1.0" encoding="UTF-8" standalone="no"?>
<svg width="375px" height="120px" viewBox="0 0 375 120" version="1.1" xmlns="http://www.w3.org/2000/svg" xmlns:xlink="http://www.w3.org/1999/xlink">
    <!-- Generator: Sketch 49.3 (51167) - http://www.bohemiancoding.com/sketch -->
    <title>Group 13</title>
    <desc>Created with Sketch.</desc>
    <defs>
        <rect id="path-1" x="0" y="0" width="375" height="120"></rect>
        <linearGradient x1="50%" y1="0%" x2="50%" y2="100%" id="linearGradient-3">
            <stop stop-color="#7ED7FF" offset="0%"></stop>
            <stop stop-color="#41C0FA" offset="100%"></stop>
        </linearGradient>
        <filter x="-5.8%" y="-23.0%" width="111.5%" height="156.8%" filterUnits="objectBoundingBox" id="filter-4">
            <feOffset dx="0" dy="2" in="SourceAlpha" result="shadowOffsetOuter1"></feOffset>
            <feGaussianBlur stdDeviation="2.5" in="shadowOffsetOuter1" result="shadowBlurOuter1"></feGaussianBlur>
            <feColorMatrix values="0 0 0 0 0.0837092497   0 0 0 0 0.590491988   0 0 0 0 0.819913903  0 0 0 0.414855072 0" type="matrix" in="shadowBlurOuter1" result="shadowMatrixOuter1"></feColorMatrix>
            <feMerge>
                <feMergeNode in="shadowMatrixOuter1"></feMergeNode>
                <feMergeNode in="SourceGraphic"></feMergeNode>
            </feMerge>
        </filter>
    </defs>
    <g id="Page-1" stroke="none" stroke-width="1" fill="none" fill-rule="evenodd">
        <g id="5" transform="translate(0.000000, -107.000000)">
            <g id="Group-13" transform="translate(0.000000, 107.000000)">
                <g id="Group-2">
                    <mask id="mask-2" fill="white">
                        <use xlink:href="#path-1"></use>
                    </mask>
                    <use id="Rectangle-8" fill="#28BCFF" xlink:href="#path-1"></use>
                    <g id="Group-20" opacity="0.429999977" mask="url(#mask-2)">
                        <g transform="translate(13.602446, 28.299530) rotate(-25.000000) translate(-13.602446, -28.299530) translate(-8.397554, 7.799530)" id="002-coins">
                            <g transform="translate(0.846987, 0.394362)">
                                <g id="XMLID_21_" fill-rule="nonzero">
                                    <path d="M21.3252517,34.0706714 C10.7663107,34.0706714 2.20606052,31.8280641 2.20606052,29.5279152 L2.20606052,34.8247689 C2.21194334,37.1234035 10.7692521,39.3705536 21.3252517,39.3705536 C31.8812512,39.3705536 40.43856,37.1234035 40.4444428,34.8247689 L40.4444428,29.5279152 C40.4444428,31.8280641 31.8841926,34.0706714 21.3252517,34.0706714" id="XMLID_148_" fill="#B3E7FF"></path>
                                    <path d="M19.1191911,25.742285 C8.56025016,25.742285 0,23.4996777 0,21.1995289 L0,26.4963826 C0.00588282804,28.7950172 8.56319157,31.0421672 19.1191911,31.0421672 C29.6751907,31.0421672 38.2324994,28.7950172 38.2383823,26.4963826 L38.2383823,21.1995289 C38.2383823,23.4996777 29.6781321,25.742285 19.1191911,25.742285" id="XMLID_147_" fill="#B3E7FF"></path>
                                    <path d="M23.5313122,17.4138987 C12.9723712,17.4138987 4.41212103,15.1712914 4.41212103,12.8711425 L4.41212103,18.1679962 C4.41800386,20.4666309 12.9753126,22.7137809 23.5313122,22.7137809 C34.0873117,22.7137809 42.6446205,20.4666309 42.6505033,18.1679962 L42.6505033,12.8711425 C42.6505033,15.1712914 34.0902532,17.4138987 23.5313122,17.4138987" id="XMLID_146_" fill="#B3E7FF"></path>
                                    <path d="M38.2383823,3.88405654 C38.2383823,6.18344829 29.6781321,8.32838633 19.1191911,8.32838633 C8.56025016,8.32838633 0,6.18344829 0,3.88405654 C0,1.58390766 8.56025016,0 19.1191911,0 C29.6781321,0 38.2383823,1.58390766 38.2383823,3.88405654" id="XMLID_145_" fill="url(#linearGradient-3)"></path>
                                    <path d="M19.1191911,8.32838633 C8.56025016,8.32838633 0,6.08577903 0,3.78563015 L0,9.08248386 C0.00588282804,11.3811185 8.56319157,13.6282685 19.1191911,13.6282685 C29.6751907,13.6282685 38.2324994,11.3811185 38.2383823,9.08248386 L38.2383823,3.78563015 C38.2383823,6.08577903 29.6781321,8.32838633 19.1191911,8.32838633" id="XMLID_144_" fill="#B3E7FF"></path>
                                    <path d="M33.8262612,6.60138186 L33.8262612,11.8982356 C34.3601279,11.7422676 34.8498733,11.5787284 35.2969683,11.4091322 L35.2969683,6.11303557 C34.8498733,6.2826318 34.3601279,6.4454139 33.8262612,6.60138186" id="XMLID_142_" fill="url(#linearGradient-3)"></path>
                                    <path d="M30.1494937,7.437249 L30.1494937,12.735617 C30.6590937,12.6447618 31.1495745,12.549364 31.6202007,12.4486662 L31.6202007,7.15105536 C31.1495745,7.25175312 30.6590937,7.347151 30.1494937,7.437249" id="XMLID_140_" fill="url(#linearGradient-3)"></path>
                                    <path d="M10.2949491,7.77492721 L10.2949491,13.0732952 C10.7743996,13.1368938 11.2634096,13.1959496 11.7656561,13.2489484 L11.7656561,7.95058045 C11.2634096,7.89758162 10.7743996,7.83776867 10.2949491,7.77492721" id="XMLID_139_" fill="url(#linearGradient-3)"></path>
                                    <path d="M26.4727262,7.95133757 L26.4727262,13.2497055 C26.9749726,13.1959496 27.4639827,13.1368938 27.9434332,13.0740523 L27.9434332,7.77492721 C27.4639827,7.83928292 26.9749726,7.89833875 26.4727262,7.95133757" id="XMLID_138_" fill="url(#linearGradient-3)"></path>
                                    <path d="M13.9717166,8.14591896 L13.9717166,13.445044 C14.4548439,13.4798718 14.9445893,13.510914 15.4424236,13.5358992 L15.4424236,8.23601696 C14.9445893,8.2110318 14.4548439,8.18074676 13.9717166,8.14591896" id="XMLID_137_" fill="url(#linearGradient-3)"></path>
                                    <path d="M22.7959587,8.23601696 L22.7959587,13.5358992 C23.293793,13.510914 23.7835384,13.4798718 24.2666657,13.445044 L24.2666657,8.14591896 C23.7835384,8.18074676 23.293793,8.2110318 22.7959587,8.23601696" id="XMLID_136_" fill="url(#linearGradient-3)"></path>
                                    <path d="M19.1191911,8.32838633 C18.8728477,8.32838633 18.627975,8.32611496 18.3838376,8.32384358 L18.3838376,13.6237258 C18.627975,13.6259972 18.8728477,13.6282685 19.1191911,13.6282685 C19.3655346,13.6282685 19.6104073,13.6259972 19.8545446,13.6237258 L19.8545446,8.32384358 C19.6104073,8.32611496 19.3655346,8.32838633 19.1191911,8.32838633" id="XMLID_135_" fill="url(#linearGradient-3)"></path>
                                    <path d="M7.35353505,15.1985479 L7.35353505,20.4946445 C7.80062998,20.6642407 8.29037542,20.82778 8.82424206,20.9837479 L8.82424206,15.6868942 C8.29037542,15.5309263 7.80062998,15.367387 7.35353505,15.1985479" id="XMLID_134_" fill="url(#linearGradient-3)"></path>
                                    <path d="M38.2383823,15.6868942 L38.2383823,20.9837479 C38.7722489,20.82778 39.2619944,20.6642407 39.7090893,20.4946445 L39.7090893,15.1985479 C39.2619944,15.3681442 38.7722489,15.5309263 38.2383823,15.6868942" id="XMLID_133_" fill="url(#linearGradient-3)"></path>
                                    <path d="M11.0303026,16.2365677 L11.0303026,21.5341786 C11.5009288,21.6348763 11.9914096,21.7302742 12.5010096,21.8203722 L12.5010096,16.5227614 C11.9914096,16.4326634 11.5009288,16.3372655 11.0303026,16.2365677" id="XMLID_132_" fill="url(#linearGradient-3)"></path>
                                    <path d="M34.5616148,16.5227614 L34.5616148,21.8211293 C35.0712147,21.7302742 35.5616955,21.6348763 36.0323218,21.5341786 L36.0323218,16.2365677 C35.5616955,16.3372655 35.0712147,16.4326634 34.5616148,16.5227614" id="XMLID_131_" fill="url(#linearGradient-3)"></path>
                                    <path d="M14.7070701,16.8611967 L14.7070701,22.1595647 C15.1865206,22.2231632 15.6755307,22.2822191 16.1777771,22.3352179 L16.1777771,17.0368499 C15.6755307,16.983094 15.1865206,16.9240382 14.7070701,16.8611967" id="XMLID_130_" fill="url(#linearGradient-3)"></path>
                                    <path d="M30.8848472,17.0360928 L30.8848472,22.3352179 C31.3870937,22.2814619 31.8761037,22.2224061 32.3555542,22.1595647 L32.3555542,16.8611967 C31.8761037,16.9247953 31.3870937,16.9838511 30.8848472,17.0360928" id="XMLID_129_" fill="url(#linearGradient-3)"></path>
                                    <path d="M18.3838376,17.2314313 L18.3838376,22.5305564 C18.8669649,22.5653842 19.3567103,22.5964264 19.8545446,22.6214115 L19.8545446,17.3215293 C19.3567103,17.2965442 18.8669649,17.2662591 18.3838376,17.2314313" id="XMLID_128_" fill="url(#linearGradient-3)"></path>
                                    <path d="M27.2080797,17.3215293 L27.2080797,22.6214115 C27.705914,22.5964264 28.1956595,22.5653842 28.6787867,22.5305564 L28.6787867,17.2314313 C28.1956595,17.2662591 27.705914,17.2965442 27.2080797,17.3215293" id="XMLID_127_" fill="url(#linearGradient-3)"></path>
                                    <path d="M23.5313122,17.4138987 C23.2849687,17.4138987 23.040096,17.4116273 22.7959587,17.4093559 L22.7959587,22.7092382 C23.040096,22.7115095 23.2849687,22.7137809 23.5313122,22.7137809 C23.7776556,22.7137809 24.0225283,22.7115095 24.2666657,22.7092382 L24.2666657,17.4093559 C24.0225283,17.4116273 23.7776556,17.4138987 23.5313122,17.4138987" id="XMLID_126_" fill="url(#linearGradient-3)"></path>
                                    <path d="M2.94141402,23.5269343 L2.94141402,28.8230309 C3.38850895,28.9926271 3.87825439,29.1554092 4.41212103,29.3121343 L4.41212103,24.0152806 C3.87825439,23.8593126 3.38850895,23.6957734 2.94141402,23.5269343" id="XMLID_125_" fill="url(#linearGradient-3)"></path>
                                    <path d="M33.8262612,24.0152806 L33.8262612,29.3121343 C34.3601279,29.1561663 34.8498733,28.9926271 35.2969683,28.8230309 L35.2969683,23.5269343 C34.8498733,23.6965305 34.3601279,23.8593126 33.8262612,24.0152806" id="XMLID_124_" fill="url(#linearGradient-3)"></path>
                                    <path d="M6.61818155,24.5649541 L6.61818155,29.8625649 C7.08880779,29.9632627 7.57928858,30.0586605 8.08888856,30.1487585 L8.08888856,24.8511477 C7.57928858,24.7610497 7.08880779,24.6656518 6.61818155,24.5649541" id="XMLID_123_" fill="url(#linearGradient-3)"></path>
                                    <path d="M30.1494937,24.8511477 L30.1494937,30.1495157 C30.6590937,30.0586605 31.1495745,29.9632627 31.6202007,29.8625649 L31.6202007,24.5649541 C31.1495745,24.6656518 30.6590937,24.7610497 30.1494937,24.8511477" id="XMLID_122_" fill="url(#linearGradient-3)"></path>
                                    <path d="M10.2949491,25.189583 L10.2949491,30.487951 C10.7743996,30.5515496 11.2634096,30.6106054 11.7656561,30.6636042 L11.7656561,25.3652363 C11.2634096,25.3114803 10.7743996,25.2524245 10.2949491,25.189583" id="XMLID_121_" fill="url(#linearGradient-3)"></path>
                                    <path d="M26.4727262,25.3644791 L26.4727262,30.6636042 C26.9749726,30.6098483 27.4639827,30.5507925 27.9434332,30.487951 L27.9434332,25.189583 C27.4639827,25.2531816 26.9749726,25.3122374 26.4727262,25.3644791" id="XMLID_120_" fill="url(#linearGradient-3)"></path>
                                    <path d="M13.9717166,25.5598177 L13.9717166,30.8589427 C14.4548439,30.8937705 14.9445893,30.9248127 15.4424236,30.9497979 L15.4424236,25.6499157 C14.9445893,25.6249305 14.4548439,25.5946455 13.9717166,25.5598177" id="XMLID_119_" fill="url(#linearGradient-3)"></path>
                                    <path d="M22.7959587,25.6499157 L22.7959587,30.9497979 C23.293793,30.9248127 23.7835384,30.8937705 24.2666657,30.8589427 L24.2666657,25.5598177 C23.7835384,25.5946455 23.293793,25.6249305 22.7959587,25.6499157" id="XMLID_118_" fill="url(#linearGradient-3)"></path>
                                    <path d="M19.1191911,25.742285 C18.8728477,25.742285 18.627975,25.7400137 18.3838376,25.7377423 L18.3838376,31.0376245 C18.627975,31.0398959 18.8728477,31.0421672 19.1191911,31.0421672 C19.3655346,31.0421672 19.6104073,31.0398959 19.8545446,31.0376245 L19.8545446,25.7377423 C19.6104073,25.7400137 19.3655346,25.742285 19.1191911,25.742285" id="XMLID_117_" fill="url(#linearGradient-3)"></path>
                                    <path d="M5.14747454,31.8553206 L5.14747454,37.1514172 C5.59456947,37.3210134 6.0843149,37.4837955 6.61818155,37.6405206 L6.61818155,32.3436669 C6.0843149,32.1876989 5.59456947,32.0241597 5.14747454,31.8553206" id="XMLID_116_" fill="url(#linearGradient-3)"></path>
                                    <path d="M36.0323218,32.3436669 L36.0323218,37.6405206 C36.5661884,37.4845526 37.0559338,37.3210134 37.5030288,37.1514172 L37.5030288,31.8553206 C37.0559338,32.0249168 36.5661884,32.1876989 36.0323218,32.3436669" id="XMLID_115_" fill="url(#linearGradient-3)"></path>
                                    <path d="M8.82424206,32.8933404 L8.82424206,38.1909512 C9.29486831,38.291649 9.7853491,38.3870469 10.2949491,38.4771449 L10.2949491,33.179534 C9.7853491,33.089436 9.29486831,32.9940382 8.82424206,32.8933404" id="XMLID_114_" fill="url(#linearGradient-3)"></path>
                                    <path d="M32.3555542,33.179534 L32.3555542,38.477902 C32.8651542,38.3870469 33.355635,38.291649 33.8262612,38.1909512 L33.8262612,32.8933404 C33.355635,32.9940382 32.8651542,33.089436 32.3555542,33.179534" id="XMLID_113_" fill="url(#linearGradient-3)"></path>
                                    <path d="M12.5010096,33.5179694 L12.5010096,38.8163373 C12.9804601,38.8799359 13.4694702,38.9389917 13.9717166,38.9919906 L13.9717166,33.6936226 C13.4694702,33.6398667 12.9804601,33.5808108 12.5010096,33.5179694" id="XMLID_112_" fill="url(#linearGradient-3)"></path>
                                    <path d="M28.6787867,33.6928655 L28.6787867,38.9919906 C29.1810332,38.9382346 29.6700432,38.8791788 30.1494937,38.8163373 L30.1494937,33.5179694 C29.6700432,33.581568 29.1810332,33.6406238 28.6787867,33.6928655" id="XMLID_111_" fill="url(#linearGradient-3)"></path>
                                    <path d="M16.1777771,33.888204 L16.1777771,39.1873291 C16.6609044,39.2221569 17.1506498,39.253199 17.6484841,39.2781842 L17.6484841,33.978302 C17.1506498,33.9533168 16.6609044,33.9230318 16.1777771,33.888204" id="XMLID_110_" fill="url(#linearGradient-3)"></path>
                                    <path d="M25.0020192,33.978302 L25.0020192,39.2781842 C25.4998535,39.253199 25.9895989,39.2221569 26.4727262,39.1873291 L26.4727262,33.888204 C25.9895989,33.9230318 25.4998535,33.9533168 25.0020192,33.978302" id="XMLID_109_" fill="url(#linearGradient-3)"></path>
                                    <path d="M21.3252517,34.0706714 C21.0789082,34.0706714 20.8340355,34.0684 20.5898981,34.0661286 L20.5898981,39.3660108 C20.8340355,39.3682822 21.0789082,39.3705536 21.3252517,39.3705536 C21.5715951,39.3705536 21.8164678,39.3682822 22.0606052,39.3660108 L22.0606052,34.0661286 C21.8164678,34.0684 21.5715951,34.0706714 21.3252517,34.0706714" id="XMLID_108_" fill="url(#linearGradient-3)"></path>
                                    <path d="M37.6589237,27.538188 C35.5705198,29.4294888 28.0632958,31.0421672 19.1191911,31.0421672 C12.1259793,31.0421672 6.01298561,30.055632 2.67962817,28.721576 C2.37298576,29.0077696 2.20606052,29.31062 2.20606052,29.6263416 C2.20606052,31.9264905 10.7663107,34.0706714 21.3252517,34.0706714 C31.884928,34.0706714 40.4444428,31.9264905 40.4444428,29.6263416 C40.4444428,28.8336306 39.4259782,28.1249607 37.6589237,27.538188" id="XMLID_107_" fill="url(#linearGradient-3)"></path>
                                    <path d="M23.5313122,22.7137809 C13.8150863,22.7137809 5.79752704,20.8096089 4.57831092,18.7138841 C1.72587468,19.3793979 0,20.2659925 0,21.2979552 C0,23.597347 8.56025016,25.742285 19.1191911,25.742285 C29.6781321,25.742285 38.2383823,23.597347 38.2383823,21.2979552 C38.2383823,21.1965003 38.2163217,21.0973168 38.1832308,20.9988905 C34.6763299,22.0149536 29.4156109,22.7137809 23.5313122,22.7137809" id="XMLID_106_" fill="url(#linearGradient-3)"></path>
                                    <path d="M37.4978813,10.2583006 C35.2101965,12.0905456 27.8507787,13.6282685 19.1191911,13.6282685 C13.4805005,13.6282685 8.41317945,12.9862257 4.91363212,12.0383039 C4.58934123,12.333583 4.41212103,12.6440047 4.41212103,12.9695689 C4.41212103,15.2697178 12.9723712,17.4138987 23.5313122,17.4138987 C34.0902532,17.4138987 42.6505033,15.2697178 42.6505033,12.9695689 C42.6505033,11.8702219 40.6922569,10.9351713 37.4978813,10.2583006" id="XMLID_105_" fill="url(#linearGradient-3)"></path>
                                </g>
                            </g>
                        </g>
                    </g>
                </g>
                <g id="Group-4" filter="url(#filter-4)" transform="translate(97.000000, 10.000000)" font-family="PingFangSC-Semibold, PingFang SC" font-size="26" font-weight="500">
                    <text id="开通个性化服务" stroke="#1EAEEF" stroke-width="4" fill="#259DD3">
                        <tspan x="0" y="28">开通个性化服务</tspan>
                    </text>
                    <text id="开通个性化服务" fill="#FFFFFF">
                        <tspan x="0" y="28">开通个性化服务</tspan>
                    </text>
                </g>
            </g>
        </g>
    </g>
</svg>