<?xml version="1.0" encoding="UTF-8" standalone="no"?>
<svg width="272px" height="221px" viewBox="0 0 272 221" version="1.1" xmlns="http://www.w3.org/2000/svg" xmlns:xlink="http://www.w3.org/1999/xlink">
    <!-- Generator: Sketch 49.3 (51167) - http://www.bohemiancoding.com/sketch -->
    <title>无考试</title>
    <desc>Created with Sketch.</desc>
    <defs>
        <linearGradient x1="50%" y1="0%" x2="50%" y2="100%" id="linearGradient-1">
            <stop stop-color="#EEEEEE" offset="0%"></stop>
            <stop stop-color="#FFFFFF" offset="100%"></stop>
        </linearGradient>
        <linearGradient x1="50%" y1="0%" x2="50%" y2="100%" id="linearGradient-2">
            <stop stop-color="#E7F9F9" offset="0%"></stop>
            <stop stop-color="#EEFAF9" offset="57.1005536%"></stop>
            <stop stop-color="#EFFAF9" stop-opacity="0" offset="100%"></stop>
        </linearGradient>
        <linearGradient x1="50%" y1="0%" x2="50%" y2="100%" id="linearGradient-3">
            <stop stop-color="#DBEAFD" offset="0%"></stop>
            <stop stop-color="#EAF9FF" offset="100%"></stop>
        </linearGradient>
        <linearGradient x1="50%" y1="0%" x2="50%" y2="100%" id="linearGradient-4">
            <stop stop-color="#C5D9F4" offset="0%"></stop>
            <stop stop-color="#DDEBFE" offset="100%"></stop>
        </linearGradient>
        <path d="M44.1431338,8.04532516 C37.6670299,17.6085798 32.2997306,26.3014549 28.041236,34.1239503 L0.49894223,48.6110273 L4.51511664,51.2856492 L32.2249746,43.464613 C33.7915565,43.0224493 35.1974278,42.1379738 36.2741396,40.9171629 L53.7750067,21.0741082 C57.5452592,18.1212854 59.269028,16.1519928 58.9463131,15.1662305 C58.7343719,14.5188363 61.2790008,8.12270997 59.4894422,5.84256188 C57.4521424,3.24675689 53.8572897,-6.29955685 44.1431338,8.04532516 Z" id="path-5"></path>
        <path d="M37.0940384,7.04136632 C36.041731,2.82576015 34.9430942,0.57033446 33.798128,0.275089262 C32.0806786,-0.167778535 16.8677161,1.76829038 20.5241245,14.110593 C22.6868589,21.4109597 28.8133808,34.7797667 24.8037605,37.9420542 C20.7880321,39.9031656 13.7877739,47.1478405 4.16044219,51.8494209 C-2.25777895,54.9838078 -0.587798192,55.7851396 9.17038446,54.2534164 C23.4088276,49.5411998 31.4262813,45.6258155 33.2227455,42.5072637 C35.2984287,38.9040049 35.6895418,29.3897181 34.3960849,13.9644035 L37.0940384,7.04136632 Z" id="path-7"></path>
        <path d="M47.4510138,2.07859997 C43.8201976,-0.582802089 38.3778131,-0.538693869 33.1574331,3.06214281 C27.9370531,6.66297949 28.4449921,13.3165932 24.160308,16.8692996 C19.875624,20.422006 19.4744981,19.157897 15.9427426,24.5005989 C14.4821361,26.7101474 14.1290125,29.8664152 11.6604677,32.7311496 C8.70540867,36.1604812 4.9119687,36.910924 0.280147766,34.9824781 C5.22940448,37.751373 9.79423836,38.2130157 13.9746494,36.3674061 C20.245266,33.5989917 18.1301626,35.5600147 18.6574188,35.5886819 C22.1576424,35.7789905 18.6333495,35.0290453 23.8952072,35.3919188 C26.7767698,35.59064 8.27424134,54.4811459 12.5609084,55.0111456 C21.6229631,56.1315699 22.6846175,50.9968713 15.7458714,39.6070499 L23.2591882,30.9106095 L28.5227761,25.4677776 L46.2315932,13.985053 L48.5539277,10.3300076 L29.9705092,27.0151096 L12.9314944,56.1334699 C19.9056622,50.9982509 24.7795077,47.970789 27.5530309,47.0510842 C31.7133157,45.6715271 33.2309692,40.7124856 34.6020687,33.8031892 C35.9731682,26.8938928 43.2533527,25.2645775 44.973088,24.5296706 C46.6513521,23.8124858 49.0713279,22.8918311 51.6544812,19.0819958 C53.2269807,16.7627512 53.85029,14.5613358 53.3118929,11.0287284 C52.7734958,7.49612108 51.0818299,4.74000204 47.4510138,2.07859997 Z" id="path-9"></path>
        <linearGradient x1="100%" y1="4.59885436%" x2="0%" y2="94.0386409%" id="linearGradient-11">
            <stop stop-color="#474747" offset="0%"></stop>
            <stop stop-color="#3A3A3A" offset="56.2120498%"></stop>
            <stop stop-color="#3A3A3A" offset="56.2120498%"></stop>
            <stop stop-color="#343434" offset="80.1333662%"></stop>
            <stop stop-color="#2F2F2F" offset="100%"></stop>
        </linearGradient>
        <linearGradient x1="13.7175649%" y1="13.5001599%" x2="56.1898977%" y2="89.8909759%" id="linearGradient-12">
            <stop stop-color="#FFE4C8" offset="0%"></stop>
            <stop stop-color="#FEECDA" offset="100%"></stop>
        </linearGradient>
        <path d="M49.6581249,59.1756817 L53.8434752,59.0620566 L54.3185129,60.7565147 C53.0512462,61.0978977 51.8264429,61.3746737 50.6441029,61.5868427 C50.3363851,61.669881 49.9813754,61.7451688 49.5758,61.8103297 C43.1756439,62.8385968 35.6341697,63.5792704 32.8693768,63.8228552 C29.7213387,64.1002047 27.784984,62.3486927 27.0603127,58.5683192 C26.082566,52.9788259 25.1652201,48.1248133 24.308275,44.0062814 C23.0228572,37.8284835 24.6593732,35.5891381 26.221374,34.8943333 C27.7833748,34.1995285 32.4009512,36.5391545 31.5346812,41.7191477 C30.9571679,45.1724765 31.889285,50.8165161 34.3310325,58.6512665 C41.6273442,59.0207546 46.4507303,59.186355 48.8011908,59.1480677 C49.1003339,59.1431949 49.3869079,59.1530741 49.6581249,59.1756817 Z" id="path-13"></path>
        <filter x="-16.4%" y="-13.8%" width="132.8%" height="134.4%" filterUnits="objectBoundingBox" id="filter-14">
            <feOffset dx="0" dy="1" in="SourceAlpha" result="shadowOffsetOuter1"></feOffset>
            <feGaussianBlur stdDeviation="1.5" in="shadowOffsetOuter1" result="shadowBlurOuter1"></feGaussianBlur>
            <feColorMatrix values="0 0 0 0 0.627365009   0 0 0 0 0.627365009   0 0 0 0 0.627365009  0 0 0 0.103317482 0" type="matrix" in="shadowBlurOuter1"></feColorMatrix>
        </filter>
        <path d="M54.0384116,58.1690164 C54.6642706,57.6591548 53.8435546,57.4673107 54.6316361,57.2578243 C55.4197176,57.0483378 55.8296116,59.9782927 55.6906389,60.1359439 C55.5516662,60.2935952 52.7735461,59.9910476 52.6884421,60.0143443 C52.6317061,60.0298755 52.4630232,59.9367704 52.1823935,59.7350291 C51.553875,59.5191334 51.3876698,59.3178858 51.6837779,59.1312863 C52.1279399,58.851387 53.4125526,58.678878 54.0384116,58.1690164 Z" id="path-15"></path>
        <filter x="-119.7%" y="-136.3%" width="339.5%" height="440.8%" filterUnits="objectBoundingBox" id="filter-16">
            <feOffset dx="0" dy="1" in="SourceAlpha" result="shadowOffsetOuter1"></feOffset>
            <feGaussianBlur stdDeviation="1.5" in="shadowOffsetOuter1" result="shadowBlurOuter1"></feGaussianBlur>
            <feColorMatrix values="0 0 0 0 0.627365009   0 0 0 0 0.627365009   0 0 0 0 0.627365009  0 0 0 0.103317482 0" type="matrix" in="shadowBlurOuter1"></feColorMatrix>
        </filter>
        <path d="M4.66369573,3.075914 C4.24770359,2.81658893 3.9942073,2.79482072 3.90320684,3.01060936 C3.81220638,3.226398 4.01872204,3.49320775 4.52275383,3.81103862 L4.93036315,3.23329361 L4.66369573,3.075914 Z" id="path-17"></path>
        <filter x="-477.1%" y="-422.2%" width="1054.2%" height="1155.5%" filterUnits="objectBoundingBox" id="filter-18">
            <feOffset dx="0" dy="1" in="SourceAlpha" result="shadowOffsetOuter1"></feOffset>
            <feGaussianBlur stdDeviation="1.5" in="shadowOffsetOuter1" result="shadowBlurOuter1"></feGaussianBlur>
            <feColorMatrix values="0 0 0 0 0.627365009   0 0 0 0 0.627365009   0 0 0 0 0.627365009  0 0 0 0.103317482 0" type="matrix" in="shadowBlurOuter1"></feColorMatrix>
        </filter>
        <path d="M4.0336646,3.82892447 C3.66218031,3.59573767 3.42603898,3.57853188 3.32524061,3.77730709 C3.22444225,3.9760823 3.4011331,4.25698653 3.85531316,4.62001976 L4.26292248,4.04227475 L4.0336646,3.82892447 Z" id="path-19"></path>
        <filter x="-518.1%" y="-408.2%" width="1136.1%" height="1120.5%" filterUnits="objectBoundingBox" id="filter-20">
            <feOffset dx="0" dy="1" in="SourceAlpha" result="shadowOffsetOuter1"></feOffset>
            <feGaussianBlur stdDeviation="1.5" in="shadowOffsetOuter1" result="shadowBlurOuter1"></feGaussianBlur>
            <feColorMatrix values="0 0 0 0 0.627365009   0 0 0 0 0.627365009   0 0 0 0 0.627365009  0 0 0 0.103317482 0" type="matrix" in="shadowBlurOuter1"></feColorMatrix>
        </filter>
        <path d="M3.65506848,5.00851515 C3.43482131,4.44132166 3.23715473,4.2732816 3.06206874,4.50439495 C2.88698274,4.73550831 2.94857664,5.12855987 3.24685041,5.68354964 L3.65506848,5.38486813 L3.65506848,5.00851515 Z" id="path-21"></path>
        <filter x="-724.5%" y="-312.6%" width="1549.0%" height="881.5%" filterUnits="objectBoundingBox" id="filter-22">
            <feOffset dx="0" dy="1" in="SourceAlpha" result="shadowOffsetOuter1"></feOffset>
            <feGaussianBlur stdDeviation="1.5" in="shadowOffsetOuter1" result="shadowBlurOuter1"></feGaussianBlur>
            <feColorMatrix values="0 0 0 0 0.627365009   0 0 0 0 0.627365009   0 0 0 0 0.627365009  0 0 0 0.103317482 0" type="matrix" in="shadowBlurOuter1"></feColorMatrix>
        </filter>
        <linearGradient x1="50%" y1="19.2258547%" x2="56.1898977%" y2="89.8909759%" id="linearGradient-23">
            <stop stop-color="#FFE4C8" offset="0%"></stop>
            <stop stop-color="#FEECDA" offset="100%"></stop>
        </linearGradient>
        <filter x="-25.0%" y="-19.0%" width="150.0%" height="147.6%" filterUnits="objectBoundingBox" id="filter-24">
            <feOffset dx="0" dy="1" in="SourceAlpha" result="shadowOffsetOuter1"></feOffset>
            <feGaussianBlur stdDeviation="1.5" in="shadowOffsetOuter1" result="shadowBlurOuter1"></feGaussianBlur>
            <feColorMatrix values="0 0 0 0 0.863812713   0 0 0 0 0.863812713   0 0 0 0 0.863812713  0 0 0 0.204144022 0" type="matrix" in="shadowBlurOuter1" result="shadowMatrixOuter1"></feColorMatrix>
            <feMerge>
                <feMergeNode in="shadowMatrixOuter1"></feMergeNode>
                <feMergeNode in="SourceGraphic"></feMergeNode>
            </feMerge>
        </filter>
    </defs>
    <g id="Page-1" stroke="none" stroke-width="1" fill="none" fill-rule="evenodd">
        <g id="3" transform="translate(-52.000000, -126.000000)">
            <path d="M79,273.234938 C153.735583,232.466712 239.74759,241.666872 295.211137,273.234938 L79,273.234938 Z" id="Path-18" fill="url(#linearGradient-1)" opacity="0.682369403"></path>
            <g id="Group-4" transform="translate(79.000000, 154.000000)">
                <g id="Group-7">
                    <g id="Group-6" transform="translate(30.000000, 22.000000)">
                        <rect id="Rectangle-7" fill="url(#linearGradient-2)" x="0" y="12" width="24" height="50"></rect>
                        <rect id="Rectangle-7-Copy" fill="#E7F9F9" x="0" y="0" width="8" height="12"></rect>
                    </g>
                    <rect id="Rectangle-10" fill="url(#linearGradient-2)" x="143" y="34" width="23" height="65"></rect>
                    <rect id="Rectangle-10-Copy" fill="url(#linearGradient-2)" x="173" y="52" width="21" height="47"></rect>
                    <g id="Group-2" transform="translate(0.000000, 84.000000)">
                        <path d="M216.982426,41 C215.930236,55.9571324 167.763931,68 108.5,68 C49.236069,68 1.06976432,55.9571324 0.0175739444,41 L0,41 L0,23 L18,23 L18,25.3252536 C37.4264108,17.8975663 70.7066266,13 108.5,13 C146.293373,13 179.573589,17.8975663 199,25.3252536 L199,23 L217,23 L217,41 L216.982426,41 Z" id="Combined-Shape" fill="#F3FAFC"></path>
                        <ellipse id="Oval-7-Copy" fill="#F1F7FA" cx="108.5" cy="27.5" rx="108.5" ry="27.5"></ellipse>
                        <ellipse id="Oval-3" fill="#E9E9E9" transform="translate(77.500000, 45.500000) rotate(9.000000) translate(-77.500000, -45.500000) " cx="77.5" cy="45.5" rx="12.5" ry="3.5"></ellipse>
                    </g>
                    <path d="M46,15.9499909 L46,16 L24,16 C22.8954305,16 22,15.1045695 22,14 C22,12.8954305 22.8954305,12 24,12 C24.0566644,12 24.1127785,12.0023565 24.1682495,12.0069768 C24.5781095,10.8381415 25.6911756,10 27,10 C27.0849967,10 27.1691677,10.0035347 27.2523742,10.0104653 C27.8671643,8.25721219 29.5367633,7 31.5,7 C33.1403804,7 34.57576,7.87771278 35.3621233,9.1891228 C35.7188665,9.06654431 36.1016621,9 36.5,9 C37.4793441,9 38.3647415,9.40223361 39,10.0505086 C39.6352585,9.40223361 40.5206559,9 41.5,9 C42.9446163,9 44.1848162,9.87521101 44.7192842,11.1243178 C44.9649269,11.0436408 45.227367,11 45.5,11 C46.8807119,11 48,12.1192881 48,13.5 C48,14.709479 47.1411202,15.7183558 46,15.9499909 Z" id="Combined-Shape" fill="#E7F6FF"></path>
                    <path d="M185.846154,13.9222081 L185.846154,14 L151.153846,14 C149.412025,14 148,12.6071081 148,10.8888889 C148,9.17066967 149.412025,7.77777778 151.153846,7.77777778 C151.243202,7.77777778 151.331689,7.78144344 151.419163,7.78863064 C152.06548,5.97044227 153.8207,4.66666667 155.884615,4.66666667 C156.018649,4.66666667 156.15138,4.67216516 156.28259,4.68294596 C157.252067,1.95566341 159.884896,0 162.980769,0 C165.567523,0 167.831006,1.36533099 169.071041,3.40530214 C169.633597,3.21462448 170.237236,3.11111111 170.865385,3.11111111 C172.409735,3.11111111 173.805938,3.73680783 174.807692,4.74523565 C175.809446,3.73680783 177.20565,3.11111111 178.75,3.11111111 C181.028049,3.11111111 182.983749,4.47255046 183.826564,6.41560542 C184.213923,6.29010788 184.627771,6.22222222 185.057692,6.22222222 C187.234969,6.22222222 189,7.96333708 189,10.1111111 C189,11.9925228 187.645613,13.5618868 185.846154,13.9222081 Z" id="Combined-Shape-Copy" fill="#E7F6FF"></path>
                </g>
                <g id="Group-3" transform="translate(69.000000, 17.000000)">
                    <path d="M3.79633951,0 L70.6260647,0 L70.6260647,94.7499867 C70.6260647,96.67332 69.066895,98.2324898 67.1435616,98.2324898 L0.313836441,98.2324898 L0.313836441,3.48250307 C0.313836441,1.55916973 1.87300617,-4.97575992e-15 3.79633951,-5.32907052e-15 Z" id="Rectangle-13" fill="url(#linearGradient-3)"></path>
                    <rect id="Rectangle-16" fill="#F4FAFF" x="7.22979332" y="8.08973445" width="55.9039848" height="7.51189628" rx="1.74125153"></rect>
                    <rect id="Rectangle-16-Copy" fill="#F4FAFF" x="7.22979332" y="20.8021743" width="55.9039848" height="7.51189628" rx="1.74125153"></rect>
                    <rect id="Rectangle-16-Copy-2" fill="#F4FAFF" x="7.22979332" y="33.5146142" width="55.9039848" height="7.51189628" rx="1.74125153"></rect>
                    <rect id="Rectangle-16-Copy-3" fill="#F4FAFF" x="7.22979332" y="45.6492158" width="55.9039848" height="7.51189628" rx="1.74125153"></rect>
                    <path d="M70.6260647,0 L75.7762454,0 C78.6612454,-5.29965903e-16 81,2.3387546 81,5.2237546 L81,13.8681162 L70.6260647,13.8681162 L70.6260647,0 Z" id="Rectangle-14" fill="#DBEAFD"></path>
                    <path d="M75.8130323,0 L75.8130323,0 C78.6777155,-5.26233755e-16 81,2.32228452 81,5.18696766 L81,13.8681162 L70.6260647,13.8681162 L70.6260647,5.18696766 C70.6260647,2.32228452 72.9483492,5.26233755e-16 75.8130323,0 Z" id="Rectangle-14-Copy" fill="url(#linearGradient-4)"></path>
                </g>
            </g>
            <g id="Group-7" transform="translate(110.000000, 190.000000)">
                <g id="Group-2">
                    <g id="Group-16">
                        <g id="Group-12" transform="translate(8.294912, 91.333093)">
                            <g id="Group-4" transform="translate(0.977650, 0.737502)"></g>
                        </g>
                        <g id="Group-13-Copy-2" transform="translate(0.710444, 0.000000)">
                            <g id="Group-71">
                                <g id="Group-70" transform="translate(49.150107, 70.024805) scale(-1, 1) rotate(1.000000) translate(-49.150107, -70.024805) translate(1.650107, 1.024805)">
                                    <g id="Group-65" transform="translate(40.738334, 99.343351) rotate(-2.000000) translate(-40.738334, -99.343351) translate(1.287206, 62.943351)">
                                        <g id="Group-68" transform="translate(-0.000000, -0.000000)">
                                            <g id="腿2" transform="translate(31.730208, 35.904414) scale(-1, 1) rotate(-102.000000) translate(-31.730208, -35.904414) translate(1.444493, 9.904414)">
                                                <mask id="mask-6" fill="white">
                                                    <use xlink:href="#path-5"></use>
                                                </mask>
                                                <use id="Path-94" fill="#F2C64D" xlink:href="#path-5"></use>
                                                <polygon id="Path-106" fill="#EABE49" opacity="0.300000012" mask="url(#mask-6)" points="-23.151675 35.0357068 15.4002732 35.0357068 -23.151675 45.9119674"></polygon>
                                            </g>
                                            <g id="Group-66" transform="translate(41.895260, 37.593196) rotate(7.000000) translate(-41.895260, -37.593196) translate(8.421575, 6.793196)">
                                                <g id="腿2" transform="translate(33.313372, 30.894787) scale(-1, 1) rotate(-58.000000) translate(-33.313372, -30.894787) translate(14.584049, 3.294787)">
                                                    <mask id="mask-8" fill="white">
                                                        <use xlink:href="#path-7"></use>
                                                    </mask>
                                                    <use id="Path-94" fill="#FFD76A" xlink:href="#path-7"></use>
                                                </g>
                                            </g>
                                        </g>
                                    </g>
                                    <g id="Group-78-Copy" transform="translate(51.605529, 44.462547) scale(-1, 1) rotate(-36.000000) translate(-51.605529, -44.462547) translate(22.605529, 10.962547)">
                                        <g id="Group-76" transform="translate(0.000000, 0.000000)">
                                            <g id="Group-74" transform="translate(0.000000, 0.000000)">
                                                <g id="Group-69" transform="translate(0.000000, 0.000000)">
                                                    <g id="Group-67" transform="translate(3.547731, 0.000000)">
                                                        <g id="Group-64" transform="translate(0.000000, 0.000000)">
                                                            <mask id="mask-10" fill="white">
                                                                <use xlink:href="#path-9"></use>
                                                            </mask>
                                                            <use id="Path-230" fill="#474747" xlink:href="#path-9"></use>
                                                            <path d="M13.5079037,43.4716206 C15.1546724,42.2082316 17.4605469,38.0426451 17.6048824,34.0163417 C17.749218,29.9900382 19.6865297,23.8285911 22.9051041,23.0599136 C26.1236784,22.291236 30.6591643,19.7204338 30.4294388,17.6436134 C30.1997134,15.566793 30.0395101,9.94111361 33.8722978,10.2108463 C36.4274895,10.390668 36.4274895,14.3475531 33.8722978,22.0815015 C27.4226552,33.1300569 24.0696713,38.8456472 23.8133461,39.2282724 C23.4288583,39.8022102 5.57072785,51.2083931 2.8460632,51.3233017 C1.0296201,51.3999073 5.26364943,49.7076752 15.5481512,46.2466051 C13.0901404,45.2388747 12.4100579,44.3138799 13.5079037,43.4716206 Z" id="Path-61" fill="#232323" mask="url(#mask-10)"></path>
                                                            <path d="M39.1803432,4.6327768 C34.0041372,5.60760802 31.5477193,9.04496933 29.4131333,15.3740315 C29.7329587,9.92486054 31.1490054,6.35105613 33.6612733,4.65261828 C36.1735412,2.95418043 37.6539216,2.02171507 38.1024146,1.8552222 C42.2718377,3.05703778 42.6311473,3.98288931 39.1803432,4.6327768 Z" id="Path-108" fill="url(#linearGradient-11)" opacity="0.308418843" mask="url(#mask-10)"></path>
                                                        </g>
                                                        <path d="M48.5889656,9.18269859 C50.7433656,17.4499858 48.2535532,22.5589647 43.9257511,23.9202876 C39.5979489,25.2816105 36.0291866,24.3417879 33.9204574,27.5883865 C32.514638,29.7527855 33.6005294,31.8359723 37.1781316,33.837947 L28.8782453,29.0680982 L30.6086523,22.2919011 C35.7149301,18.4537558 38.3941165,16.5346832 38.6462116,16.5346832 C38.8983066,16.5346832 41.602774,15.8610296 46.7596137,14.5137225 C46.0840023,15.8922779 46.6937862,14.1152699 48.5889656,9.18269859 Z" id="Path-229" fill="#232323"></path>
                                                        <path d="M29.0617928,38.150967 L35.7248365,49.9865292 C36.1895795,50.8120521 37.1434505,51.2317176 38.0660476,51.0165696 L38.3094992,50.9597971 C39.0832903,50.7793503 39.6378905,50.0995265 39.659269,49.3052616 L40.2727276,26.5136917 C39.0062082,27.1341799 37.9260616,27.9915197 36.9786601,29.0175584 L37.1481749,43.6257777 C34.7988587,38.1287295 33.3978707,35.3802054 32.9452111,35.3802054 C32.4925515,35.3802054 31.1980787,36.3037926 29.0617928,38.150967 Z" id="Path-37" fill="#F7E4D1"></path>
                                                        <path d="M25.101406,24.8678257 C26.7268668,23.9226513 31.329221,18.6473547 31.3785239,17.4276571 C30.580509,13.3907908 31.4293837,11.0587608 33.9251479,10.431567 C36.4209121,9.80437324 37.6687942,11.2639503 37.6687942,14.8102981 C38.4855715,12.9382244 40.2285979,11.835794 42.8978734,11.5030071 C45.567149,11.1702202 47.4443838,10.3531283 48.529578,9.05173129 C48.521829,15.901051 47.1880682,20.2866525 44.5282955,22.2085358 C40.5386365,25.0913607 36.5015297,22.9804081 35.5472667,22.482527 C34.5930037,21.9846459 32.7124869,27.1947526 33.0540301,29.6040921 C33.3955733,32.0134315 32.7559834,31.9695774 33.3165675,32.5316425 C33.6902903,32.9063526 33.228199,33.1271337 31.9302938,33.193986 L26.4027215,29.4941788 C24.4515373,27.0400596 24.0177655,25.4979419 25.101406,24.8678257 Z" id="Path-228" fill="#FCECD8"></path>
                                                    </g>
                                                    <path d="M28.3733924,25.014341 C30.3286692,28.9471611 33.1120383,30.8853994 36.7234997,30.8290559 C37.0514848,32.4585289 37.3105045,35.1333659 37.620866,37.3240517 C38.5763358,44.0682323 37.1523929,46.5583678 32.2080416,47.9134542 C25.6576359,49.708708 20.4335992,55.0024811 18.2946261,66.4008398 C9.23807188,65.8466353 -0.141501625,57.5756756 0.182137311,55.0286597 C6.55794676,47.6383469 8.33273075,53.5035173 17.6418697,37.946112 C21.5853295,31.4499487 25.1625038,27.1393583 28.3733924,25.014341 Z" id="Path-231" fill="#F27374"></path>
                                                    <g id="Combined-Shape">
                                                        <use fill="black" fill-opacity="1" filter="url(#filter-14)" xlink:href="#path-13"></use>
                                                        <use fill="url(#linearGradient-12)" fill-rule="evenodd" xlink:href="#path-13"></use>
                                                    </g>
                                                    <g id="Path-345">
                                                        <use fill="black" fill-opacity="1" filter="url(#filter-16)" xlink:href="#path-15"></use>
                                                        <use fill="url(#linearGradient-12)" fill-rule="evenodd" xlink:href="#path-15"></use>
                                                    </g>
                                                </g>
                                            </g>
                                        </g>
                                    </g>
                                    <path d="M72.3056116,29.8481036 C71.9931445,31.8161136 71.2378376,35.4002894 68.0078631,35.7796352 C64.7778887,36.1589809 61.968485,36.4352635 60.3061527,40.3453644 C58.6438204,44.2554653 58.7090053,45.0905683 56.2438969,47.5677163 C54.6004914,49.2191483 52.7662722,50.1794365 50.7412395,50.4485811 C53.0765654,48.8842729 55.0798356,45.913962 56.7510502,41.5376485 C59.2578721,34.9731782 64.4274389,35.2330862 65.6786751,34.5463204 C66.9299114,33.8595545 71.3453311,30.4215805 70.3876578,29.0873506" id="Path-109" fill="url(#linearGradient-11)" transform="translate(61.523426, 39.767966) scale(-1, 1) rotate(-37.000000) translate(-61.523426, -39.767966) "></path>
                                    <path d="M76.4850515,16.4604504 C70.4449284,17.6870701 67.3097156,20.7895342 64.4690593,26.9173161 C61.6284031,33.045098 53.9033276,33.0163927 51.828932,32.8259541 C57.1973943,33.5117122 60.5304966,33.6921696 61.8282389,33.3673265 C63.7748523,32.8800617 66.1845343,30.5166876 66.5320995,27.2949262 C66.8796647,24.0731648 68.6599646,19.7979467 76.4850515,16.4604504 Z" id="Path-32" fill="url(#linearGradient-11)" transform="translate(64.156992, 24.992201) scale(-1, 1) rotate(-41.000000) translate(-64.156992, -24.992201) "></path>
                                </g>
                                <g id="Group-63" transform="translate(75.925821, 44.253646)">
                                    <g id="Path-344" transform="translate(4.406347, 3.337318) rotate(37.000000) translate(-4.406347, -3.337318) ">
                                        <use fill="black" fill-opacity="1" filter="url(#filter-18)" xlink:href="#path-17"></use>
                                        <use fill="url(#linearGradient-12)" fill-rule="evenodd" xlink:href="#path-17"></use>
                                    </g>
                                    <g id="Path-344-Copy" transform="translate(3.780351, 4.130061) rotate(31.000000) translate(-3.780351, -4.130061) ">
                                        <use fill="black" fill-opacity="1" filter="url(#filter-20)" xlink:href="#path-19"></use>
                                        <use fill="url(#linearGradient-12)" fill-rule="evenodd" xlink:href="#path-19"></use>
                                    </g>
                                    <g id="Path-344-Copy-2">
                                        <use fill="black" fill-opacity="1" filter="url(#filter-22)" xlink:href="#path-21"></use>
                                        <use fill="url(#linearGradient-12)" fill-rule="evenodd" xlink:href="#path-21"></use>
                                    </g>
                                    <path d="M0.229260682,6.13244254 L4.70127598,0.666167369 C4.80185855,0.543221691 4.97271223,0.503590102 5.11714869,0.569700635 C5.62060897,0.800141256 6.12859521,1.12663928 6.64110741,1.54919471 C7.14762137,1.96680472 7.55963061,2.39348033 7.87713511,2.82922153 L7.87717875,2.82918973 C7.97458578,2.96287052 7.96494227,3.14652977 7.85407097,3.26927437 L2.51184424,9.18360468 C2.38248209,9.32682033 2.16151413,9.33805082 2.01829848,9.20868867 C2.00507434,9.19674373 1.9927833,9.18380471 1.98153292,9.16998485 L0.228191226,7.01619725 C0.0186073661,6.75874651 0.0190543406,6.38938528 0.229260682,6.13244254 Z" id="Path-342" stroke="#F2F2F2" stroke-width="0.52" fill="#FFFFFF"></path>
                                    <path d="M4.88148713,0.982116859 C5.47550149,1.25318633 5.94474394,1.52942103 6.2892145,1.81082093 C6.63368505,2.09222084 7.05781854,2.51535019 7.56161495,3.08020899 L2.39478043,8.90306867 L0.377785965,6.55810626 L4.88148713,0.982116859 Z" id="Path-346" fill="#E2E2E2"></path>
                                    <path d="M2.94391294,9.04526187 C2.59234466,8.65159522 2.23459914,7.49783613 3.52515548,6.84390615 C4.19606222,6.50395506 4.60561937,6.61503105 5.00472994,6.16853709 C5.33559388,5.76118957 5.5702489,5.51149755 5.78543436,5.28961553 C6.1050937,4.96000841 6.44452416,4.41952275 6.67761636,4.60587874 C6.72510344,4.65284432 6.75788443,5.22792296 6.50343611,6.05229496 C6.34692504,6.55936589 4.74070278,8.91945159 3.92529204,9.34895546 C3.21698228,9.7220457 3.36912228,9.5213877 2.94391294,9.04526187 Z" id="Path-341" fill="url(#linearGradient-12)"></path>
                                    <path d="M4.7024125,6.63968487 C4.60725102,6.30644175 3.81319144,6.94696609 3.55032601,6.63968487 C2.98798013,5.95705652 2.32027303,5.19489276 1.98283949,5.53326082 C1.64540594,5.87162888 2.71352006,7.32742285 2.40546574,7.4950097 C1.50090012,8.12884852 2.03293753,9.10939963 2.56786002,9.48845256 C3.1027825,9.86750548 3.16383166,9.66574148 3.42483644,9.48845256 C3.68584122,9.31116364 4.85911846,7.47654196 4.92801443,7.34017963 C4.9969104,7.2038173 4.79757398,6.97292799 4.7024125,6.63968487 Z" id="Path-126" fill="url(#linearGradient-23)"></path>
                                </g>
                            </g>
                        </g>
                    </g>
                    <g id="Group-3" filter="url(#filter-24)" transform="translate(65.610450, 117.712539)">
                        <g id="脚" transform="translate(9.806969, 10.457236) rotate(-127.000000) translate(-9.806969, -10.457236) translate(2.306969, 3.957236)">
                            <path d="M14.6015037,5.18445287 L12.7753525,3.80876898 L11.8284006,2.58645932 C9.55404589,2.36132916 8.24488027,2.50018888 7.90090379,3.00303849 C7.22484945,3.99134346 4.70417784,7.53557938 2.59682562,10.108068 C1.23307017,11.7728326 1.50469717,11.5644418 1.47655658,11.6700769 C1.37174422,12.0635251 4.39845946,10.6269009 10.5567023,7.36020412 L12.3230267,9.27666285 L14.6015037,5.18445287 Z" id="Path-104" fill="#FEECDA"></path>
                            <path d="M12.1152371,3.05623642 C11.0807694,0.893800589 9.94424667,-0.109195979 8.70566893,0.0472467142 C6.84780232,0.281910754 -1.9457745,10.0684962 0.473221052,12.399759 C0.731292783,12.6785545 2.35307111,12.4138596 2.54257668,11.4213564 C3.93611536,8.42684989 6.31621854,5.77245978 8.10549363,3.96978472 C9.65422857,2.40945122 10.9908097,2.10493512 12.1152371,3.05623642 Z" id="Path-233" fill="#D8C6BB"></path>
                        </g>
                    </g>
                    <g id="脚" transform="translate(96.266936, 125.818124) rotate(-122.000000) translate(-96.266936, -125.818124) translate(89.094003, 119.418124)">
                        <path d="M14.1808112,3.30622884 L11.4781271,3.52232429 L11.1734685,3.02418022 C9.02504355,2.81216804 7.78836572,2.94293663 7.46343503,3.41648598 C6.82481345,4.34720396 4.44371006,7.68492282 2.45304079,10.1075166 C1.16479574,11.675278 1.4213829,11.4790297 1.39480044,11.5785096 C1.29579148,11.9490323 4.12969375,10.6317379 9.89650723,7.62662669 L12.7080443,7.92857284 L14.1808112,3.30622884 Z" id="Path-104" fill="#FEECDA"></path>
                        <path d="M11.444423,3.46658415 C10.4672332,1.43015006 9.39363912,0.485596531 8.22364076,0.632923554 C6.46864322,0.853914088 -1.83803802,10.0702505 0.447019059,12.2656744 C0.690801498,12.5282248 2.22278284,12.2789533 2.40179559,11.3442817 C3.71817479,8.5242604 5.96649295,6.02453744 7.65669684,4.32690142 C9.11967917,2.85748611 10.3822546,2.57071368 11.444423,3.46658415 Z" id="Path-233" fill="#D8C6BB"></path>
                    </g>
                </g>
            </g>
        </g>
    </g>
</svg>