<?xml version="1.0" encoding="UTF-8" standalone="no"?>
<svg width="27px" height="27px" viewBox="0 0 27 27" version="1.1" xmlns="http://www.w3.org/2000/svg" xmlns:xlink="http://www.w3.org/1999/xlink">
    <!-- Generator: Sketch 49.3 (51167) - http://www.bohemiancoding.com/sketch -->
    <title>4 copy 4</title>
    <desc>Created with Sketch.</desc>
    <defs>
        <path d="M13,0.756756757 L15.5277778,0.756756757 L15.5277778,2.94594595 C15.5277778,4.15500175 16.4978275,5.13513514 17.6944444,5.13513514 C18.8910614,5.13513514 19.8611111,4.15500175 19.8611111,2.94594595 L19.8611111,0.756756757 L24.7826552,0.756756757 C24.8478459,0.756756757 24.9128803,0.76313145 24.9768302,0.775789838 C25.5186032,0.883029693 25.870862,1.40915862 25.7636222,1.95093169 L22.8533551,16.6535282 C22.5832878,18.0179015 21.397645,19 20.0205665,19 L13,19 L5.9794335,19 C4.60235499,19 3.41671219,18.0179015 3.14664488,16.6535282 L0.236377837,1.95093169 C0.129137982,1.40915862 0.481396753,0.883029693 1.02316982,0.775789838 C1.08711968,0.76313145 1.15215411,0.756756757 1.21734476,0.756756757 L6.13888889,0.756756757 L6.13888889,2.94594595 C6.13888889,4.15500175 7.1089386,5.13513514 8.30555556,5.13513514 C9.50217251,5.13513514 10.4722222,4.15500175 10.4722222,2.94594595 L10.4722222,0.756756757 L13,0.756756757 Z" id="path-1"></path>
    </defs>
    <g id="Symbols" stroke="none" stroke-width="1" fill="none" fill-rule="evenodd">
        <g id="Group-9" transform="translate(0.500000, 0.000000)">
            <path d="M13,0 C16.1909786,0 18.7777778,2.61368903 18.7777778,5.83783784 L18.7777778,10.9459459 C18.7777778,11.5504738 18.2927529,12.0405405 17.6944444,12.0405405 C17.096136,12.0405405 16.6111111,11.5504738 16.6111111,10.9459459 L16.6111111,5.83783784 C16.6111111,3.82274483 14.9943616,2.18918919 13,2.18918919 C11.0056384,2.18918919 9.38888889,3.82274483 9.38888889,5.83783784 L9.38888889,10.9459459 C9.38888889,11.5504738 8.90386403,12.0405405 8.30555556,12.0405405 C7.70724708,12.0405405 7.22222222,11.5504738 7.22222222,10.9459459 L7.22222222,5.83783784 C7.22222222,2.61368903 9.80902145,0 13,0 Z" id="Combined-Shape" fill="#D3D3D3" fill-rule="nonzero"></path>
            <g id="Oval-7" transform="translate(0.000000, 8.000000)">
                <mask id="mask-2" fill="white">
                    <use xlink:href="#path-1"></use>
                </mask>
                <use id="Mask" fill="#D4D4D4" xlink:href="#path-1"></use>
                <circle fill="#D7D7D7" mask="url(#mask-2)" cx="20.5" cy="15.5" r="4.5"></circle>
            </g>
        </g>
    </g>
</svg>