<?xml version="1.0" encoding="UTF-8" standalone="no"?>
<svg width="84px" height="84px" viewBox="0 0 84 84" version="1.1" xmlns="http://www.w3.org/2000/svg" xmlns:xlink="http://www.w3.org/1999/xlink">
    <!-- Generator: Sketch 49.3 (51167) - http://www.bohemiancoding.com/sketch -->
    <title>Group 2</title>
    <desc>Created with Sketch.</desc>
    <defs></defs>
    <g id="Page-1" stroke="none" stroke-width="1" fill="none" fill-rule="evenodd">
        <g id="Group-2">
            <circle id="Oval-3" fill="#FFFFFF" cx="42" cy="42" r="42"></circle>
            <g id="Group-22" transform="translate(12.000000, 12.000000)" fill="#FFBE00">
                <path d="M31.5440439,45.8678769 C34.1037987,45.8678769 36.4161318,44.8111873 38.0665585,43.1112566 C37.0158949,45.7412701 34.439842,47.6 31.4285714,47.6 C28.2590736,47.6 25.5717321,45.7539927 24.6377558,42.903632 C26.3029794,44.8482505 28.7791812,45.8678769 31.5440439,45.8678769 Z" id="Combined-Shape"></path>
                <path d="M46.0150663,34.752733 C46.0150663,26.7030678 43.5415392,22.6647379 41.5754358,20.2571954 C41.5754358,20.2571954 39.8090743,26.5712435 33.7954304,29.075 C27.7817866,31.5787565 14.2857143,26.4369337 14.2857143,35.4875 C14.2857143,44.4288525 21.4645929,51.6976799 30.3865835,51.8718048 C30.257978,51.8739321 30.129114,51.875 30,51.875 C17.3763486,51.875 7.14285714,41.6670923 7.14285714,29.075 C7.14285714,16.4829077 17.3763486,6.275 30,6.275 C42.6236514,6.275 52.8571429,16.4829077 52.8571429,29.075 C52.8571429,40.0878896 45.0295072,49.2771075 34.6212317,51.4087753 C41.8083439,49.6599841 46.0150663,42.4603888 46.0150663,34.752733 Z" id="Combined-Shape"></path>
                <g id="Group-14">
                    <rect id="Rectangle-17" x="0" y="21.95" width="10" height="17.1" rx="5"></rect>
                    <rect id="Rectangle-17-Copy" x="50" y="21.95" width="10" height="17.1" rx="5"></rect>
                    <path d="M57.0676692,27.65 L54.3609023,27.65 C54.3609023,14.2321086 43.4549121,3.35338346 30,3.35338346 C16.5450879,3.35338346 5.63909774,14.2321086 5.63909774,27.65 L2.93233083,27.65 C2.93233083,12.7356837 15.0516964,0.646616541 30,0.646616541 C44.9483036,0.646616541 57.0676692,12.7356837 57.0676692,27.65 Z" id="Oval-8" fill-rule="nonzero"></path>
                </g>
                <g id="Group-16" transform="translate(28.571429, 37.625000)">
                    <path d="M25.4753915,0.0334715299 L27.6182486,0.0334715299 C27.6182486,9.97978831 19.1851724,18.9463818 5.48896764,18.9463818 L5.48896764,16.8035246 C17.9713204,16.8035246 25.4753915,8.82470972 25.4753915,0.0334715299 Z" id="Path-18" fill-rule="nonzero"></path>
                    <ellipse id="Oval-9" cx="3.57142857" cy="17.8125" rx="3.57142857" ry="3.5625"></ellipse>
                </g>
            </g>
        </g>
    </g>
</svg>