<?xml version="1.0" encoding="UTF-8" standalone="no"?>
<svg width="272px" height="221px" viewBox="0 0 272 221" version="1.1" xmlns="http://www.w3.org/2000/svg" xmlns:xlink="http://www.w3.org/1999/xlink">
    <!-- Generator: Sketch 49.3 (51167) - http://www.bohemiancoding.com/sketch -->
    <title>无权限</title>
    <desc>Created with Sketch.</desc>
    <defs>
        <linearGradient x1="50%" y1="0%" x2="50%" y2="100%" id="linearGradient-1">
            <stop stop-color="#DDE7FF" stop-opacity="0.594769022" offset="0%"></stop>
            <stop stop-color="#C8E7FF" stop-opacity="0.691009964" offset="100%"></stop>
        </linearGradient>
        <path d="M99.6231615,0 C84.7097605,17.5330607 62.9959192,20.2590576 50.9277802,20.2590576 C45.4772977,20.2590576 42,19.7025307 42,19.7025307 L42,88.6527693 C42,129.28416 99.6231615,157.600545 99.6231615,157.600545 C99.6231615,157.600545 157.246323,129.281697 157.246323,88.6503067 L157.246323,19.7000682 C157.246323,19.7000682 153.769025,20.2565951 148.318543,20.2565951 C136.250404,20.2590576 114.545371,17.5330607 99.6231615,0 L99.6231615,0 L99.6231615,0 Z" id="path-2"></path>
        <filter x="-3.5%" y="-2.5%" width="106.9%" height="105.1%" filterUnits="objectBoundingBox" id="filter-3">
            <feGaussianBlur stdDeviation="4" in="SourceAlpha" result="shadowBlurInner1"></feGaussianBlur>
            <feOffset dx="0" dy="0" in="shadowBlurInner1" result="shadowOffsetInner1"></feOffset>
            <feComposite in="shadowOffsetInner1" in2="SourceAlpha" operator="arithmetic" k2="-1" k3="1" result="shadowInnerInner1"></feComposite>
            <feColorMatrix values="0 0 0 0 0.70623874   0 0 0 0 0.82431637   0 0 0 0 0.949670493  0 0 0 0.368348053 0" type="matrix" in="shadowInnerInner1"></feColorMatrix>
        </filter>
        <linearGradient x1="50%" y1="0%" x2="50%" y2="100%" id="linearGradient-4">
            <stop stop-color="#E7F9F9" offset="0%"></stop>
            <stop stop-color="#EEFAF9" offset="57.1005536%"></stop>
            <stop stop-color="#EFFAF9" stop-opacity="0" offset="100%"></stop>
        </linearGradient>
        <linearGradient x1="0%" y1="20.0034795%" x2="100%" y2="20.0034797%" id="linearGradient-5">
            <stop stop-color="#63B5FF" offset="0%"></stop>
            <stop stop-color="#8BCDFF" offset="100%"></stop>
        </linearGradient>
        <ellipse id="path-6" cx="11.2837892" cy="11.1122129" rx="8.20639217" ry="8.08160936"></ellipse>
        <filter x="-12.2%" y="-12.4%" width="124.4%" height="124.7%" filterUnits="objectBoundingBox" id="filter-7">
            <feGaussianBlur stdDeviation="1" in="SourceAlpha" result="shadowBlurInner1"></feGaussianBlur>
            <feOffset dx="2" dy="-1" in="shadowBlurInner1" result="shadowOffsetInner1"></feOffset>
            <feComposite in="shadowOffsetInner1" in2="SourceAlpha" operator="arithmetic" k2="-1" k3="1" result="shadowInnerInner1"></feComposite>
            <feColorMatrix values="0 0 0 0 0.745715792   0 0 0 0 0.89544545   0 0 0 0 0.964551446  0 0 0 1 0" type="matrix" in="shadowInnerInner1"></feColorMatrix>
        </filter>
        <path d="M11.2837892,22.0407528 C5.05192452,22.0407528 0,17.1067622 0,11.0203764 C0,4.93399058 5.05192452,0 11.2837892,0 C17.515654,0 22.5675785,4.93399058 22.5675785,11.0203764 C22.5675785,17.1067622 17.515654,22.0407528 11.2837892,22.0407528 Z M11.2837892,18.367294 C15.4383657,18.367294 18.8063154,15.0779669 18.8063154,11.0203764 C18.8063154,6.96278585 15.4383657,3.6734588 11.2837892,3.6734588 C7.12921276,3.6734588 3.76126308,6.96278585 3.76126308,11.0203764 C3.76126308,15.0779669 7.12921276,18.367294 11.2837892,18.367294 Z" id="path-8"></path>
        <linearGradient x1="-1.11022302e-14%" y1="50%" x2="100%" y2="50%" id="linearGradient-10">
            <stop stop-color="#B6E6FF" offset="0%"></stop>
            <stop stop-color="#8ECCFF" offset="100%"></stop>
        </linearGradient>
        <ellipse id="path-11" cx="11.2837892" cy="11.9387411" rx="11.2837892" ry="11.0203764"></ellipse>
        <filter x="-6.6%" y="-6.8%" width="113.3%" height="113.6%" filterUnits="objectBoundingBox" id="filter-12">
            <feGaussianBlur stdDeviation="1" in="SourceAlpha" result="shadowBlurInner1"></feGaussianBlur>
            <feOffset dx="1" dy="-1" in="shadowBlurInner1" result="shadowOffsetInner1"></feOffset>
            <feComposite in="shadowOffsetInner1" in2="SourceAlpha" operator="arithmetic" k2="-1" k3="1" result="shadowInnerInner1"></feComposite>
            <feColorMatrix values="0 0 0 0 0.473472015   0 0 0 0 0.727013639   0 0 0 0 0.929846939  0 0 0 0.349609375 0" type="matrix" in="shadowInnerInner1"></feColorMatrix>
        </filter>
        <path d="M36.9733854,14.3868937 C34.3458944,13.6974017 33.0724406,14.4025102 32.3505086,15.570435 C31.6285767,16.7383597 31.8219767,19.296626 32.3505086,20.4529567 C32.7028632,21.2238438 32.7028632,23.7653105 32.3505086,28.0773568 L42.1340856,35.2676308 C45.1843114,37.509341 49.3896245,37.3002489 52.2024361,34.767023 C53.2160616,33.854149 54.2145104,32.957578 55.1977825,32.0773097 C56.7572841,30.5777747 58.3027462,27.7315497 59.8341688,23.5386346 C55.3886238,15.8497326 52.1080506,11.572784 49.9924492,10.7077888 C43.5507952,8.07402252 38.1469191,14.6948461 36.9733854,14.3868937 Z" id="path-13"></path>
        <filter x="-5.4%" y="-5.9%" width="110.7%" height="117.5%" filterUnits="objectBoundingBox" id="filter-14">
            <feGaussianBlur stdDeviation="1" in="SourceAlpha" result="shadowBlurInner1"></feGaussianBlur>
            <feOffset dx="0" dy="1" in="shadowBlurInner1" result="shadowOffsetInner1"></feOffset>
            <feComposite in="shadowOffsetInner1" in2="SourceAlpha" operator="arithmetic" k2="-1" k3="1" result="shadowInnerInner1"></feComposite>
            <feColorMatrix values="0 0 0 0 0.974596088   0 0 0 0 0.794135255   0 0 0 0 0.543365007  0 0 0 0.5 0" type="matrix" in="shadowInnerInner1"></feColorMatrix>
        </filter>
    </defs>
    <g id="Page-1" stroke="none" stroke-width="1" fill="none" fill-rule="evenodd">
        <g id="8" transform="translate(-52.000000, -114.000000)">
            <g id="Group-3" transform="translate(79.000000, 121.000000)">
                <g id="Shape-Copy" opacity="0.447353078">
                    <use fill="url(#linearGradient-1)" fill-rule="evenodd" xlink:href="#path-2"></use>
                    <use fill="black" fill-opacity="1" filter="url(#filter-3)" xlink:href="#path-2"></use>
                </g>
                <g id="Group-4" transform="translate(0.000000, 52.000000)">
                    <g id="Group-7">
                        <g id="Group-6" transform="translate(8.000000, 22.000000)">
                            <rect id="Rectangle-7" fill="url(#linearGradient-4)" x="0" y="12" width="24" height="50"></rect>
                            <rect id="Rectangle-7-Copy" fill="#E7F9F9" x="0" y="0" width="8" height="12"></rect>
                        </g>
                        <rect id="Rectangle-10-Copy" fill="url(#linearGradient-4)" x="173" y="52" width="21" height="47"></rect>
                        <g id="Group-2" transform="translate(0.000000, 84.000000)">
                            <path d="M216.982426,41 C215.930236,55.9571324 167.763931,68 108.5,68 C49.236069,68 1.06976432,55.9571324 0.0175739444,41 L0,41 L0,23 L18,23 L18,25.3252536 C37.4264108,17.8975663 70.7066266,13 108.5,13 C146.293373,13 179.573589,17.8975663 199,25.3252536 L199,23 L217,23 L217,41 L216.982426,41 Z" id="Combined-Shape" fill="#F3FAFC"></path>
                            <ellipse id="Oval-7-Copy" fill="#F1F7FA" cx="108.5" cy="27.5" rx="108.5" ry="27.5"></ellipse>
                        </g>
                        <path d="M24,15.9499909 L24,16 L2,16 C0.8954305,16 0,15.1045695 0,14 C0,12.8954305 0.8954305,12 2,12 C2.05666444,12 2.11277849,12.0023565 2.16824949,12.0069768 C2.57810954,10.8381415 3.69117556,10 5,10 C5.08499666,10 5.16916773,10.0035347 5.25237424,10.0104653 C5.86716431,8.25721219 7.53676334,7 9.5,7 C11.1403804,7 12.57576,7.87771278 13.3621233,9.1891228 C13.7188665,9.06654431 14.1016621,9 14.5,9 C15.4793441,9 16.3647415,9.40223361 17,10.0505086 C17.6352585,9.40223361 18.5206559,9 19.5,9 C20.9446163,9 22.1848162,9.87521101 22.7192842,11.1243178 C22.9649269,11.0436408 23.227367,11 23.5,11 C24.8807119,11 26,12.1192881 26,13.5 C26,14.709479 25.1411202,15.7183558 24,15.9499909 Z" id="Combined-Shape" fill="#E7F6FF"></path>
                        <path d="M211.846154,13.9222081 L211.846154,14 L177.153846,14 C175.412025,14 174,12.6071081 174,10.8888889 C174,9.17066967 175.412025,7.77777778 177.153846,7.77777778 C177.243202,7.77777778 177.331689,7.78144344 177.419163,7.78863064 C178.06548,5.97044227 179.8207,4.66666667 181.884615,4.66666667 C182.018649,4.66666667 182.15138,4.67216516 182.28259,4.68294596 C183.252067,1.95566341 185.884896,0 188.980769,0 C191.567523,0 193.831006,1.36533099 195.071041,3.40530214 C195.633597,3.21462448 196.237236,3.11111111 196.865385,3.11111111 C198.409735,3.11111111 199.805938,3.73680783 200.807692,4.74523565 C201.809446,3.73680783 203.20565,3.11111111 204.75,3.11111111 C207.028049,3.11111111 208.983749,4.47255046 209.826564,6.41560542 C210.213923,6.29010788 210.627771,6.22222222 211.057692,6.22222222 C213.234969,6.22222222 215,7.96333708 215,10.1111111 C215,11.9925228 213.645613,13.5618868 211.846154,13.9222081 Z" id="Combined-Shape-Copy" fill="#E7F6FF"></path>
                    </g>
                </g>
                <g id="Group-2" transform="translate(61.418301, 55.276074)">
                    <g id="Group-5" transform="translate(73.498470, 76.747026) scale(-1, 1) rotate(-75.000000) translate(-73.498470, -76.747026) translate(62.214680, 56.543003)">
                        <path d="M9.4031577,20.2040234 L13.1644208,20.2040234 L13.1644208,38.5274153 C13.1644208,39.5660594 12.3224334,40.4080468 11.2837892,40.4080468 L11.2837892,40.4080468 C10.2451451,40.4080468 9.4031577,39.5660594 9.4031577,38.5274153 L9.4031577,20.2040234 Z" id="Rectangle-5" fill="url(#linearGradient-5)"></path>
                        <g id="Oval-4">
                            <g id="Oval-5" opacity="0.463910914">
                                <use fill="#FFFFFF" fill-rule="evenodd" xlink:href="#path-6"></use>
                                <use fill="black" fill-opacity="1" filter="url(#filter-7)" xlink:href="#path-6"></use>
                            </g>
                            <mask id="mask-9" fill="white">
                                <use xlink:href="#path-8"></use>
                            </mask>
                            <use id="Mask" fill="#6FB4EC" xlink:href="#path-8"></use>
                            <g mask="url(#mask-9)">
                                <use fill="url(#linearGradient-10)" fill-rule="evenodd" xlink:href="#path-11"></use>
                                <use fill="black" fill-opacity="1" filter="url(#filter-12)" xlink:href="#path-11"></use>
                            </g>
                            <ellipse id="Oval-4-Copy" fill="#7EB6FF" mask="url(#mask-9)" cx="11.2837892" cy="11.9387411" rx="7.52252616" ry="7.3469176"></ellipse>
                        </g>
                    </g>
                    <g id="Group-24">
                        <path d="M31.3417081,42.6481108 L60.8026235,52.8874352 L60.8026235,93.6769856 L66.2221129,99.467078 C66.598661,99.8693758 66.5777868,100.500755 66.1754891,100.877303 C65.9906275,101.050332 65.7468937,101.146603 65.4936885,101.146603 L47.9884751,101.146603 L31.3417081,42.6481108 Z" id="Path-28" fill="#0392DE"></path>
                        <path d="M32.7921703,52.3535471 C35.9916591,48.7155984 39.7626242,47.6869221 44.1050657,49.2675181 C50.7501277,51.6862401 49.9924492,55.9119905 49.9924492,59.7547507 C49.9924492,62.3165908 49.9924492,74.2885654 49.9924492,95.6706744 L53.4214318,99.5042721 C53.7887903,99.9149783 53.75365,100.545724 53.3429438,100.913083 C53.1600187,101.076701 52.9232055,101.167158 52.6777824,101.167158 L38.812451,101.167158 C37.7103949,101.167158 36.8170019,100.273765 36.8170019,99.1717089 L36.8170019,92.6891802 C32.2205395,98.8614957 27.1141334,101.947653 21.4977836,101.947653 C13.073259,101.947653 0.546771573,97.8214223 0.546771573,79.5622918 C0.546771573,67.445075 11.1336591,58.4765513 32.3074342,52.6567207 L32.3074216,52.656675 C32.495116,52.6050852 32.6636188,52.4997154 32.7921703,52.3535471 Z" id="Path-27" fill="#01BBF0"></path>
                        <path d="M36.4611608,46.3226061 C41.4147929,48.2205119 59.3765951,53.5627405 62.024835,53.5627405 C64.6730749,53.5627405 68.7597622,49.268696 66.9901108,44.6463153 C65.8103433,41.5647282 57.8985834,38.6830583 43.2548313,36.0013056 C35.4232962,41.6169021 33.1587393,45.0573356 36.4611608,46.3226061 Z" id="Path-29" fill="#FFD8A3"></path>
                        <path d="M64.5526384,51.9843972 C67.1419614,52.5437056 73.2048159,50.953974 73.2048159,45.9276635 C73.2048159,40.9013531 69.3494031,39.3729432 60.3462271,36.4987827 C59.6503143,36.1616268 58.5741468,34.1250767 54.9744604,34.3842306 C51.374774,34.6433844 50.2189361,37.6434341 51.0644426,37.8272884 C51.6281136,37.9498579 52.1881833,37.6896714 52.7446517,37.0467289 C50.8761198,38.9866793 50.1664301,40.4032016 50.6155827,41.2962957 C51.2893114,42.6359368 54.6967971,42.9920538 58.546401,39.9566546 C62.4915867,41.1253777 64.9383365,42.3499064 65.8866502,43.6302407 C67.3091208,45.5507422 67.3069695,50.807781 64.5526384,51.9843972 Z" id="Path-30" fill="#EEBF7E"></path>
                        <polygon id="Path-31" fill="#EEBF7E" points="27.1040198 27.0242001 32.6508596 20.3221756 32.6508596 27.7290252"></polygon>
                        <g id="Path-33">
                            <use fill="#FFD8A3" fill-rule="evenodd" xlink:href="#path-13"></use>
                            <use fill="black" fill-opacity="1" filter="url(#filter-14)" xlink:href="#path-13"></use>
                        </g>
                        <path d="M45.4753758,32.4051433 C46.2247956,32.594599 46.7340744,32.8452853 46.7340744,32.4051433 C46.7340744,31.9650013 45.8391788,31.6902977 45.172795,31.4811586 C44.5064112,31.2720194 43.9017063,31.0410166 43.9017063,31.4811586 C43.9017063,31.9213006 44.725956,32.2156876 45.4753758,32.4051433 Z" id="Oval-3" stroke="#F2C5C5" stroke-width="0.712660373" transform="translate(45.317890, 31.940184) rotate(9.000000) translate(-45.317890, -31.940184) "></path>
                        <path d="M36.2327239,16.3357606 C36.9995837,5.67354988 41.4319453,0.342444518 49.5298087,0.342444518 C61.6766039,0.342444518 64.6722049,11.4559897 64.6722049,16.9079869 C64.6722049,22.3599841 64.7745975,23.7291743 67.7552295,22.8356733 C64.8094013,24.876645 61.4311209,25.4716404 57.6203883,24.6206597 C55.2471891,24.2037117 51.085053,20.2199446 45.1339801,12.6693581 L36.2327239,16.3357606 Z" id="Path-32" fill="#556188"></path>
                        <path d="M15.7760043,79.2594439 L46.1418839,36.364255 C42.1967229,33.1828008 38.5958926,30.6380651 35.3393931,28.7300478 C30.4546437,25.8680219 23.6667651,25.1858245 17.5117054,31.6342785 C11.3566458,38.0827326 0.117005118,56.1702571 0.58139998,79.7967396" id="Path-26" fill="#0099EB"></path>
                        <path d="M42.9036107,20.2611859 C43.7158202,20.718465 45.4189463,21.887503 46.4055873,21.6427789" id="Path-2" stroke="#686868" stroke-width="0.997724522" opacity="0.700618004" stroke-linecap="round"></path>
                        <path d="M51.8332876,25.3483906 C54.0384233,26.7742235 54.6639271,26.959271 55.261202,26.5725031" id="Path-2" stroke="#686868" stroke-width="0.997724522" opacity="0.700618004" stroke-linecap="round" transform="translate(53.547245, 26.048399) scale(-1, 1) rotate(-57.000000) translate(-53.547245, -26.048399) "></path>
                        <path d="M42.0948877,23.6159714 C41.4068714,22.7218283 42.0619158,22.7716572 42.5272363,22.8833052 C42.9925568,22.9949532 45.2441992,23.4879818 45.3989418,24.002753 C45.5536844,24.5175242 45.2089683,24.7355271 44.9341635,24.7355271 C44.0528876,24.8051075 42.7829041,24.5101145 42.0948877,23.6159714 Z" id="Path-3" fill-opacity="0.412165987" fill="#686868" fill-rule="nonzero"></path>
                        <path d="M50.4681345,28.4261768 C49.7801182,27.5320337 50.4351625,27.5818626 50.900483,27.6935106 C51.3658035,27.8051586 53.6174459,28.2981872 53.7721885,28.8129584 C53.9269311,29.3277297 53.5822151,29.5457325 53.3074103,29.5457325 C52.4261344,29.6153129 51.1561508,29.3203199 50.4681345,28.4261768 Z" id="Path-3-Copy" fill-opacity="0.412165987" fill="#686868" fill-rule="nonzero" transform="translate(51.990210, 28.594490) scale(-1, 1) rotate(-58.000000) translate(-51.990210, -28.594490) "></path>
                    </g>
                </g>
            </g>
        </g>
    </g>
</svg>