<?xml version="1.0" encoding="UTF-8" standalone="no"?>
<svg width="36px" height="28px" viewBox="0 0 36 28" version="1.1" xmlns="http://www.w3.org/2000/svg" xmlns:xlink="http://www.w3.org/1999/xlink">
    <!-- Generator: Sketch 49.3 (51167) - http://www.bohemiancoding.com/sketch -->
    <title>Group 6 Copy 2</title>
    <desc>Created with Sketch.</desc>
    <defs>
        <linearGradient x1="46.394852%" y1="1.27501871%" x2="53.605148%" y2="101.275019%" id="linearGradient-1">
            <stop stop-color="#A65F2A" offset="0%"></stop>
            <stop stop-color="#CB9761" stop-opacity="0" offset="100%"></stop>
        </linearGradient>
        <filter x="-47.4%" y="-18.5%" width="194.8%" height="136.9%" filterUnits="objectBoundingBox" id="filter-2">
            <feGaussianBlur stdDeviation="1.02605379" in="SourceGraphic"></feGaussianBlur>
        </filter>
        <linearGradient x1="0%" y1="54.8801667%" x2="100%" y2="47.6698707%" id="linearGradient-3">
            <stop stop-color="#BA7435" stop-opacity="0.411316803" offset="0%"></stop>
            <stop stop-color="#B07E2A" stop-opacity="0" offset="100%"></stop>
        </linearGradient>
        <linearGradient x1="0%" y1="54.8801667%" x2="100%" y2="47.6698707%" id="linearGradient-4">
            <stop stop-color="#BF9572" offset="0%"></stop>
            <stop stop-color="#C16E36" stop-opacity="0" offset="100%"></stop>
        </linearGradient>
        <linearGradient x1="0%" y1="54.8801667%" x2="99.0764993%" y2="47.7364579%" id="linearGradient-5">
            <stop stop-color="#CD6B2E" offset="0%"></stop>
            <stop stop-color="#894F2C" stop-opacity="0" offset="100%"></stop>
        </linearGradient>
        <radialGradient cx="50%" cy="50%" fx="50%" fy="50%" r="50.1160296%" gradientTransform="translate(0.500000,0.500000),scale(1.000000,0.997685),rotate(90.000000),translate(-0.500000,-0.500000)" id="radialGradient-6">
            <stop stop-color="#FFFFFF" offset="0%"></stop>
            <stop stop-color="#FFFFFF" stop-opacity="0" offset="100%"></stop>
        </radialGradient>
        <filter x="-7.3%" y="-7.3%" width="114.6%" height="114.6%" filterUnits="objectBoundingBox" id="filter-7">
            <feGaussianBlur stdDeviation="0.197785772" in="SourceGraphic"></feGaussianBlur>
        </filter>
        <linearGradient x1="50%" y1="0%" x2="50%" y2="100%" id="linearGradient-8">
            <stop stop-color="#ECB14B" offset="0%"></stop>
            <stop stop-color="#F7C651" offset="100%"></stop>
        </linearGradient>
        <linearGradient x1="50%" y1="100%" x2="50%" y2="3.061617e-15%" id="linearGradient-9">
            <stop stop-color="#ECB14B" offset="0%"></stop>
            <stop stop-color="#F7C651" offset="100%"></stop>
        </linearGradient>
        <linearGradient x1="50%" y1="0%" x2="50%" y2="100%" id="linearGradient-10">
            <stop stop-color="#FCD26D" offset="0%"></stop>
            <stop stop-color="#E7B257" offset="100%"></stop>
        </linearGradient>
        <linearGradient x1="50%" y1="0%" x2="50%" y2="97.1753071%" id="linearGradient-11">
            <stop stop-color="#F5C247" offset="0%"></stop>
            <stop stop-color="#FCD16B" offset="44.2960778%"></stop>
            <stop stop-color="#F3BE3F" offset="100%"></stop>
        </linearGradient>
        <linearGradient x1="0%" y1="43.8833249%" x2="86.4020971%" y2="45.4108575%" id="linearGradient-12">
            <stop stop-color="#C17DCB" stop-opacity="0" offset="0%"></stop>
            <stop stop-color="#8D479C" stop-opacity="0.229138361" offset="100%"></stop>
        </linearGradient>
        <linearGradient x1="50%" y1="0%" x2="50%" y2="100%" id="linearGradient-13">
            <stop stop-color="#F5C247" offset="0%"></stop>
            <stop stop-color="#FCD067" offset="16.8526786%"></stop>
            <stop stop-color="#FCCF64" offset="30.341199%"></stop>
            <stop stop-color="#FDD168" offset="50.263074%"></stop>
            <stop stop-color="#F0B831" offset="100%"></stop>
        </linearGradient>
        <path d="M17.8213968,3.40459637 L17.8213968,3.40459637 C18.7441299,3.40459637 19.4921528,4.15261929 19.4921528,5.07535232 L19.4921528,20.2381432 L16.1506409,20.2381432 L16.1506409,5.07535232 C16.1506409,4.15261929 16.8986638,3.40459637 17.8213968,3.40459637 Z" id="path-14"></path>
        <filter x="-29.9%" y="-5.9%" width="159.9%" height="111.9%" filterUnits="objectBoundingBox" id="filter-15">
            <feGaussianBlur stdDeviation="1" in="SourceAlpha" result="shadowBlurInner1"></feGaussianBlur>
            <feOffset dx="0" dy="0" in="shadowBlurInner1" result="shadowOffsetInner1"></feOffset>
            <feComposite in="shadowOffsetInner1" in2="SourceAlpha" operator="arithmetic" k2="-1" k3="1" result="shadowInnerInner1"></feComposite>
            <feColorMatrix values="0 0 0 0 1   0 0 0 0 1   0 0 0 0 1  0 0 0 0.5 0" type="matrix" in="shadowInnerInner1"></feColorMatrix>
        </filter>
        <linearGradient x1="1.6348818%" y1="75.7762085%" x2="98.0259874%" y2="75.7762074%" id="linearGradient-16">
            <stop stop-color="#DFAC2F" offset="0%"></stop>
            <stop stop-color="#EAC05C" offset="52.1440969%"></stop>
            <stop stop-color="#D4A32B" offset="100%"></stop>
        </linearGradient>
        <linearGradient x1="95.0310549%" y1="75.7762075%" x2="1.6348818%" y2="75.7762085%" id="linearGradient-17">
            <stop stop-color="#F0B831" offset="0%"></stop>
            <stop stop-color="#FED46F" offset="52.1440969%"></stop>
            <stop stop-color="#F0B831" offset="100%"></stop>
        </linearGradient>
    </defs>
    <g id="Page-1" stroke="none" stroke-width="1" fill="none" fill-rule="evenodd">
        <g id="1-copy-73" transform="translate(-32.000000, -599.000000)">
            <g id="Group-6" transform="translate(0.000000, 580.000000)">
                <g id="Group-16" transform="translate(32.000000, 14.000000)">
                    <g id="Group-6-Copy-2" transform="translate(0.000000, 4.000000)">
                        <path d="M18.5483096,6.98651403 C25.0563184,12.7647012 24.3628681,18.323477 16.4679585,23.6628414 C17.8233091,12.960734 18.5167595,7.40195822 18.5483096,6.98651403 Z" id="Path-9" fill="url(#linearGradient-1)" opacity="0.100000001" filter="url(#filter-2)"></path>
                        <path d="M12.3498529,6.74492161 C16.3724632,7.0921818 17.9640753,12.2301815 17.1246892,22.1589206 C14.1250317,21.6479042 11.5851214,19.4074289 9.5049582,15.4374947 C6.96883238,10.5973683 10.1570879,7.41866033 12.3498529,6.74492161 Z" id="Path-9-Copy" fill="url(#linearGradient-3)" opacity="0.100000001"></path>
                        <path d="M4.71295487,8.07429971 C6.37853607,13.8632182 7.87836483,18.9981527 9.21244115,23.4791033 C6.21278363,22.9680869 3.67287329,20.7276116 1.59271013,16.7576774 C-0.94341568,11.917551 4.68869643,8.39372913 4.71295487,8.07429971 Z" id="Path-9-Copy-2" fill="url(#linearGradient-4)" opacity="0.100000001"></path>
                        <path d="M29.3288377,8.51436059 C30.9944189,14.303279 32.4942477,19.4382136 33.828324,23.9191642 C30.8286665,23.4081478 28.2887561,21.1676725 26.208593,17.1977383 C23.6724672,12.3576119 29.3045793,8.83379002 29.3288377,8.51436059 Z" id="Path-9-Copy-3" fill="url(#linearGradient-5)" opacity="0.100000001" transform="translate(29.690394, 16.216762) scale(-1, 1) translate(-29.690394, -16.216762) "></path>
                        <ellipse id="Oval-3" fill="url(#radialGradient-6)" opacity="0.661555504" filter="url(#filter-7)" cx="17.86" cy="4.63792448" rx="4.05031746" ry="4.05971659"></ellipse>
                        <g id="Group-5-Copy" transform="translate(0.038603, 1.714929)">
                            <g id="Group-3" transform="translate(12.099885, 0.000000)">
                                <g id="Group-2" transform="translate(3.812077, 0.000000)" fill="url(#linearGradient-8)">
                                    <path d="M1.90943537,0 L3.54560165,2.7998104 C3.63220831,2.94801185 3.58227586,3.13836143 3.43407441,3.22496808 C3.38649177,3.25277465 3.33237102,3.26742892 3.27725919,3.26742892 L0.541611555,3.26742892 C0.369959634,3.26742892 0.230808257,3.12827754 0.230808257,2.95662562 C0.230808257,2.90151379 0.245462524,2.84739305 0.273269094,2.7998104 L1.90943537,0 Z" id="Triangle-Copy" transform="translate(1.909460, 1.633714) scale(1, -1) translate(-1.909460, -1.633714) "></path>
                                    <path d="M1.90943537,2.80065336 L3.52609961,6.12806903 C3.60111345,6.28246238 3.53676364,6.46843365 3.38237029,6.54344749 C3.34004485,6.5640118 3.29360243,6.57469689 3.24654572,6.57469689 L0.553660124,6.57469689 C0.382008203,6.57469689 0.242856827,6.43554552 0.242856827,6.26389359 C0.242856827,6.21636157 0.253758799,6.16946278 0.274724247,6.12680433 L1.90943537,2.80065336 Z" id="Triangle-Copy"></path>
                                </g>
                                <g transform="translate(4.755069, 3.124764) rotate(-270.000000) translate(-4.755069, -3.124764) translate(2.755069, -0.875236)" id="Group-2">
                                    <g>
                                        <path d="M1.90943537,3.26742892 L3.54386424,0.470591592 C3.63091957,0.321622364 3.58100803,0.130122883 3.4323837,0.0428655292 C3.38457305,0.0147958918 3.33016473,0 3.27475608,0 L0.544114671,0 C0.371871172,0 0.232240227,0.139954971 0.232240227,0.312598178 C0.232240227,0.368135414 0.247001863,0.42266999 0.275006513,0.470591592 L1.90943537,3.26742892 Z" id="Triangle-Copy" fill="url(#linearGradient-9)"></path>
                                        <path d="M1.90943537,2.80065336 L3.54560165,5.60046376 C3.63220831,5.74866521 3.58227586,5.93901478 3.43407441,6.02562144 C3.38649177,6.05342801 3.33237102,6.06808228 3.27725919,6.06808228 L0.541611555,6.06808228 C0.369959634,6.06808228 0.230808257,5.9289309 0.230808257,5.75727898 C0.230808257,5.70216715 0.245462524,5.6480464 0.273269094,5.60046376 L1.90943537,2.80065336 Z" id="Triangle-Copy" fill="url(#linearGradient-8)"></path>
                                    </g>
                                </g>
                            </g>
                            <g id="Group" transform="translate(0.000000, 3.069971)">
                                <path d="M8.58610533,3.20547492 C5.08760043,2.05705961 1.33418001,3.75662659 0.447123466,7.54061523 C-0.451913126,11.3757081 2.20508938,15.8834526 8.15170653,21.2317784 C8.72099112,21.743787 9.60152133,21.7017267 10.1184258,21.137834 C10.6353303,20.5739414 10.5928678,19.701751 10.0235832,19.1897424 C4.75883268,14.4546804 2.55963037,10.723618 3.15955181,8.16448477 C3.64989413,6.07279198 5.6752574,5.15569766 7.71014567,5.82366782 C8.44005293,6.06326636 9.22784992,5.67139691 9.4697395,4.94840291 C9.71162908,4.2254089 9.31601258,3.44507346 8.58610533,3.20547492 Z" id="Path-2-Copy-3" fill="url(#linearGradient-10)" fill-rule="nonzero"></path>
                                <path d="M2.94869732,3.83791115 C5.26990193,2.44203219 8.12639831,2.58920848 10.1444617,3.9511463 C7.5537293,2.66283369 5.30468928,2.7360086 2.94869732,3.83791115 Z" id="Path-11" fill="#FFFFFF"></path>
                                <path d="M33.3286783,3.07486998 C29.9228281,2.20950746 26.4837032,3.93707796 25.6389488,7.54061523 C24.7578726,11.2990928 27.2931312,15.7020617 32.9827301,20.9046024 C33.5477356,21.4212407 34.4285858,21.3863694 34.9501642,20.8267153 C35.4717425,20.2670612 35.4365378,19.3945538 34.8715322,18.8779156 C29.851336,14.2874732 27.7652824,10.6646361 28.3513771,8.16448477 C28.8191696,6.16898463 30.6599445,5.24431091 32.6367997,5.74659268 C33.3816302,5.93584009 34.1403169,5.49116994 34.3313739,4.75339409 C34.5224309,4.01561823 34.0735088,3.26411739 33.3286783,3.07486998 Z" id="Path-2-Copy-2" fill="url(#linearGradient-10)" fill-rule="nonzero" transform="translate(30.393697, 12.062595) scale(-1, 1) translate(-30.393697, -12.062595) "></path>
                                <path d="M25.3667335,3.83791115 C27.6879381,2.44203219 30.5444345,2.58920848 32.5624979,3.9511463 C29.9717655,2.66283369 27.7227255,2.7360086 25.3667335,3.83791115 Z" id="Path-11" fill="#FFFFFF" transform="translate(28.964616, 3.404596) scale(-1, 1) translate(-28.964616, -3.404596) "></path>
                                <path d="M18.8460753,6.53429919 C18.8460753,-0.45025579 8.20949303,-1.64590519 6.57322862,5.33403986 C5.57890473,9.57560749 8.93047172,14.6536418 16.3450141,20.8085663 C16.9343632,21.297794 17.8125147,21.2211546 18.3064203,20.6373874 C18.800326,20.0536203 18.7229538,19.1837861 18.1336047,18.6945585 C11.4663741,13.1599889 8.61136335,8.83429805 9.28565697,5.9579094 C10.1734538,2.17076299 16.0614821,2.83263138 16.0614821,6.53429919 C16.0614821,7.29596039 16.6848345,7.9134088 17.4537787,7.9134088 C18.2227229,7.9134088 18.8460753,7.29596039 18.8460753,6.53429919 Z" id="Path-2" fill="#D1AA69" fill-rule="nonzero"></path>
                                <path d="M18.8460753,6.53429919 C18.8460753,-0.45025579 8.20949303,-1.64590519 6.57322862,5.33403986 C5.57890473,9.57560749 8.93047172,14.6536418 16.3450141,20.8085663 C16.9343632,21.297794 17.8125147,21.2211546 18.3064203,20.6373874 C18.800326,20.0536203 18.7229538,19.1837861 18.1336047,18.6945585 C11.4663741,13.1599889 8.61136335,8.83429805 9.28565697,5.9579094 C10.1734538,2.17076299 16.0614821,2.83263138 16.0614821,6.53429919 C16.0614821,7.29596039 16.6848345,7.9134088 17.4537787,7.9134088 C18.2227229,7.9134088 18.8460753,7.29596039 18.8460753,6.53429919 Z" id="Path-2" fill="url(#linearGradient-11)" fill-rule="nonzero"></path>
                                <path d="M29.1933226,6.53429919 C29.1933226,-0.45025579 18.5567403,-1.64590519 16.9204759,5.33403986 C15.9310178,9.55485126 19.2451152,14.6031605 26.5804031,20.7155343 C27.1688246,21.2058563 28.0471197,21.1308488 28.5421301,20.5480004 C29.0371404,19.965152 28.9614157,19.0951756 28.3729942,18.6048537 C21.7816903,13.1124294 18.9624487,8.81792579 19.6329043,5.9579094 C20.5207011,2.17076299 26.4087294,2.83263138 26.4087294,6.53429919 C26.4087294,7.29596039 27.0320818,7.9134088 27.801026,7.9134088 C28.5699702,7.9134088 29.1933226,7.29596039 29.1933226,6.53429919 Z" id="Path-2-Copy" fill="url(#linearGradient-11)" fill-rule="nonzero" transform="translate(22.971374, 10.849233) scale(-1, 1) translate(-22.971374, -10.849233) "></path>
                                <path d="M17.0075112,17.4122713 C14.7071563,16.8370279 10.8201927,8.90319648 12.5895153,19.0006806 C13.1281288,21.0081518 16.6310295,20.2099427 17.8153826,20.2099427 C17.6762074,20.3987414 19.0542904,19.6084776 17.0075112,17.4122713 Z" id="Path-10" fill="url(#linearGradient-12)"></path>
                                <path d="M22.0092628,17.5259268 C19.7089079,16.9506834 15.8219444,9.01685193 17.591267,19.1143361 C18.1298804,21.1218073 21.6327811,20.3235982 22.8171343,20.3235982 C22.6779591,20.5123968 24.056042,19.722133 22.0092628,17.5259268 Z" id="Path-10" fill="url(#linearGradient-12)" transform="translate(20.143054, 17.250539) scale(-1, 1) translate(-20.143054, -17.250539) "></path>
                                <g id="Rectangle-7">
                                    <use fill="url(#linearGradient-13)" fill-rule="evenodd" xlink:href="#path-14"></use>
                                    <use fill="black" fill-opacity="1" filter="url(#filter-15)" xlink:href="#path-14"></use>
                                </g>
                                <path d="M9.10266803,1.63760674 C11.4238726,0.241727774 14.280369,0.388904067 16.2984324,1.75084188 C13.7077,0.46252928 11.45866,0.535704188 9.10266803,1.63760674 Z" id="Path-11" fill="#FFFFFF"></path>
                                <path d="M19.2127628,1.63760674 C21.5339674,0.241727774 24.3904638,0.388904067 26.4085272,1.75084188 C23.8177948,0.46252928 21.5687547,0.535704188 19.2127628,1.63760674 Z" id="Path-11" fill="#FFFFFF" transform="translate(22.810645, 1.204292) scale(-1, 1) translate(-22.810645, -1.204292) "></path>
                            </g>
                            <g id="Group-4" transform="translate(6.126105, 21.653182)">
                                <path d="M0.56304858,3.48549206 C0.493464206,2.94608403 1.01629922,2.70672951 2.13155361,2.76742849 C4.17003191,2.87837498 6.69267625,3.3928153 11.7027335,3.3928153 C16.7127908,3.3928153 19.9574322,2.87921463 22.0050962,2.76742849 C22.6246822,2.73360403 22.902915,2.97295856 22.8397946,3.48549206 L22.8397946,3.48549206 C22.8397946,3.8055742 22.609177,4.07909544 22.2936979,4.13318343 C18.7857701,4.73463609 15.2640346,5.03534858 11.7284963,5.03534858 C8.19126668,5.03534858 4.65152507,4.73434833 1.10927143,4.13234783 L1.10926736,4.1323718 C0.793827631,4.07876331 0.56304858,3.80545471 0.56304858,3.48549206 Z" id="Rectangle-6-Copy" fill="url(#linearGradient-16)"></path>
                                <path d="M0.560430297,1.00413652 C4.42768098,0.334712173 8.13457631,6.81659969e-17 11.6811163,0 C15.2282765,0 18.9444521,0.334829255 22.8296432,1.00448777 L22.8296487,1.00445589 C23.1309488,1.05638852 23.3331011,1.34274027 23.2811685,1.64404042 C23.2802737,1.64923217 23.2793047,1.65441088 23.278262,1.65957496 L22.8336647,3.8615069 C19.1066983,3.12598178 15.3891821,2.75821922 11.6811163,2.75821922 C7.9730504,2.75821922 4.26498452,3.12598178 0.556918651,3.8615069 L0.112257748,1.65911589 C0.0517522818,1.35945392 0.245626934,1.06748053 0.545288905,1.00697506 C0.550322624,1.00595869 0.555370244,1.00501242 0.560430297,1.00413652 Z" id="Rectangle-5-Copy" fill="url(#linearGradient-17)"></path>
                            </g>
                        </g>
                    </g>
                </g>
            </g>
        </g>
    </g>
</svg>