<?xml version="1.0" encoding="UTF-8" standalone="no"?>
<svg width="86px" height="96px" viewBox="0 0 86 96" version="1.1" xmlns="http://www.w3.org/2000/svg" xmlns:xlink="http://www.w3.org/1999/xlink">
    <!-- Generator: Sketch 49.3 (51167) - http://www.bohemiancoding.com/sketch -->
    <title>Group 2</title>
    <desc>Created with Sketch.</desc>
    <defs>
        <linearGradient x1="16.1275649%" y1="0%" x2="50%" y2="100%" id="linearGradient-1">
            <stop stop-color="#FFD400" offset="0%"></stop>
            <stop stop-color="#FFBE00" offset="100%"></stop>
        </linearGradient>
    </defs>
    <g id="Page-1" stroke="none" stroke-width="1" fill="none" fill-rule="evenodd">
        <g id="反馈3" transform="translate(-145.000000, -114.000000)">
            <g id="大图标/安全警告" transform="translate(138.000000, 112.000000)">
                <g id="Group-2" transform="translate(7.000000, 2.000000)">
                    <path d="M0.516713483,45.2857828 C0.516713483,34.9331818 0.5,25.1126768 0.5,12.7142172 C12.2696348,8.98570707 25.2240169,4.53510101 43,0.5 C60.7759831,4.53510101 73.7303652,8.98570707 85.5,12.7142172 C85.5,25.1126768 85.4832865,34.9331818 85.4832865,45.2857828 C85.4832865,74.452702 61.6751685,90.4981061 43,95.5 C24.3248315,90.4981061 0.516713483,74.452702 0.516713483,45.2857828 Z" id="Fill-" fill="url(#linearGradient-1)"></path>
                    <path d="M40.4618647,26.5 L45.5381348,26.5 C46.0940784,26.5 46.5198627,26.9453685 46.4993026,27.4947585 L45.3762034,57.5052102 C45.3658439,57.7820286 45.1317571,58 44.853059,58 L41.1469404,58 C40.8697451,58 40.6340226,57.7784751 40.623796,57.5052102 L39.5006968,27.4947585 C39.4801339,26.9452939 39.9104662,26.5 40.4618647,26.5 Z M43,69.5 C41.0670034,69.5 39.5,67.9329966 39.5,66 C39.5,64.0670034 41.0670034,62.5 43,62.5 C44.9329966,62.5 46.5,64.0670034 46.5,66 C46.5,67.9329966 44.9329966,69.5 43,69.5 Z" id="Path-" fill="#FFFFFF"></path>
                </g>
            </g>
        </g>
    </g>
</svg>