<?xml version="1.0" encoding="UTF-8" standalone="no"?>
<svg width="272px" height="221px" viewBox="0 0 272 221" version="1.1" xmlns="http://www.w3.org/2000/svg" xmlns:xlink="http://www.w3.org/1999/xlink">
    <!-- Generator: Sketch 49.3 (51167) - http://www.bohemiancoding.com/sketch -->
    <title>出错</title>
    <desc>Created with Sketch.</desc>
    <defs>
        <rect id="path-1" x="0" y="0" width="375" height="672"></rect>
        <filter x="-13.4%" y="-7.0%" width="126.9%" height="126.2%" filterUnits="objectBoundingBox" id="filter-2">
            <feOffset dx="0" dy="10" in="SourceAlpha" result="shadowOffsetOuter1"></feOffset>
            <feGaussianBlur stdDeviation="5.5" in="shadowOffsetOuter1" result="shadowBlurOuter1"></feGaussianBlur>
            <feColorMatrix values="0 0 0 0 0.0781374404   0 0 0 0 0.223215788   0 0 0 0 0.595583546  0 0 0 0.068897192 0" type="matrix" in="shadowBlurOuter1" result="shadowMatrixOuter1"></feColorMatrix>
            <feMerge>
                <feMergeNode in="shadowMatrixOuter1"></feMergeNode>
                <feMergeNode in="SourceGraphic"></feMergeNode>
            </feMerge>
        </filter>
        <linearGradient x1="50%" y1="0%" x2="50%" y2="100%" id="linearGradient-3">
            <stop stop-color="#E8F0FF" offset="0%"></stop>
            <stop stop-color="#C1DBFF" offset="100%"></stop>
        </linearGradient>
        <linearGradient x1="75.7605406%" y1="87.4691927%" x2="34.9684033%" y2="0%" id="linearGradient-4">
            <stop stop-color="#EDF8FF" offset="0%"></stop>
            <stop stop-color="#E3EEFF" offset="100%"></stop>
        </linearGradient>
        <linearGradient x1="3.79398927%" y1="5.84976256%" x2="97.3409908%" y2="92.7192932%" id="linearGradient-5">
            <stop stop-color="#E4F7FF" offset="0%"></stop>
            <stop stop-color="#CAD7FD" offset="100%"></stop>
        </linearGradient>
        <path d="M48.8775141,58.8612179 C46.643066,61.0786442 44.5965446,63.484859 42.7639208,66.053915 C33.1558826,65.1210972 26.1761783,66.8103765 23.4942966,71.4555318 C16.866644,82.9349628 38.9962973,108.119414 72.9222607,127.706578 C106.848224,147.293742 139.723425,153.866359 146.351078,142.386928 C149.380394,137.139998 146.401876,129.029883 139.035117,119.899747 C140.227646,117.10389 141.19685,114.190127 141.920345,111.180822 C156.042944,125.89842 162.521,139.867183 157.545347,148.485267 C148.968257,163.341222 109.604125,156.671838 69.6230958,133.58878 C29.642067,110.505723 4.18414443,79.7500758 12.7612342,64.8941205 C17.3962897,56.865969 31.0221365,55.1238983 48.87751,58.8612171 Z" id="path-6"></path>
        <filter x="-1.7%" y="-2.5%" width="103.4%" height="105.1%" filterUnits="objectBoundingBox" id="filter-7">
            <feGaussianBlur stdDeviation="2.5" in="SourceAlpha" result="shadowBlurInner1"></feGaussianBlur>
            <feOffset dx="0" dy="0" in="shadowBlurInner1" result="shadowOffsetInner1"></feOffset>
            <feComposite in="shadowOffsetInner1" in2="SourceAlpha" operator="arithmetic" k2="-1" k3="1" result="shadowInnerInner1"></feComposite>
            <feColorMatrix values="0 0 0 0 0.313210227   0 0 0 0 0.498643119   0 0 0 0 0.964285714  0 0 0 0.111384737 0" type="matrix" in="shadowInnerInner1"></feColorMatrix>
        </filter>
        <path d="M36.9733854,14.3868937 C34.3458944,13.6974017 33.0724406,14.4025102 32.3505086,15.570435 C31.6285767,16.7383597 31.8219767,19.296626 32.3505086,20.4529567 C32.7028632,21.2238438 32.7028632,23.7653105 32.3505086,28.0773568 L42.1340856,35.2676308 C45.1843114,37.509341 49.3896245,37.3002489 52.2024361,34.767023 C53.2160616,33.854149 54.2145104,32.957578 55.1977825,32.0773097 C56.7572841,30.5777747 58.3027462,27.7315497 59.8341688,23.5386346 C55.3886238,15.8497326 52.1080506,11.572784 49.9924492,10.7077888 C43.5507952,8.07402252 38.1469191,14.6948461 36.9733854,14.3868937 Z" id="path-8"></path>
        <filter x="-5.4%" y="-5.9%" width="110.7%" height="117.5%" filterUnits="objectBoundingBox" id="filter-9">
            <feGaussianBlur stdDeviation="1" in="SourceAlpha" result="shadowBlurInner1"></feGaussianBlur>
            <feOffset dx="0" dy="1" in="shadowBlurInner1" result="shadowOffsetInner1"></feOffset>
            <feComposite in="shadowOffsetInner1" in2="SourceAlpha" operator="arithmetic" k2="-1" k3="1" result="shadowInnerInner1"></feComposite>
            <feColorMatrix values="0 0 0 0 0.974596088   0 0 0 0 0.794135255   0 0 0 0 0.543365007  0 0 0 0.5 0" type="matrix" in="shadowInnerInner1"></feColorMatrix>
        </filter>
    </defs>
    <g id="Page-1" stroke="none" stroke-width="1" fill="none" fill-rule="evenodd">
        <g id="1" transform="translate(-52.000000, -114.000000)">
            <g id="Group-23">
                <g id="结果页面-copy">
                    <g id="bg">
                        <use fill="#FFFFFF" fill-rule="evenodd" xlink:href="#path-1"></use>
                        <rect stroke="#E5E5E5" stroke-width="0.5" x="0.25" y="0.25" width="374.5" height="671.5"></rect>
                    </g>
                </g>
            </g>
            <g id="Group-5" transform="translate(86.000000, 131.000000)">
                <g id="Group-14-Copy">
                    <path d="M128.362385,120.547294 C135.833257,129.126534 171.170832,121.744491 163.69996,126.382878 C156.229088,131.021266 152.980592,134.889252 163.69996,138.978942 C174.419328,143.068631 189.861781,146.26586 175.60042,150.482172 C161.339058,154.698484 151.871506,162.140342 189.861781,170.595181 C227.852056,179.05002 195.260376,184.805797 178.299717,187.904719 C161.339058,191.003642 156.272277,184.236562 112.425372,178.920632 C68.5784663,173.604702 47.2627715,184.589772 22.5244009,178.920632 C-2.21396978,173.251491 -3.04903811,167.916618 12.1839816,164.140153 C27.4170013,160.363688 22.5244009,160.559613 22.5244009,159.060537 C22.5244009,157.561461 16.0964125,157.255254 12.1839816,157.688936 C3.93529347,158.371783 -8.9337195,150.190154 9.56662605,145.842972 C28.0669716,141.495789 10.9623458,135.393678 32.08825,131.337715 C53.2141541,127.281752 120.891513,111.968054 128.362385,120.547294 Z" id="Path-51" fill="#EFF9FF" opacity="0.714610541"></path>
                    <g id="Group-10" filter="url(#filter-2)" transform="translate(47.705116, 0.000000)">
                        <ellipse id="Oval-3" fill="#BFDFFD" opacity="0.487873134" cx="112.146977" cy="19.4" rx="2.77395349" ry="2.77142857"></ellipse>
                        <ellipse id="Oval-3-Copy-3" fill="#BFDFFD" opacity="0.487873134" cx="146.226977" cy="72.4530612" rx="2.77395349" ry="2.77142857"></ellipse>
                        <ellipse id="Oval-3-Copy" fill="#F0F1FF" cx="89.9553488" cy="32.0693878" rx="1.98139535" ry="1.97959184"></ellipse>
                        <ellipse id="Oval-3-Copy-2" fill="#F0F1FF" cx="124.827907" cy="40.7795918" rx="1.98139535" ry="1.97959184"></ellipse>
                        <ellipse id="Oval" fill="url(#linearGradient-3)" cx="87.9739535" cy="98.1877551" rx="55.4790698" ry="55.4285714"></ellipse>
                        <g id="Group-2" transform="translate(15.851163, 31.673469)"></g>
                        <ellipse id="Oval-2" fill="url(#linearGradient-4)" opacity="0.389237431" cx="82.0297674" cy="69.2857143" rx="8.32186047" ry="8.31428571"></ellipse>
                        <ellipse id="Oval-2-Copy" fill="url(#linearGradient-4)" opacity="0.514715473" cx="105.013953" cy="92.2489796" rx="14.6623256" ry="14.6489796"></ellipse>
                        <g id="Combined-Shape">
                            <use fill="url(#linearGradient-5)" fill-rule="evenodd" xlink:href="#path-6"></use>
                            <use fill="black" fill-opacity="1" filter="url(#filter-7)" xlink:href="#path-6"></use>
                        </g>
                        <g id="Group-9" opacity="0.300000012" transform="translate(53.101395, 16.420408)" fill="#D1D3F4">
                            <rect id="Rectangle-21" x="0" y="5.75102041" width="12.6809302" height="3.16734694" rx="1.58367347"></rect>
                            <rect id="Rectangle-21" transform="translate(6.340465, 7.334694) rotate(-270.000000) translate(-6.340465, -7.334694) " x="0" y="5.75102041" width="12.6809302" height="3.16734694" rx="1.58367347"></rect>
                        </g>
                        <polygon id="Star" fill="#D1D3F4" opacity="0.200000003" points="21.7953488 5.97764841 18.1525978 7.99453735 20.1713242 4.35510204 18.1525978 0.71566673 21.7953488 2.73255567 25.4380999 0.71566673 23.4193734 4.35510204 25.4380999 7.99453735"></polygon>
                        <polygon id="Star-Copy" fill="#D1D3F4" opacity="0.300000012" points="5.60423235 25.5157646 8.8817842e-16 28.6186707 3.10573298 23.0195394 -8.8817842e-16 17.4204082 5.60423235 20.5233142 11.2084647 17.4204082 8.10273172 23.0195394 11.2084647 28.6186707"></polygon>
                    </g>
                </g>
            </g>
            <g id="Group-24" transform="translate(140.418301, 198.276074)">
                <path d="M31.3417081,42.6481108 L60.8026235,52.8874352 L60.8026235,93.6769856 L66.2221129,99.467078 C66.598661,99.8693758 66.5777868,100.500755 66.1754891,100.877303 C65.9906275,101.050332 65.7468937,101.146603 65.4936885,101.146603 L47.9884751,101.146603 L31.3417081,42.6481108 Z" id="Path-28" fill="#0392DE"></path>
                <path d="M32.7921703,52.3535471 C35.9916591,48.7155984 39.7626242,47.6869221 44.1050657,49.2675181 C50.7501277,51.6862401 49.9924492,55.9119905 49.9924492,59.7547507 C49.9924492,62.3165908 49.9924492,74.2885654 49.9924492,95.6706744 L53.4214318,99.5042721 C53.7887903,99.9149783 53.75365,100.545724 53.3429438,100.913083 C53.1600187,101.076701 52.9232055,101.167158 52.6777824,101.167158 L38.812451,101.167158 C37.7103949,101.167158 36.8170019,100.273765 36.8170019,99.1717089 L36.8170019,92.6891802 C32.2205395,98.8614957 27.1141334,101.947653 21.4977836,101.947653 C13.073259,101.947653 0.546771573,97.8214223 0.546771573,79.5622918 C0.546771573,67.445075 11.1336591,58.4765513 32.3074342,52.6567207 L32.3074216,52.656675 C32.495116,52.6050852 32.6636188,52.4997154 32.7921703,52.3535471 Z" id="Path-27" fill="#01BBF0"></path>
                <path d="M36.4611608,46.3226061 C41.4147929,48.2205119 59.3765951,53.5627405 62.024835,53.5627405 C64.6730749,53.5627405 68.7597622,49.268696 66.9901108,44.6463153 C65.8103433,41.5647282 57.8985834,38.6830583 43.2548313,36.0013056 C35.4232962,41.6169021 33.1587393,45.0573356 36.4611608,46.3226061 Z" id="Path-29" fill="#FFD8A3"></path>
                <path d="M64.5526384,51.9843972 C67.1419614,52.5437056 73.2048159,50.953974 73.2048159,45.9276635 C73.2048159,40.9013531 69.3494031,39.3729432 60.3462271,36.4987827 C59.6503143,36.1616268 58.5741468,34.1250767 54.9744604,34.3842306 C51.374774,34.6433844 50.2189361,37.6434341 51.0644426,37.8272884 C51.6281136,37.9498579 52.1881833,37.6896714 52.7446517,37.0467289 C50.8761198,38.9866793 50.1664301,40.4032016 50.6155827,41.2962957 C51.2893114,42.6359368 54.6967971,42.9920538 58.546401,39.9566546 C62.4915867,41.1253777 64.9383365,42.3499064 65.8866502,43.6302407 C67.3091208,45.5507422 67.3069695,50.807781 64.5526384,51.9843972 Z" id="Path-30" fill="#EEBF7E"></path>
                <polygon id="Path-31" fill="#EEBF7E" points="27.1040198 27.0242001 32.6508596 20.3221756 32.6508596 27.7290252"></polygon>
                <g id="Path-33">
                    <use fill="#FFD8A3" fill-rule="evenodd" xlink:href="#path-8"></use>
                    <use fill="black" fill-opacity="1" filter="url(#filter-9)" xlink:href="#path-8"></use>
                </g>
                <path d="M45.4753758,32.4051433 C46.2247956,32.594599 46.7340744,32.8452853 46.7340744,32.4051433 C46.7340744,31.9650013 45.8391788,31.6902977 45.172795,31.4811586 C44.5064112,31.2720194 43.9017063,31.0410166 43.9017063,31.4811586 C43.9017063,31.9213006 44.725956,32.2156876 45.4753758,32.4051433 Z" id="Oval-3" stroke="#F2C5C5" stroke-width="0.712660373" transform="translate(45.317890, 31.940184) rotate(9.000000) translate(-45.317890, -31.940184) "></path>
                <path d="M36.2327239,16.3357606 C36.9995837,5.67354988 41.4319453,0.342444518 49.5298087,0.342444518 C61.6766039,0.342444518 64.6722049,11.4559897 64.6722049,16.9079869 C64.6722049,22.3599841 64.7745975,23.7291743 67.7552295,22.8356733 C64.8094013,24.876645 61.4311209,25.4716404 57.6203883,24.6206597 C55.2471891,24.2037117 51.085053,20.2199446 45.1339801,12.6693581 L36.2327239,16.3357606 Z" id="Path-32" fill="#556188"></path>
                <path d="M15.7760043,79.2594439 L46.1418839,36.364255 C42.1967229,33.1828008 38.5958926,30.6380651 35.3393931,28.7300478 C30.4546437,25.8680219 23.6667651,25.1858245 17.5117054,31.6342785 C11.3566458,38.0827326 0.117005118,56.1702571 0.58139998,79.7967396" id="Path-26" fill="#0099EB"></path>
                <path d="M42.9036107,20.2611859 C43.7158202,20.718465 45.4189463,21.887503 46.4055873,21.6427789" id="Path-2" stroke="#686868" stroke-width="0.997724522" opacity="0.700618004" stroke-linecap="round"></path>
                <path d="M51.8332876,25.3483906 C54.0384233,26.7742235 54.6639271,26.959271 55.261202,26.5725031" id="Path-2" stroke="#686868" stroke-width="0.997724522" opacity="0.700618004" stroke-linecap="round" transform="translate(53.547245, 26.048399) scale(-1, 1) rotate(-57.000000) translate(-53.547245, -26.048399) "></path>
                <path d="M42.0948877,23.6159714 C41.4068714,22.7218283 42.0619158,22.7716572 42.5272363,22.8833052 C42.9925568,22.9949532 45.2441992,23.4879818 45.3989418,24.002753 C45.5536844,24.5175242 45.2089683,24.7355271 44.9341635,24.7355271 C44.0528876,24.8051075 42.7829041,24.5101145 42.0948877,23.6159714 Z" id="Path-3" fill-opacity="0.412165987" fill="#686868" fill-rule="nonzero"></path>
                <path d="M50.4681345,28.4261768 C49.7801182,27.5320337 50.4351625,27.5818626 50.900483,27.6935106 C51.3658035,27.8051586 53.6174459,28.2981872 53.7721885,28.8129584 C53.9269311,29.3277297 53.5822151,29.5457325 53.3074103,29.5457325 C52.4261344,29.6153129 51.1561508,29.3203199 50.4681345,28.4261768 Z" id="Path-3-Copy" fill-opacity="0.412165987" fill="#686868" fill-rule="nonzero" transform="translate(51.990210, 28.594490) scale(-1, 1) rotate(-58.000000) translate(-51.990210, -28.594490) "></path>
            </g>
        </g>
    </g>
</svg>